0
SECTION
2
HEADER
9
$INSUNITS
70
4
9
$ACADVER
1
AC1014
9
$HANDSEED
5
FFFF
0
ENDSEC
0
SECTION
2
TABLES
0
TABLE
2
VPORT
5
8
100
AcDbSymbolTable
0
ENDTAB
0
TABLE
2
LTYPE
5
5
100
AcDbSymbolTable
0
LTYPE
5
14
100
AcDbSymbolTableRecord
100
AcDbLinetypeTableRecord
2
BYBLOCK
70
0
0
LTYPE
5
15
100
AcDbSymbolTableRecord
100
AcDbLinetypeTableRecord
2
BYLAYER
70
0
0
LTYPE
5
16
100
AcDbSymbolTableRecord
100
AcDbLinetypeTableRecord
2
DASHED
70
0
3
Dashed __ __ __ __ __ __ __ __ __ __ __ __ __ _
72
65
73
2
40
0.75
49
0.5
74
0
49
-0.25
74
0
0
ENDTAB
0
TABLE
2
LAYER
5
2
100
AcDbSymbolTable
70
2
0
LAYER
5
50
100
AcDbSymbolTableRecord
100
AcDbLayerTableRecord
2
0
70
0
62
7
6
CONTINUOUS
0
ENDTAB
0
TABLE
2
STYLE
5
3
100
AcDbSymbolTable
70
1
0
STYLE
5
11
100
AcDbSymbolTableRecord
100
AcDbTextStyleTableRecord
2
STANDARD
70
0
0
ENDTAB
0
TABLE
2
VIEW
5
6
100
AcDbSymbolTable
70
0
0
ENDTAB
0
TABLE
2
UCS
5
7
100
AcDbSymbolTable
70
0
0
ENDTAB
0
TABLE
2
APPID
5
9
100
AcDbSymbolTable
70
2
0
APPID
5
12
100
AcDbSymbolTableRecord
100
AcDbRegAppTableRecord
2
ACAD
70
0
0
ENDTAB
0
TABLE
2
DIMSTYLE
5
A
100
AcDbSymbolTable
70
1
0
ENDTAB
0
TABLE
2
BLOCK_RECORD
5
1
100
AcDbSymbolTable
70
1
0
BLOCK_RECORD
5
1F
100
AcDbSymbolTableRecord
100
AcDbBlockTableRecord
2
*MODEL_SPACE
0
BLOCK_RECORD
5
1B
100
AcDbSymbolTableRecord
100
AcDbBlockTableRecord
2
*PAPER_SPACE
0
ENDTAB
0
ENDSEC
0
SECTION
2
BLOCKS
0
BLOCK
5
20
100
AcDbEntity
100
AcDbBlockBegin
2
*MODEL_SPACE
0
ENDBLK
5
21
100
AcDbEntity
100
AcDbBlockEnd
0
BLOCK
5
1C
100
AcDbEntity
100
AcDbBlockBegin
2
*PAPER_SPACE
0
ENDBLK
5
1D
100
AcDbEntity
100
AcDbBlockEnd
0
ENDSEC
0
SECTION
2
ENTITIES
0
LWPOLYLINE
5
100
100
AcDbEntity
8
0
100
AcDbPolyline
90
12
70
1
43
0.0
10
49.032339744944046
20
54.088962769561334
10
49.032339744944046
20
37.838893760495701
10
47.775824503042969
20
36.547123327387688
10
47.775824503042969
20
35.734481352302744
42
-0.41338904720961683
10
47.275898521680304
20
35.234555370940079
10
15.349720755755815
20
35.234555370940086
42
-0.4146238327970842
10
14.849794522224522
20
35.734475972705397
10
14.849794522224528
20
61.417924458834847
42
-0.41338919444725247
10
15.349720755755815
20
61.917850440197519
10
47.05096679744986
20
61.917850440197512
10
47.775824503042969
20
61.192992734604402
10
47.775824503042969
20
55.380733202669347
0
LWPOLYLINE
5
101
100
AcDbEntity
8
0
100
AcDbPolyline
90
2
70
1
43
0.0
10
48.650165080089039
20
53.036226675126272
42
-2.4142188118110171
10
47.830118089257347
20
53.856273665957971
42
-0.41421266171389554
0
LWPOLYLINE
5
102
100
AcDbEntity
8
0
100
AcDbPolyline
90
2
70
1
43
0.0
10
48.649810026664198
20
42.752128432962607
42
-2.4142132124063771
10
47.829763035832507
20
43.572178113592983
42
-0.41433857343728514
0
LWPOLYLINE
5
103
100
AcDbEntity
8
0
100
AcDbPolyline
90
2
70
1
43
0.0
10
22.647304346440894
20
36.508696863545296
42
-2.4134825239495945
10
21.827256010709867
20
37.329096218003158
42
-0.41433902672869938
0
LWPOLYLINE
5
104
100
AcDbEntity
8
0
100
AcDbPolyline
90
2
70
1
43
0.0
10
22.45128257834779
20
60.637366402321369
42
-2.413482522747227
10
21.6308818789906
20
61.457413393153068
42
-0.41433902693511809
0
ARC
5
105
100
AcDbEntity
8
0
100
AcDbCircle
10
-45.53779108452283
20
61.918261641236434
30
0
40
0.40438319773909848
210
0
220
-0
230
-1
100
AcDbArc
50
180.05841118280034
51
359.9415888171996
0
ARC
5
106
100
AcDbEntity
8
0
100
AcDbCircle
10
-45.537438720896674
20
61.91784938579643
30
0
40
0.2859242540399265
210
0
220
0
230
-1
100
AcDbArc
50
-180
51
0
0
ARC
5
107
100
AcDbEntity
8
0
100
AcDbCircle
10
-45.537616247609094
20
61.931409777409449
30
0
40
0.52319500940169006
210
0
220
-0
230
-1
100
AcDbArc
50
181.4851827877246
51
358.51481721227543
0
ARC
5
108
100
AcDbEntity
8
0
100
AcDbCircle
10
-44.274930607552164
20
61.918261641236434
30
0
40
0.40438319773909848
210
0
220
-0
230
-1
100
AcDbArc
50
180.05841118280034
51
359.9415888171996
0
ARC
5
109
100
AcDbEntity
8
0
100
AcDbCircle
10
-44.274754425739076
20
61.927876849636078
30
0
40
0.28592395984319258
210
0
220
-0
230
-1
100
AcDbArc
50
182.00979727336377
51
357.9902027266362
0
ARC
5
110
100
AcDbEntity
8
0
100
AcDbCircle
10
-44.274403407012251
20
61.931409777409449
30
0
40
0.52319500940169006
210
0
220
-0
230
-1
100
AcDbArc
50
181.4851827877246
51
358.51481721227543
0
ARC
5
111
100
AcDbEntity
8
0
100
AcDbCircle
10
-43.012070130581478
20
61.918261641236434
30
0
40
0.40438319773909848
210
0
220
-0
230
-1
100
AcDbArc
50
180.05841118280034
51
359.9415888171996
0
ARC
5
112
100
AcDbEntity
8
0
100
AcDbCircle
10
-43.012070130581478
20
61.91784938579643
30
0
40
0.2859242540399265
210
0
220
0
230
-1
100
AcDbArc
50
-180
51
0
0
ARC
5
113
100
AcDbEntity
8
0
100
AcDbCircle
10
-43.011895293667742
20
61.931409777409449
30
0
40
0.52319500940169006
210
0
220
-0
230
-1
100
AcDbArc
50
181.4851827877246
51
358.51481721227543
0
ARC
5
114
100
AcDbEntity
8
0
100
AcDbCircle
10
-41.749209653610819
20
61.918261641236434
30
0
40
0.40438319773909848
210
0
220
-0
230
-1
100
AcDbArc
50
180.05841118280034
51
359.9415888171996
0
ARC
5
115
100
AcDbEntity
8
0
100
AcDbCircle
10
-41.749209653610819
20
61.91784938579643
30
0
40
0.2859242540399265
210
0
220
0
230
-1
100
AcDbArc
50
-180
51
0
0
ARC
5
116
100
AcDbEntity
8
0
100
AcDbCircle
10
-41.749034816697076
20
61.931409777409449
30
0
40
0.52319500940169006
210
0
220
-0
230
-1
100
AcDbArc
50
181.4851827877246
51
358.51481721227543
0
ARC
5
117
100
AcDbEntity
8
0
100
AcDbCircle
10
-40.48634917664014
20
61.918261641236434
30
0
40
0.40438319773909848
210
0
220
-0
230
-1
100
AcDbArc
50
180.05841118280034
51
359.9415888171996
0
ARC
5
118
100
AcDbEntity
8
0
100
AcDbCircle
10
-40.48634917664014
20
61.91784938579643
30
0
40
0.2859242540399265
210
0
220
0
230
-1
100
AcDbArc
50
-180
51
0
0
ARC
5
119
100
AcDbEntity
8
0
100
AcDbCircle
10
-40.486174339726389
20
61.931409777409449
30
0
40
0.52319500940169006
210
0
220
-0
230
-1
100
AcDbArc
50
181.4851827877246
51
358.51481721227543
0
ARC
5
120
100
AcDbEntity
8
0
100
AcDbCircle
10
-39.223491389468144
20
61.918261641236434
30
0
40
0.40438319773909848
210
0
220
-0
230
-1
100
AcDbArc
50
180.05841118280034
51
359.9415888171996
0
ARC
5
121
100
AcDbEntity
8
0
100
AcDbCircle
10
-39.223488699669467
20
61.91784938579643
30
0
40
0.28592425403992205
210
0
220
0
230
-1
100
AcDbArc
50
-180
51
0
0
ARC
5
122
100
AcDbEntity
8
0
100
AcDbCircle
10
-39.223313862755724
20
61.931409777409449
30
0
40
0.52319500940169006
210
0
220
-0
230
-1
100
AcDbArc
50
181.4851827877246
51
358.51481721227543
0
ARC
5
123
100
AcDbEntity
8
0
100
AcDbCircle
10
-37.960630912497464
20
61.918261641236434
30
0
40
0.40438319773909848
210
0
220
-0
230
-1
100
AcDbArc
50
180.05841118280034
51
359.9415888171996
0
ARC
5
124
100
AcDbEntity
8
0
100
AcDbCircle
10
-37.960630912497464
20
61.91784938579643
30
0
40
0.28592425403992205
210
0
220
0
230
-1
100
AcDbArc
50
-180
51
0
0
ARC
5
125
100
AcDbEntity
8
0
100
AcDbCircle
10
-37.960456075583721
20
61.931409777409449
30
0
40
0.52319500940169006
210
0
220
-0
230
-1
100
AcDbArc
50
181.4851827877246
51
358.51481721227543
0
ARC
5
126
100
AcDbEntity
8
0
100
AcDbCircle
10
-35.413051309640039
20
61.918261641236434
30
0
40
0.40438319773909848
210
0
220
-0
230
-1
100
AcDbArc
50
180.05841118280034
51
359.9415888171996
0
ARC
5
127
100
AcDbEntity
8
0
100
AcDbCircle
10
-35.413051309640039
20
61.91784938579643
30
0
40
0.28592425403992205
210
0
220
0
230
-1
100
AcDbArc
50
-180
51
0
0
ARC
5
128
100
AcDbEntity
8
0
100
AcDbCircle
10
-35.412874455377285
20
61.931435688769852
30
0
40
0.52319500940168917
210
0
220
-0
230
-1
100
AcDbArc
50
181.48802133057515
51
358.51197866942584
0
ARC
5
129
100
AcDbEntity
8
0
100
AcDbCircle
10
-34.150190832669367
20
61.918261641236434
30
0
40
0.40438319773909848
210
0
220
-0
230
-1
100
AcDbArc
50
180.05841118280034
51
359.9415888171996
0
ARC
5
130
100
AcDbEntity
8
0
100
AcDbCircle
10
-34.150190832669367
20
61.91784938579643
30
0
40
0.28592425403992205
210
0
220
0
230
-1
100
AcDbArc
50
-180
51
0
0
ARC
5
131
100
AcDbEntity
8
0
100
AcDbCircle
10
-34.150013978406612
20
61.931435688769852
30
0
40
0.52319500940168917
210
0
220
-0
230
-1
100
AcDbArc
50
181.48802133057515
51
358.51197866942584
0
ARC
5
132
100
AcDbEntity
8
0
100
AcDbCircle
10
-32.887330355698694
20
61.918261641236434
30
0
40
0.40438319773909848
210
0
220
-0
230
-1
100
AcDbArc
50
180.05841118280034
51
359.9415888171996
0
ARC
5
133
100
AcDbEntity
8
0
100
AcDbCircle
10
-32.887330355698694
20
61.91784938579643
30
0
40
0.28592425403992205
210
0
220
0
230
-1
100
AcDbArc
50
-180
51
0
0
ARC
5
134
100
AcDbEntity
8
0
100
AcDbCircle
10
-32.886801137809776
20
61.931435688769852
30
0
40
0.52319500940168917
210
0
220
-0
230
-1
100
AcDbArc
50
181.48802133057515
51
358.51197866942584
0
ARC
5
135
100
AcDbEntity
8
0
100
AcDbCircle
10
-31.624469878728018
20
61.918261641236434
30
0
40
0.40438319773909848
210
0
220
-0
230
-1
100
AcDbArc
50
180.05841118280034
51
359.9415888171996
0
ARC
5
136
100
AcDbEntity
8
0
100
AcDbCircle
10
-31.624469878728018
20
61.91784938579643
30
0
40
0.28592425403992205
210
0
220
0
230
-1
100
AcDbArc
50
-180
51
0
0
ARC
5
137
100
AcDbEntity
8
0
100
AcDbCircle
10
-31.624293024465267
20
61.931435688769852
30
0
40
0.52319500940168917
210
0
220
-0
230
-1
100
AcDbArc
50
181.48802133057515
51
358.51197866942584
0
ARC
5
138
100
AcDbEntity
8
0
100
AcDbCircle
10
-30.361609401757342
20
61.918261641236434
30
0
40
0.40438319773909848
210
0
220
-0
230
-1
100
AcDbArc
50
180.05841118280034
51
359.9415888171996
0
ARC
5
139
100
AcDbEntity
8
0
100
AcDbCircle
10
-30.361609401757342
20
61.91784938579643
30
0
40
0.28592425403992205
210
0
220
0
230
-1
100
AcDbArc
50
-180
51
0
0
ARC
5
140
100
AcDbEntity
8
0
100
AcDbCircle
10
-30.361432547494598
20
61.931435688769852
30
0
40
0.52319500940168917
210
0
220
-0
230
-1
100
AcDbArc
50
181.48802133057515
51
358.51197866942584
0
ARC
5
141
100
AcDbEntity
8
0
100
AcDbCircle
10
-29.098750269686011
20
61.918261641236434
30
0
40
0.40438319773909848
210
0
220
-0
230
-1
100
AcDbArc
50
180.05841118280034
51
359.9415888171996
0
ARC
5
142
100
AcDbEntity
8
0
100
AcDbCircle
10
-29.098750269686011
20
61.91784938579643
30
0
40
0.28592425403992205
210
0
220
0
230
-1
100
AcDbArc
50
-180
51
0
0
ARC
5
143
100
AcDbEntity
8
0
100
AcDbCircle
10
-29.098573415423257
20
61.931435688769852
30
0
40
0.52319500940168917
210
0
220
-0
230
-1
100
AcDbArc
50
181.48802133057515
51
358.51197866942584
0
ARC
5
144
100
AcDbEntity
8
0
100
AcDbCircle
10
-27.835889792715335
20
61.918261641236434
30
0
40
0.40438319773909848
210
0
220
-0
230
-1
100
AcDbArc
50
180.05841118280034
51
359.9415888171996
0
ARC
5
145
100
AcDbEntity
8
0
100
AcDbCircle
10
-27.835889792715335
20
61.91784938579643
30
0
40
0.28592425403992205
210
0
220
0
230
-1
100
AcDbArc
50
-180
51
0
0
ARC
5
146
100
AcDbEntity
8
0
100
AcDbCircle
10
-27.836065302078747
20
61.931435688769852
30
0
40
0.52319500940168917
210
0
220
-0
230
-1
100
AcDbArc
50
181.48802133057515
51
358.51197866942584
0
ARC
5
147
100
AcDbEntity
8
0
100
AcDbCircle
10
-26.573029315744662
20
61.918261641236434
30
0
40
0.40438319773909848
210
0
220
-0
230
-1
100
AcDbArc
50
180.05841118280034
51
359.9415888171996
0
ARC
5
148
100
AcDbEntity
8
0
100
AcDbCircle
10
-26.573029315744662
20
61.91784938579643
30
0
40
0.28592425403992205
210
0
220
0
230
-1
100
AcDbArc
50
-180
51
0
0
ARC
5
149
100
AcDbEntity
8
0
100
AcDbCircle
10
-26.573204825108078
20
61.931435688769852
30
0
40
0.52319500940168917
210
0
220
-0
230
-1
100
AcDbArc
50
181.48802133057515
51
358.51197866942584
0
ARC
5
150
100
AcDbEntity
8
0
100
AcDbCircle
10
-25.31016883877399
20
61.918261641236434
30
0
40
0.40438319773909848
210
0
220
-0
230
-1
100
AcDbArc
50
180.05841118280034
51
359.9415888171996
0
ARC
5
151
100
AcDbEntity
8
0
100
AcDbCircle
10
-25.31016883877399
20
61.91784938579643
30
0
40
0.28592425403992205
210
0
220
0
230
-1
100
AcDbArc
50
-180
51
0
0
ARC
5
152
100
AcDbEntity
8
0
100
AcDbCircle
10
-25.310344348137406
20
61.931435688769852
30
0
40
0.52319500940168917
210
0
220
-0
230
-1
100
AcDbArc
50
181.48802133057515
51
358.51197866942584
0
ARC
5
153
100
AcDbEntity
8
0
100
AcDbCircle
10
-24.047485552290901
20
61.91784938579643
30
0
40
0.40455950563649257
210
0
220
0
230
-1
100
AcDbArc
50
-180
51
0
0
ARC
5
154
100
AcDbEntity
8
0
100
AcDbCircle
10
-24.047309370477823
20
61.918004413801093
30
0
40
0.28592395984319169
210
0
220
-0
230
-1
100
AcDbArc
50
180.03106577991085
51
359.96893422008918
0
ARC
5
155
100
AcDbEntity
8
0
100
AcDbCircle
10
-24.047485216066065
20
61.931435688769852
30
0
40
0.52319500940168917
210
0
220
-0
230
-1
100
AcDbArc
50
181.48802133057515
51
358.51197866942584
0
ARC
5
156
100
AcDbEntity
8
0
100
AcDbCircle
10
-46.536938319995826
20
35.23413937130033
30
0
40
0.40438319773909848
210
0
220
0
230
-1
100
AcDbArc
50
0.058411182800348932
51
179.94158881719966
0
ARC
5
157
100
AcDbEntity
8
0
100
AcDbCircle
10
-46.536938319995826
20
35.234551626740334
30
0
40
0.2859242540399265
210
0
220
0
230
-1
100
AcDbArc
50
0
51
180
0
ARC
5
158
100
AcDbEntity
8
0
100
AcDbCircle
10
-46.536760793283413
20
35.220991235127308
30
0
40
0.52319500940169006
210
0
220
0
230
-1
100
AcDbArc
50
1.4851827877245865
51
178.5148172122754
0
ARC
5
159
100
AcDbEntity
8
0
100
AcDbCircle
10
-45.274077843025154
20
35.23413937130033
30
0
40
0.40438319773909848
210
0
220
0
230
-1
100
AcDbArc
50
0.058411182800348932
51
179.94158881719966
0
ARC
5
160
100
AcDbEntity
8
0
100
AcDbCircle
10
-45.274077843025154
20
35.234551626740334
30
0
40
0.2859242540399265
210
0
220
0
230
-1
100
AcDbArc
50
0
51
180
0
ARC
5
161
100
AcDbEntity
8
0
100
AcDbCircle
10
-45.274252679938904
20
35.220991235127308
30
0
40
0.52319500940169006
210
0
220
0
230
-1
100
AcDbArc
50
1.4851827877245865
51
178.5148172122754
0
ARC
5
162
100
AcDbEntity
8
0
100
AcDbCircle
10
-44.011217366054481
20
35.23413937130033
30
0
40
0.40438319773909848
210
0
220
0
230
-1
100
AcDbArc
50
0.058411182800348932
51
179.94158881719966
0
ARC
5
163
100
AcDbEntity
8
0
100
AcDbCircle
10
-44.011217366054481
20
35.234551626740334
30
0
40
0.2859242540399265
210
0
220
0
230
-1
100
AcDbArc
50
0
51
180
0
ARC
5
164
100
AcDbEntity
8
0
100
AcDbCircle
10
-44.011392202968231
20
35.220991235127308
30
0
40
0.52319500940169006
210
0
220
0
230
-1
100
AcDbArc
50
1.4851827877245865
51
178.5148172122754
0
ARC
5
165
100
AcDbEntity
8
0
100
AcDbCircle
10
-42.748535760695567
20
35.234551626740334
30
0
40
0.40455916941166237
210
0
220
0
230
-1
100
AcDbArc
50
0
51
180
0
ARC
5
166
100
AcDbEntity
8
0
100
AcDbCircle
10
-42.748711942508649
20
35.234551626740334
30
0
40
0.2859242540399265
210
0
220
0
230
-1
100
AcDbArc
50
0
51
180
0
ARC
5
167
100
AcDbEntity
8
0
100
AcDbCircle
10
-42.748534415796229
20
35.220991235127308
30
0
40
0.52319500940169006
210
0
220
0
230
-1
100
AcDbArc
50
1.4851827877245865
51
178.5148172122754
0
ARC
5
168
100
AcDbEntity
8
0
100
AcDbCircle
10
-41.485675283724888
20
35.222608897974041
30
0
40
0.40438319773910331
210
0
220
0
230
-1
100
AcDbArc
50
1.6923736394814837
51
178.30762636051983
0
ARC
5
169
100
AcDbEntity
8
0
100
AcDbCircle
10
-41.485851465537976
20
35.234551626740334
30
0
40
0.2859242540399265
210
0
220
0
230
-1
100
AcDbArc
50
0
51
180
0
ARC
5
170
100
AcDbEntity
8
0
100
AcDbCircle
10
-41.485673938825549
20
35.220991235127308
30
0
40
0.52319500940169006
210
0
220
0
230
-1
100
AcDbArc
50
1.4851827877245865
51
178.5148172122754
0
ARC
5
171
100
AcDbEntity
8
0
100
AcDbCircle
10
-40.223167170380378
20
35.234551626740334
30
0
40
0.40455916941165793
210
0
220
0
230
-1
100
AcDbArc
50
0
51
180
0
ARC
5
172
100
AcDbEntity
8
0
100
AcDbCircle
10
-40.222990988567304
20
35.234551626740334
30
0
40
0.28592425403992205
210
0
220
0
230
-1
100
AcDbArc
50
0
51
180
0
ARC
5
173
100
AcDbEntity
8
0
100
AcDbCircle
10
-40.22316582548104
20
35.220991235127308
30
0
40
0.52319500940169006
210
0
220
0
230
-1
100
AcDbArc
50
1.4851827877245865
51
178.5148172122754
0
ARC
5
174
100
AcDbEntity
8
0
100
AcDbCircle
10
-37.643328812037737
20
35.23413937130033
30
0
40
0.40438319773909848
210
0
220
0
230
-1
100
AcDbArc
50
0.058411182800348932
51
179.94158881719966
0
ARC
5
175
100
AcDbEntity
8
0
100
AcDbCircle
10
-37.643328812037737
20
35.234551626740334
30
0
40
0.28592425403992205
210
0
220
0
230
-1
100
AcDbArc
50
0
51
180
0
ARC
5
176
100
AcDbEntity
8
0
100
AcDbCircle
10
-37.643151285325317
20
35.220991235127308
30
0
40
0.52319500940169006
210
0
220
0
230
-1
100
AcDbArc
50
1.4851827877245865
51
178.5148172122754
0
ARC
5
177
100
AcDbEntity
8
0
100
AcDbCircle
10
-36.380468335067057
20
35.23413937130033
30
0
40
0.40438319773909848
210
0
220
0
230
-1
100
AcDbArc
50
0.058411182800348932
51
179.94158881719966
0
ARC
5
178
100
AcDbEntity
8
0
100
AcDbCircle
10
-36.380468335067057
20
35.234551626740334
30
0
40
0.28592425403992205
210
0
220
0
230
-1
100
AcDbArc
50
0
51
180
0
ARC
5
179
100
AcDbEntity
8
0
100
AcDbCircle
10
-36.380643844430473
20
35.220965323766904
30
0
40
0.52319500940168895
210
0
220
0
230
-1
100
AcDbArc
50
1.488021330575662
51
178.51197866942434
0
ARC
5
180
100
AcDbEntity
8
0
100
AcDbCircle
10
-35.117607858096392
20
35.23413937130033
30
0
40
0.40438319773909848
210
0
220
0
230
-1
100
AcDbArc
50
0.058411182800348932
51
179.94158881719966
0
ARC
5
181
100
AcDbEntity
8
0
100
AcDbCircle
10
-35.117607858096392
20
35.234551626740334
30
0
40
0.28592425403992205
210
0
220
0
230
-1
100
AcDbArc
50
0
51
180
0
ARC
5
182
100
AcDbEntity
8
0
100
AcDbCircle
10
-35.117784712359139
20
35.220965323766904
30
0
40
0.52319500940168895
210
0
220
0
230
-1
100
AcDbArc
50
1.488021330575662
51
178.51197866942411
0
ARC
5
183
100
AcDbEntity
8
0
100
AcDbCircle
10
-33.854924235388467
20
35.234551626740334
30
0
40
0.40455984186132721
210
0
220
0
230
-1
100
AcDbArc
50
0
51
180
0
ARC
5
184
100
AcDbEntity
8
0
100
AcDbCircle
10
-33.855101089651214
20
35.234551626740334
30
0
40
0.28592425403992205
210
0
220
0
230
-1
100
AcDbArc
50
0
51
180
0
ARC
5
185
100
AcDbEntity
8
0
100
AcDbCircle
10
-33.854925580287805
20
35.220965323766904
30
0
40
0.52319500940168895
210
0
220
0
230
-1
100
AcDbArc
50
1.488021330575662
51
178.51197866942434
0
ARC
5
186
100
AcDbEntity
8
0
100
AcDbCircle
10
-32.592240612680541
20
35.23413937130033
30
0
40
0.40438319773909848
210
0
220
0
230
-1
100
AcDbArc
50
0.058411182800348932
51
179.94158881719966
0
ARC
5
187
100
AcDbEntity
8
0
100
AcDbCircle
10
-32.592240612680541
20
35.234551626740334
30
0
40
0.28592425403992205
210
0
220
0
230
-1
100
AcDbArc
50
0
51
180
0
ARC
5
188
100
AcDbEntity
8
0
100
AcDbCircle
10
-32.592065103317125
20
35.220965323766904
30
0
40
0.52319500940168895
210
0
220
0
230
-1
100
AcDbArc
50
1.488021330575662
51
178.51197866942411
0
ARC
5
189
100
AcDbEntity
8
0
100
AcDbCircle
10
-31.329380135709869
20
35.23413937130033
30
0
40
0.40438319773909848
210
0
220
0
230
-1
100
AcDbArc
50
0.058411182800348932
51
179.94158881719966
0
ARC
5
190
100
AcDbEntity
8
0
100
AcDbCircle
10
-31.329380135709869
20
35.234551626740334
30
0
40
0.28592425403992205
210
0
220
0
230
-1
100
AcDbArc
50
0
51
180
0
ARC
5
191
100
AcDbEntity
8
0
100
AcDbCircle
10
-31.329556989972616
20
35.220965323766904
30
0
40
0.52319500940168895
210
0
220
0
230
-1
100
AcDbArc
50
1.488021330575662
51
178.51197866942411
0
ARC
5
192
100
AcDbEntity
8
0
100
AcDbCircle
10
-30.066519658739193
20
35.23413937130033
30
0
40
0.40438319773909848
210
0
220
0
230
-1
100
AcDbArc
50
0.058411182800348932
51
179.94158881719966
0
ARC
5
193
100
AcDbEntity
8
0
100
AcDbCircle
10
-30.066519658739193
20
35.234551626740334
30
0
40
0.28592425403992205
210
0
220
0
230
-1
100
AcDbArc
50
0
51
180
0
ARC
5
194
100
AcDbEntity
8
0
100
AcDbCircle
10
-30.066696513001947
20
35.220965323766904
30
0
40
0.52319500940168895
210
0
220
0
230
-1
100
AcDbArc
50
1.488021330575662
51
178.51197866942434
0
ARC
5
195
100
AcDbEntity
8
0
100
AcDbCircle
10
-28.80383670848094
20
35.234551626740334
30
0
40
0.40455916941165793
210
0
220
0
230
-1
100
AcDbArc
50
0
51
180
0
ARC
5
196
100
AcDbEntity
8
0
100
AcDbCircle
10
-28.804012890294022
20
35.234551626740334
30
0
40
0.28592425403992205
210
0
220
0
230
-1
100
AcDbArc
50
0
51
180
0
ARC
5
197
100
AcDbEntity
8
0
100
AcDbCircle
10
-28.803837380930606
20
35.220965323766904
30
0
40
0.52319500940168895
210
0
220
0
230
-1
100
AcDbArc
50
1.488021330575662
51
178.51197866942434
0
LWPOLYLINE
5
198
100
AcDbEntity
8
0
100
AcDbPolyline
90
2
70
1
43
0.0
10
28.856895677104418
20
40.726336440680853
42
-2.4127279640207853
10
29.261278664702992
20
41.131071791905597
42
-0.41294166754378442
0
LWPOLYLINE
5
199
100
AcDbEntity
8
0
100
AcDbPolyline
90
2
70
1
43
0.0
10
28.570971423686792
20
41.13107229680358
42
-2.4121065367839742
10
28.856896131980001
20
40.8447952243244
42
-0.41493785023024171
0
LWPOLYLINE
5
200
100
AcDbEntity
8
0
100
AcDbPolyline
90
2
70
1
43
0.0
10
28.857248040730585
20
41.653208785810499
42
-2.4176666109980922
10
28.334404974674015
20
41.130719428279434
42
-0.41322828729689276
0
LWPOLYLINE
5
201
100
AcDbEntity
8
0
100
AcDbPolyline
90
2
70
1
43
0.0
10
30.119403790448928
20
40.726336440680853
42
-2.4112421536730966
10
30.524139141673672
20
41.131071791905597
42
-0.4131960112889036
0
LWPOLYLINE
5
202
100
AcDbEntity
8
0
100
AcDbPolyline
90
2
70
1
43
0.0
10
29.833831900735504
20
41.131072359825822
42
-2.4142074567488083
10
30.119404245165082
20
40.844795287023516
42
-0.41493880719184284
0
LWPOLYLINE
5
203
100
AcDbEntity
8
0
100
AcDbPolyline
90
2
70
1
43
0.0
10
30.119756154075095
20
41.653208785810499
42
-2.4165149463098556
10
29.596560724392361
20
41.130719428279434
42
-0.41342509169841707
0
LWPOLYLINE
5
204
100
AcDbEntity
8
0
100
AcDbPolyline
90
2
70
1
43
0.0
10
31.3822642674196
20
40.726336440680853
42
-2.4112421536730966
10
31.786999618644344
20
41.131071791905597
42
-0.41319601128890682
0
LWPOLYLINE
5
205
100
AcDbEntity
8
0
100
AcDbPolyline
90
2
70
1
43
0.0
10
31.096692377706177
20
41.131072359825822
42
-2.4142074567488083
10
31.382264722135751
20
40.844795287023516
42
-0.41493880719184284
0
LWPOLYLINE
5
206
100
AcDbEntity
8
0
100
AcDbPolyline
90
2
70
1
43
0.0
10
31.382616631045771
20
41.653208785810499
42
-2.4165149463098556
10
30.859421201363038
20
41.130719428279434
42
-0.41342509169841951
0
LWPOLYLINE
5
207
100
AcDbEntity
8
0
100
AcDbPolyline
90
2
70
1
43
0.0
10
32.645123399490942
20
40.726336440680853
42
-2.4127279640207853
10
33.049506387089515
20
41.131071791905597
42
-0.41294221735714554
0
LWPOLYLINE
5
208
100
AcDbEntity
8
0
100
AcDbPolyline
90
2
70
1
43
0.0
10
32.359552853976517
20
41.131071791905597
42
-2.4142074567488052
10
32.645124744390273
20
40.844795174239508
42
-0.41493775779882863
0
LWPOLYLINE
5
209
100
AcDbEntity
8
0
100
AcDbPolyline
90
2
70
1
43
0.0
10
32.645124744390273
20
41.653208785810499
42
-2.4176666109980922
10
32.122281678333707
20
41.130719428279434
42
-0.41322828729689276
0
LWPOLYLINE
5
210
100
AcDbEntity
8
0
100
AcDbPolyline
90
2
70
1
43
0.0
10
33.907983876461614
20
40.726336440680853
42
-2.4127279640207853
10
34.312366864060181
20
41.131071791905597
42
-0.41294221735714554
0
LWPOLYLINE
5
211
100
AcDbEntity
8
0
100
AcDbPolyline
90
2
70
1
43
0.0
10
33.622411986047851
20
41.131071791905597
42
-2.4142074567488052
10
33.907983876461614
20
40.844795174239508
42
-0.41493775779882863
0
LWPOLYLINE
5
212
100
AcDbEntity
8
0
100
AcDbPolyline
90
2
70
1
43
0.0
10
33.907983876461614
20
41.653208785810499
42
-2.4176666109980922
10
33.385140810405048
20
41.130719428279434
42
-0.4132282872968952
0
LWPOLYLINE
5
213
100
AcDbEntity
8
0
100
AcDbPolyline
90
2
70
1
43
0.0
10
35.170844353432287
20
40.726336440680853
42
-2.4127279640207853
10
35.57522734103086
20
41.131071791905597
42
-0.41294221735714554
0
LWPOLYLINE
5
214
100
AcDbEntity
8
0
100
AcDbPolyline
90
2
70
1
43
0.0
10
34.884920100281754
20
41.131072513293972
42
-2.4142074567488021
10
35.170492444388998
20
40.844795440814806
42
-0.41493896453910512
0
LWPOLYLINE
5
215
100
AcDbEntity
8
0
100
AcDbPolyline
90
2
70
1
43
0.0
10
35.170844353432287
20
41.653208785810499
42
-2.4165149463098556
10
34.647648923749557
20
41.130719428279434
42
-0.41342509169841707
0
LWPOLYLINE
5
216
100
AcDbEntity
8
0
100
AcDbPolyline
90
2
70
1
43
0.0
10
36.433351121877458
20
40.726336440680853
42
-2.4127222924828713
10
36.837735454375377
20
41.131071791905583
42
-0.41319653783696936
0
LWPOLYLINE
5
217
100
AcDbEntity
8
0
100
AcDbPolyline
90
2
70
1
43
0.0
10
36.147780576363033
20
41.131071791905597
42
-2.414215476541774
10
36.433351121877458
20
40.844795174239508
42
-0.41493776120691872
0
LWPOLYLINE
5
218
100
AcDbEntity
8
0
100
AcDbPolyline
90
2
70
1
43
0.0
10
36.433703485503621
20
41.653208785810499
42
-2.4165149463098556
10
35.910508055820891
20
41.130719428279434
42
-0.41342509169841951
0
LWPOLYLINE
5
219
100
AcDbEntity
8
0
100
AcDbPolyline
90
2
70
1
43
0.0
10
37.69621159884813
20
40.726336440680853
42
-2.4127222924828713
10
38.100595931346049
20
41.131071791905583
42
-0.41294318553171605
0
LWPOLYLINE
5
220
100
AcDbEntity
8
0
100
AcDbPolyline
90
2
70
1
43
0.0
10
37.410641053333713
20
41.131071791905597
42
-2.414215476541774
10
37.69621159884813
20
40.844795174239508
42
-0.41493637771097258
0
LWPOLYLINE
5
221
100
AcDbEntity
8
0
100
AcDbPolyline
90
2
70
1
43
0.0
10
37.696214288646807
20
41.653208785810499
42
-2.4176666109980922
10
37.173371222590234
20
41.130719428279434
42
-0.41322828729689276
0
LWPOLYLINE
5
222
100
AcDbEntity
8
0
100
AcDbPolyline
90
2
70
1
43
0.0
10
40.275873775377704
20
40.726336440680853
42
-2.4112364831514066
10
40.68061047150178
20
41.131071791905597
42
-0.41294362684492258
0
LWPOLYLINE
5
223
100
AcDbEntity
8
0
100
AcDbPolyline
90
2
70
1
43
0.0
10
39.990303230564216
20
41.13107236031005
42
-2.4142154765417803
10
40.275874230094786
20
40.844795287505271
42
-0.41493742760027202
0
LWPOLYLINE
5
224
100
AcDbEntity
8
0
100
AcDbPolyline
90
2
70
1
43
0.0
10
40.275876465176374
20
41.653208785810499
42
-2.4176666109980922
10
39.753033399119801
20
41.130719428279434
42
-0.41322828729689276
0
LWPOLYLINE
5
225
100
AcDbEntity
8
0
100
AcDbPolyline
90
2
70
1
43
0.0
10
41.538734252348362
20
40.726336440680853
42
-2.4127222924828713
10
41.943118584846282
20
41.131071791905583
42
-0.41294318553172243
0
LWPOLYLINE
5
226
100
AcDbEntity
8
0
100
AcDbPolyline
90
2
70
1
43
0.0
10
41.252811343830075
20
41.13107229680228
42
-2.4121145545550573
10
41.53873470722182
20
40.844795224323093
42
-0.41493647013853241
0
LWPOLYLINE
5
227
100
AcDbEntity
8
0
100
AcDbPolyline
90
2
70
1
43
0.0
10
41.539089305773203
20
41.653208785810499
42
-2.4176666109980922
10
41.016246239716629
20
41.130719428279434
42
-0.41322828729689276
0
LWPOLYLINE
5
228
100
AcDbEntity
8
0
100
AcDbPolyline
90
2
70
1
43
0.0
10
42.801592039520372
20
40.726336440680853
42
-2.4127222924828713
10
43.205976372018284
20
41.131071791905583
42
-0.41294318553172243
0
LWPOLYLINE
5
229
100
AcDbEntity
8
0
100
AcDbPolyline
90
2
70
1
43
0.0
10
42.515669131271217
20
41.131072514950091
42
-2.4142154765417834
10
42.801240130476998
20
40.844795442470897
42
-0.41493758614813259
0
LWPOLYLINE
5
230
100
AcDbEntity
8
0
100
AcDbPolyline
90
2
70
1
43
0.0
10
42.801594729319049
20
41.653208785810499
42
-2.4176666109980922
10
42.278751663262469
20
41.130719428279434
42
-0.41322828729689276
0
LWPOLYLINE
5
231
100
AcDbEntity
8
0
100
AcDbPolyline
90
2
70
1
43
0.0
10
44.064100152864881
20
40.726336440680853
42
-2.4112364831514066
10
44.468836848988957
20
41.131071791905597
42
-0.41319698047667791
0
LWPOLYLINE
5
232
100
AcDbEntity
8
0
100
AcDbPolyline
90
2
70
1
43
0.0
10
43.778529608051393
20
41.13107236031005
42
-2.4142154765417803
10
44.064100607581963
20
40.844795287505271
42
-0.41493742760025382
0
LWPOLYLINE
5
233
100
AcDbEntity
8
0
100
AcDbPolyline
90
2
70
1
43
0.0
10
44.064455206289715
20
41.653208785810499
42
-2.4165149463098694
10
43.541259776606978
20
41.130719428279434
42
-0.41342509169841707
0
LWPOLYLINE
5
234
100
AcDbEntity
8
0
100
AcDbPolyline
90
2
70
1
43
0.0
10
45.326960629835554
20
40.726336440680853
42
-2.4127222924828713
10
45.731344962333473
20
41.131071791905583
42
-0.41294318553171605
0
LWPOLYLINE
5
235
100
AcDbEntity
8
0
100
AcDbPolyline
90
2
70
1
43
0.0
10
45.041390084321129
20
41.131071791905597
42
-2.4142154765417483
10
45.326960629835554
20
40.844795174239508
42
-0.41493637771097258
0
LWPOLYLINE
5
236
100
AcDbEntity
8
0
100
AcDbPolyline
90
2
70
1
43
0.0
10
45.326963319634224
20
41.653208785810499
42
-2.4176666109980922
10
44.804120253577651
20
41.130719428279434
42
-0.41322828729689276
0
LWPOLYLINE
5
237
100
AcDbEntity
8
0
100
AcDbPolyline
90
2
70
1
43
0.0
10
46.589821106806227
20
40.726336440680853
42
-2.4127222924828713
10
46.994205439304146
20
41.131071791905583
42
-0.41294318553171605
0
LWPOLYLINE
5
238
100
AcDbEntity
8
0
100
AcDbPolyline
90
2
70
1
43
0.0
10
46.303898198287932
20
41.13107229680228
42
-2.4121145545550573
10
46.589821561679685
20
40.844795224323093
42
-0.41493647013854157
0
LWPOLYLINE
5
239
100
AcDbEntity
8
0
100
AcDbPolyline
90
2
70
1
43
0.0
10
46.590176160231067
20
41.653208785810499
42
-2.4176666109980922
10
46.067333094174494
20
41.130719428279434
42
-0.41322828729689776
0
LWPOLYLINE
5
240
100
AcDbEntity
8
0
100
AcDbPolyline
90
2
70
1
43
0.0
10
24.442525860423668
20
56.141198081144132
42
-2.4142139172167614
10
24.038142872825095
20
56.545581404967542
42
-0.41268816114804047
0
LWPOLYLINE
5
241
100
AcDbEntity
8
0
100
AcDbPolyline
90
2
70
1
43
0.0
10
23.752218618785168
20
56.141198081144132
42
-2.4184293285050593
10
24.037789836749258
20
55.855626863180035
42
-0.4142131744222517
0
LWPOLYLINE
5
242
100
AcDbEntity
8
0
100
AcDbPolyline
90
2
70
1
43
0.0
10
24.038142200375425
20
56.664393174602033
42
-2.4153639005660827
10
23.515299806768525
20
56.141198081144132
42
-0.41362231001270094
0
LWPOLYLINE
5
243
100
AcDbEntity
8
0
100
AcDbPolyline
90
2
70
1
43
0.0
10
25.705386337394344
20
56.141198081144132
42
-2.4127265461359206
10
25.300650986169604
20
56.545581404967542
42
-0.41294190958597082
0
LWPOLYLINE
5
244
100
AcDbEntity
8
0
100
AcDbPolyline
90
2
70
1
43
0.0
10
25.015079095755837
20
56.141198081144132
42
-2.4184253066274541
10
25.3006509861696
20
55.855626863180049
42
-0.41421386411330152
0
LWPOLYLINE
5
245
100
AcDbEntity
8
0
100
AcDbPolyline
90
2
70
1
43
0.0
10
25.301003559936234
20
56.664393174601898
42
-2.4142119167967322
10
24.777808325616604
20
56.141198276506984
42
-0.41381917703956811
0
LWPOLYLINE
5
246
100
AcDbEntity
8
0
100
AcDbPolyline
90
2
70
1
43
0.0
10
26.967893105839515
20
56.141198081144132
42
-2.4142139172167614
10
26.563510118240941
20
56.545581404967542
42
-0.41268816114804363
0
LWPOLYLINE
5
247
100
AcDbEntity
8
0
100
AcDbPolyline
90
2
70
1
43
0.0
10
26.277939572726513
20
56.141198081144132
42
-2.4184253066274541
10
26.563511463140273
20
55.855626863180049
42
-0.41421502796641224
0
LWPOLYLINE
5
248
100
AcDbEntity
8
0
100
AcDbPolyline
90
2
70
1
43
0.0
10
26.563511463140273
20
56.664393174602033
42
-2.4153617061583619
10
26.040668397083703
20
56.141198081144132
42
-0.41362268554501963
0
LWPOLYLINE
5
249
100
AcDbEntity
8
0
100
AcDbPolyline
90
2
70
1
43
0.0
10
28.230753582810184
20
56.141198081144132
42
-2.4142139172167614
10
27.82637059521161
20
56.545581404967542
42
-0.41268816114804363
0
LWPOLYLINE
5
250
100
AcDbEntity
8
0
100
AcDbPolyline
90
2
70
1
43
0.0
10
27.540798704797851
20
56.141198081144132
42
-2.4184253066274541
10
27.82637059521161
20
55.855626863180049
42
-0.4142136485845333
0
LWPOLYLINE
5
251
100
AcDbEntity
8
0
100
AcDbPolyline
90
2
70
1
43
0.0
10
27.826370595211607
20
56.664393174602033
42
-2.4153617061583619
10
27.303527529155037
20
56.141198081144132
42
-0.41362268554501963
0
LWPOLYLINE
5
252
100
AcDbEntity
8
0
100
AcDbPolyline
90
2
70
1
43
0.0
10
29.49361405978086
20
56.141198081144132
42
-2.4142139172167614
10
29.089231072182287
20
56.545581404967542
42
-0.41268816114804047
0
LWPOLYLINE
5
253
100
AcDbEntity
8
0
100
AcDbPolyline
90
2
70
1
43
0.0
10
28.80330681814236
20
56.141198081144132
42
-2.4184253066274541
10
29.08887870855612
20
55.855626863180049
42
-0.41421386411330152
0
LWPOLYLINE
5
254
100
AcDbEntity
8
0
100
AcDbPolyline
90
2
70
1
43
0.0
10
29.089231072182283
20
56.664393174602033
42
-2.4153617061583619
10
28.566388006125713
20
56.141198081144132
42
-0.41362268554501963
0
LWPOLYLINE
5
255
100
AcDbEntity
8
0
100
AcDbPolyline
90
2
70
1
43
0.0
10
30.756122173125373
20
56.141198081144132
42
-2.4142139172167614
10
30.3517391855268
20
56.545581404967542
42
-0.41294124602050308
0
LWPOLYLINE
5
256
100
AcDbEntity
8
0
100
AcDbPolyline
90
2
70
1
43
0.0
10
30.066167295113036
20
56.141198081144132
42
-2.4184253066274541
10
30.351739185526796
20
55.855626863180049
42
-0.41421364858452875
0
LWPOLYLINE
5
257
100
AcDbEntity
8
0
100
AcDbPolyline
90
2
70
1
43
0.0
10
30.352091549152952
20
56.664393174602033
42
-2.4142119167967517
10
29.828896119470222
20
56.14119808114414
42
-0.41381954451139114
0
LWPOLYLINE
5
258
100
AcDbEntity
8
0
100
AcDbPolyline
90
2
70
1
43
0.0
10
32.019335013722213
20
56.141198081144132
42
-2.4127265461359206
10
31.614599662497472
20
56.545581404967542
42
-0.41294190958596755
0
LWPOLYLINE
5
259
100
AcDbEntity
8
0
100
AcDbPolyline
90
2
70
1
43
0.0
10
31.329027772083712
20
56.141198081144132
42
-2.4184253066274541
10
31.614599662497472
20
55.855626863180049
42
-0.41421386411330607
0
LWPOLYLINE
5
260
100
AcDbEntity
8
0
100
AcDbPolyline
90
2
70
1
43
0.0
10
31.614599872689823
20
56.664393174743466
42
-2.415361706158345
10
31.091756883430314
20
56.14119815813433
42
-0.41362275992454234
0
LWPOLYLINE
5
261
100
AcDbEntity
8
0
100
AcDbPolyline
90
2
70
1
43
0.0
10
33.281841782167383
20
56.141198081144132
42
-2.4142139172167614
10
32.87745879456881
20
56.545581404967542
42
-0.41268816114804047
0
LWPOLYLINE
5
262
100
AcDbEntity
8
0
100
AcDbPolyline
90
2
70
1
43
0.0
10
32.591534540528883
20
56.141198081144132
42
-2.4163181147906676
10
32.877458794568803
20
55.855626863180035
42
-0.41421364874389477
0
LWPOLYLINE
5
263
100
AcDbEntity
8
0
100
AcDbPolyline
90
2
70
1
43
0.0
10
32.877811158194966
20
56.664393174602033
42
-2.4153617061583619
10
32.354968092138392
20
56.141198081144132
42
-0.41362268554501963
0
LWPOLYLINE
5
264
100
AcDbEntity
8
0
100
AcDbPolyline
90
2
70
1
43
0.0
10
34.544702259138049
20
56.141198081144132
42
-2.4142139172167614
10
34.140319271539482
20
56.545581404967542
42
-0.41268816114804047
0
LWPOLYLINE
5
265
100
AcDbEntity
8
0
100
AcDbPolyline
90
2
70
1
43
0.0
10
33.854395017499556
20
56.141198081144132
42
-2.4184253066274541
10
34.139966907913319
20
55.855626863180049
42
-0.41421386411330607
0
LWPOLYLINE
5
266
100
AcDbEntity
8
0
100
AcDbPolyline
90
2
70
1
43
0.0
10
34.140319271539475
20
56.664393174602033
42
-2.4153617061583619
10
33.617476205482902
20
56.141198081144132
42
-0.41362268554501963
0
LWPOLYLINE
5
267
100
AcDbEntity
8
0
100
AcDbPolyline
90
2
70
1
43
0.0
10
35.807562736108729
20
56.141198081144132
42
-2.4127265461359206
10
35.402827384883992
20
56.545581404967542
42
-0.41294190958597082
0
LWPOLYLINE
5
268
100
AcDbEntity
8
0
100
AcDbPolyline
90
2
70
1
43
0.0
10
35.117255494470228
20
56.141198081144132
42
-2.4184253066274541
10
35.402827384883992
20
55.855626863180049
42
-0.41421386411330152
0
LWPOLYLINE
5
269
100
AcDbEntity
8
0
100
AcDbPolyline
90
2
70
1
43
0.0
10
35.403179958650618
20
56.664393174601898
42
-2.4142119167967322
10
34.879984724330988
20
56.141198276506984
42
-0.41381955262355319
0
LWPOLYLINE
5
270
100
AcDbEntity
8
0
100
AcDbPolyline
90
2
70
1
43
0.0
10
38.355494702592317
20
56.141198081144132
42
-2.4142082397173397
10
37.951110370094405
20
56.545581404967542
42
-0.41268912914912165
0
LWPOLYLINE
5
271
100
AcDbEntity
8
0
100
AcDbPolyline
90
2
70
1
43
0.0
10
37.665187460953817
20
56.141198081144132
42
-2.4163261564746263
10
37.951110370094405
20
55.855626863180035
42
-0.414212269361178
0
LWPOLYLINE
5
272
100
AcDbEntity
8
0
100
AcDbPolyline
90
2
70
1
43
0.0
10
37.951465423519238
20
56.664393174602033
42
-2.4153617061583619
10
37.428622357462672
20
56.141198081144132
42
-0.41362268554501963
0
LWPOLYLINE
5
273
100
AcDbEntity
8
0
100
AcDbPolyline
90
2
70
1
43
0.0
10
39.61835517956299
20
56.141198081144132
42
-2.4127208696617699
10
39.213618483438914
20
56.54558140496755
42
-0.41294287859995654
0
LWPOLYLINE
5
274
100
AcDbEntity
8
0
100
AcDbPolyline
90
2
70
1
43
0.0
10
38.928047937924489
20
56.141198081144132
42
-2.4184333503846869
10
39.213618483438914
20
55.855626863180049
42
-0.41421248473315958
0
LWPOLYLINE
5
275
100
AcDbEntity
8
0
100
AcDbPolyline
90
2
70
1
43
0.0
10
39.213972402104879
20
56.664393174604164
42
-2.414211916796714
10
38.690777168956416
20
56.141198277680402
42
-0.41381880029339624
0
LWPOLYLINE
5
276
100
AcDbEntity
8
0
100
AcDbPolyline
90
2
70
1
43
0.0
10
40.881215656533669
20
56.141198081144132
42
-2.4127208696617894
10
40.476478960409594
20
56.54558140496755
42
-0.41294287859995654
0
LWPOLYLINE
5
277
100
AcDbEntity
8
0
100
AcDbPolyline
90
2
70
1
43
0.0
10
40.190556051268999
20
56.141198081144132
42
-2.4163261564746263
10
40.47647896040958
20
55.855626863180035
42
-0.41421248497221175
0
LWPOLYLINE
5
278
100
AcDbEntity
8
0
100
AcDbPolyline
90
2
70
1
43
0.0
10
40.47683401383442
20
56.664393174602033
42
-2.4153617061583619
10
39.953990947777854
20
56.141198081144132
42
-0.41362268554501963
0
LWPOLYLINE
5
279
100
AcDbEntity
8
0
100
AcDbPolyline
90
2
70
1
43
0.0
10
42.143721080079501
20
56.141198081144132
42
-2.4142082397173201
10
41.739336747581589
20
56.545581404967542
42
-0.41268912914912481
0
LWPOLYLINE
5
280
100
AcDbEntity
8
0
100
AcDbPolyline
90
2
70
1
43
0.0
10
41.453416528239671
20
56.141198081144132
42
-2.4163261564746263
10
41.739339437380266
20
55.855626863180035
42
-0.41421502812359845
0
LWPOLYLINE
5
281
100
AcDbEntity
8
0
100
AcDbPolyline
90
2
70
1
43
0.0
10
41.739694490805093
20
56.664393174602033
42
-2.4153617061583619
10
41.216851424748526
20
56.141198081144132
42
-0.41362268554501963
0
LWPOLYLINE
5
282
100
AcDbEntity
8
0
100
AcDbPolyline
90
2
70
1
43
0.0
10
43.406581557050174
20
56.141198081144132
42
-2.4142082397173201
10
43.002197224552255
20
56.545581404967542
42
-0.41268912914912481
0
LWPOLYLINE
5
283
100
AcDbEntity
8
0
100
AcDbPolyline
90
2
70
1
43
0.0
10
42.716274315411681
20
56.141198081144132
42
-2.4163261564746263
10
43.002197224552262
20
55.855626863180035
42
-0.41421226936118255
0
LWPOLYLINE
5
284
100
AcDbEntity
8
0
100
AcDbPolyline
90
2
70
1
43
0.0
10
43.002552277977095
20
56.664393174602033
42
-2.4153617061583619
10
42.479709211920529
20
56.141198081144132
42
-0.41362268554501963
0
LWPOLYLINE
5
285
100
AcDbEntity
8
0
100
AcDbPolyline
90
2
70
1
43
0.0
10
44.669442034020854
20
56.141198081144132
42
-2.4127208696617894
10
44.264705337896771
20
56.54558140496755
42
-0.41294287859995016
0
LWPOLYLINE
5
286
100
AcDbEntity
8
0
100
AcDbPolyline
90
2
70
1
43
0.0
10
43.979134792382347
20
56.141198081144132
42
-2.4184333503846593
10
44.264705337896771
20
55.855626863180049
42
-0.41421248473316413
0
LWPOLYLINE
5
287
100
AcDbEntity
8
0
100
AcDbPolyline
90
2
70
1
43
0.0
10
44.265059256562729
20
56.664393174604164
42
-2.4142119167967278
10
43.741864023414266
20
56.141198277680402
42
-0.41381880029339374
0
LWPOLYLINE
5
288
100
AcDbEntity
8
0
100
AcDbPolyline
90
2
70
1
43
0.0
10
45.932302510991519
20
56.141198081144132
42
-2.4127208696617894
10
45.527565814867444
20
56.54558140496755
42
-0.41294287859995654
0
LWPOLYLINE
5
289
100
AcDbEntity
8
0
100
AcDbPolyline
90
2
70
1
43
0.0
10
45.241995269353026
20
56.141198081144132
42
-2.4184333503846593
10
45.527565814867458
20
55.855626863180049
42
-0.41421248473317324
0
LWPOLYLINE
5
290
100
AcDbEntity
8
0
100
AcDbPolyline
90
2
70
1
43
0.0
10
45.527919733533402
20
56.664393174604164
42
-2.4142119167967278
10
45.004724500384938
20
56.141198277680402
42
-0.41381880029339374
0
LWPOLYLINE
5
291
100
AcDbEntity
8
0
100
AcDbPolyline
90
2
70
1
43
0.0
10
47.194810624336029
20
56.141198081144132
42
-2.4142082397173201
10
46.790426291838116
20
56.545581404967542
42
-0.41268912914911848
0
LWPOLYLINE
5
292
100
AcDbEntity
8
0
100
AcDbPolyline
90
2
70
1
43
0.0
10
46.504855746323692
20
56.141198081144132
42
-2.4184333503846593
10
46.790426291838116
20
55.855626863180049
42
-0.41421226920180554
0
LWPOLYLINE
5
293
100
AcDbEntity
8
0
100
AcDbPolyline
90
2
70
1
43
0.0
10
46.790428981636794
20
56.664393174602033
42
-2.4153617061583619
10
46.267585915580227
20
56.141198081144132
42
-0.41362268554501963
0
LWPOLYLINE
5
294
100
AcDbEntity
8
0
100
AcDbPolyline
90
4
70
1
43
0.0
10
15.930735123333656
20
61.184530246027748
10
16.763475442215626
20
61.184530246027748
10
16.763475442215626
20
60.486819333541824
10
15.930735123333656
20
60.486819333541824
0
LWPOLYLINE
5
295
100
AcDbEntity
8
0
100
AcDbPolyline
90
4
70
1
43
0.0
10
19.002919442266052
20
61.184530246027748
10
19.814153643970513
20
61.184530246027748
10
19.814153643970513
20
60.486819333541824
10
19.002919106041215
20
60.486819333541824
0
LWPOLYLINE
5
296
100
AcDbEntity
8
0
100
AcDbPolyline
90
4
70
1
43
0.0
10
15.930735123333656
20
58.333046766125598
10
16.763475442215626
20
58.333046766125598
10
16.763475442215626
20
57.635335853639674
10
15.930735123333656
20
57.635335853639674
0
LWPOLYLINE
5
297
100
AcDbEntity
8
0
100
AcDbPolyline
90
4
70
1
43
0.0
10
19.002919442266052
20
58.333046766125598
10
19.814153643970513
20
58.333046766125598
10
19.814153643970513
20
57.635335853639674
10
19.002919106041215
20
57.635335853639674
0
LWPOLYLINE
5
298
100
AcDbEntity
8
0
100
AcDbPolyline
90
4
70
1
43
0.0
10
15.628241037018423
20
60.821748777436405
10
20.147673213079397
20
60.821748777436405
10
20.147673213079397
20
57.996001879630924
10
15.628241037018423
20
57.996001879630924
0
LWPOLYLINE
5
299
100
AcDbEntity
8
0
100
AcDbPolyline
90
57
70
1
43
0.0
10
18.790679869298959
20
59.409051636431052
10
18.786449152211173
20
59.309982989056344
10
18.768821220382872
20
59.211972105009792
10
18.743437254080995
20
59.114313752701825
10
18.70395067333661
20
59.021943880809779
10
18.659175948401117
20
58.933804557893119
10
18.602061772053268
20
58.852011142495712
10
18.534370634873532
20
58.779031861124871
10
18.461391353502698
20
58.711693423796135
10
18.381713464761596
20
58.652463720791978
10
18.294279205322091
20
58.601342752112387
10
18.203319292271956
20
58.561503807741843
10
18.110949252267503
20
58.534004314783658
10
18.011880604892795
20
58.513908492672883
10
17.912811957518084
20
58.505094694871147
10
17.814801073471529
20
58.508267648630778
10
17.715027362619665
20
58.522017226997455
10
17.61666377872211
20
58.547048829673173
10
17.5235886752405
20
58.581246930001612
10
17.436154415800992
20
58.626021654937105
10
17.350482983166799
20
58.679962877525327
10
17.275035811513487
20
58.744480724720596
10
17.206992310707594
20
58.815344815659962
10
17.14529471742096
20
58.894670340774901
10
17.094173748741369
20
58.979284010080931
10
17.050456787134035
20
59.068833459951911
10
17.016963750282748
20
59.163318858500261
10
16.995457801217661
20
59.258861852264346
10
16.984176113133454
20
59.358635563116209
10
16.984176113133454
20
59.459819569034813
10
16.995457801217661
20
59.558535684670943
10
17.016963750282748
20
59.654783910024598
10
17.050456787134035
20
59.747859013506208
10
17.094173748741369
20
59.838113694966772
10
17.14529471742096
20
59.922727364272809
10
17.206992310707591
20
60.001700189536749
10
17.275035811513487
20
60.072211580625122
10
17.350482983166799
20
60.137434659409962
10
17.436154415800992
20
60.191023350259599
10
17.5235886752405
20
60.23650330678467
10
17.61666377872211
20
60.26964364378496
10
17.715027362619661
20
60.295732841676411
10
17.814801073471529
20
60.310892883222245
10
17.912811957518088
20
60.312303178288985
10
18.011880604892795
20
60.304194443964398
10
18.110949252267503
20
60.28409862185363
10
18.203319292271956
20
60.257304192372601
10
18.294279205322091
20
60.216760184524894
10
18.381713464761596
20
60.165639383957725
10
18.461391353502695
20
60.105704617476405
10
18.534370634873532
20
60.039071243624832
10
18.602061772053268
20
59.966091962253991
10
18.659175948401121
20
59.883593483379428
10
18.70395067333661
20
59.795806692201339
10
18.743437254080995
20
59.702379056981144
10
18.768821220382872
20
59.607188594955645
10
18.786449152211173
20
59.508119947580937
0
LWPOLYLINE
5
300
100
AcDbEntity
8
0
100
AcDbPolyline
90
4
70
1
43
0.0
10
40.297026352142126
20
48.271766402660248
10
45.362923238093487
20
48.271766402660248
10
45.362923238093487
20
43.205870861608219
10
40.297026352142126
20
43.205870861608219
0
LWPOLYLINE
5
301
100
AcDbEntity
8
0
100
AcDbPolyline
90
2
70
1
43
0.0
10
41.143516753728022
20
48.271061675407921
10
40.661572076494323
20
48.271061675407921
42
-0.96241450726429334
0
LWPOLYLINE
5
302
100
AcDbEntity
8
0
100
AcDbPolyline
90
2
70
1
43
0.0
10
41.786228007847896
20
48.271061675407921
10
41.303928277189364
20
48.271061675407921
42
-0.99764122042087588
0
LWPOLYLINE
5
303
100
AcDbEntity
8
0
100
AcDbPolyline
90
2
70
1
43
0.0
10
42.428589588140269
20
48.271061675407921
10
41.946289857481744
20
48.271061675407921
42
-0.99764122042087588
0
LWPOLYLINE
5
304
100
AcDbEntity
8
0
100
AcDbPolyline
90
2
70
1
43
0.0
10
43.07094847863398
20
48.271061675407921
10
42.588651437774125
20
48.271061675407921
42
-0.9976412072814258
0
LWPOLYLINE
5
305
100
AcDbEntity
8
0
100
AcDbPolyline
90
2
70
1
43
0.0
10
43.713307369127691
20
48.271061675407921
10
43.231362691893992
20
48.271061675407921
42
-0.96241450726429334
0
LWPOLYLINE
5
306
100
AcDbEntity
8
0
100
AcDbPolyline
90
2
70
1
43
0.0
10
44.355666259621401
20
48.271061675407921
10
43.873721582387702
20
48.271061675407921
42
-0.96241450726429334
0
LWPOLYLINE
5
307
100
AcDbEntity
8
0
100
AcDbPolyline
90
2
70
1
43
0.0
10
44.998377513741289
20
48.271061675407921
10
44.516080472881427
20
48.271061675407921
42
-0.9976412072814258
0
LWPOLYLINE
5
308
100
AcDbEntity
8
0
100
AcDbPolyline
90
2
70
1
43
0.0
10
45.36221851084116
20
47.424923637448188
10
45.36221851084116
20
47.907222023207382
42
-0.99999999999999989
0
LWPOLYLINE
5
309
100
AcDbEntity
8
0
100
AcDbPolyline
90
2
70
1
43
0.0
10
45.36221851084116
20
46.782564746954478
10
45.36221851084116
20
47.264863132713671
42
-0.99999999999999989
0
LWPOLYLINE
5
310
100
AcDbEntity
8
0
100
AcDbPolyline
90
2
70
1
43
0.0
10
45.36221851084116
20
46.140205856460767
10
45.36221851084116
20
46.622504242219961
42
-0.99999999999999989
0
LWPOLYLINE
5
311
100
AcDbEntity
8
0
100
AcDbPolyline
90
2
70
1
43
0.0
10
45.36221851084116
20
45.497845621067718
10
45.36221851084116
20
45.979791643200741
42
-0.96248471468769359
0
LWPOLYLINE
5
312
100
AcDbEntity
8
0
100
AcDbPolyline
90
2
70
1
43
0.0
10
45.36221851084116
20
44.855486730574007
10
45.36221851084116
20
45.337080389080874
42
-0.96245778145129901
0
LWPOLYLINE
5
313
100
AcDbEntity
8
0
100
AcDbPolyline
90
2
70
1
43
0.0
10
45.36221851084116
20
44.212774131554795
10
45.36221851084116
20
44.695426225839483
42
-0.99999999999999989
0
LWPOLYLINE
5
314
100
AcDbEntity
8
0
100
AcDbPolyline
90
2
70
1
43
0.0
10
45.36221851084116
20
43.570767604687248
10
45.36221851084116
20
44.052713626820278
42
-0.99999999999999989
0
LWPOLYLINE
5
315
100
AcDbEntity
8
0
100
AcDbPolyline
90
2
70
1
43
0.0
10
40.297378715768282
20
44.052713626820285
10
40.297378715768282
20
43.570415241061085
42
-0.99999999999999989
0
LWPOLYLINE
5
316
100
AcDbEntity
8
0
100
AcDbPolyline
90
2
70
1
43
0.0
10
40.297378715768282
20
44.695426225839498
10
40.297378715768282
20
44.212775476454134
42
-0.99999999999999989
0
LWPOLYLINE
5
317
100
AcDbEntity
8
0
100
AcDbPolyline
90
2
70
1
43
0.0
10
40.297378715768282
20
45.337432752707045
10
40.297378715768282
20
44.855486730574015
42
-0.96248471468772867
0
LWPOLYLINE
5
318
100
AcDbEntity
8
0
100
AcDbPolyline
90
2
70
1
43
0.0
10
40.297378715768282
20
45.979791643200755
10
40.297378715768282
20
45.497845621067725
42
-0.96248471468772867
0
LWPOLYLINE
5
319
100
AcDbEntity
8
0
100
AcDbPolyline
90
2
70
1
43
0.0
10
40.297378715768282
20
46.622504242219961
10
40.297378715768282
20
46.140205856460767
42
-0.99999999999999989
0
LWPOLYLINE
5
320
100
AcDbEntity
8
0
100
AcDbPolyline
90
2
70
1
43
0.0
10
40.297378715768282
20
47.264863132713671
10
40.297378715768282
20
46.782564746954478
42
-0.99999999999999989
0
LWPOLYLINE
5
321
100
AcDbEntity
8
0
100
AcDbPolyline
90
2
70
1
43
0.0
10
40.297378715768282
20
47.907222023207382
10
40.297378715768282
20
47.424923637448188
42
-0.99999999999999989
0
LWPOLYLINE
5
322
100
AcDbEntity
8
0
100
AcDbPolyline
90
2
70
1
43
0.0
10
44.516080472881427
20
43.206575588860545
10
44.998377513741289
20
43.206575588860545
42
-0.9976412072814258
0
LWPOLYLINE
5
323
100
AcDbEntity
8
0
100
AcDbPolyline
90
2
70
1
43
0.0
10
43.873721582387716
20
43.206575588860545
10
44.355666259621415
20
43.206575588860545
42
-0.96241450726429334
0
LWPOLYLINE
5
324
100
AcDbEntity
8
0
100
AcDbPolyline
90
2
70
1
43
0.0
10
43.231362691894006
20
43.206575588860545
10
43.713307369127705
20
43.206575588860545
42
-0.96241450726429334
0
LWPOLYLINE
5
325
100
AcDbEntity
8
0
100
AcDbPolyline
90
2
70
1
43
0.0
10
42.588648747975455
20
43.206575588860545
10
43.07094847863398
20
43.206575588860545
42
-0.99764122042087588
0
LWPOLYLINE
5
326
100
AcDbEntity
8
0
100
AcDbPolyline
90
2
70
1
43
0.0
10
41.946289857481744
20
43.206575588860545
10
42.428586898341607
20
43.206575588860545
42
-0.9976412072814258
0
LWPOLYLINE
5
327
100
AcDbEntity
8
0
100
AcDbPolyline
90
2
70
1
43
0.0
10
41.303930966988034
20
43.206575588860545
10
41.786230697646559
20
43.206575588860545
42
-0.99764122042087588
0
LWPOLYLINE
5
328
100
AcDbEntity
8
0
100
AcDbPolyline
90
2
70
1
43
0.0
10
40.661572076494323
20
43.206575588860545
10
41.143516753728022
20
43.206575588860545
42
-0.96241450726429334
0
LWPOLYLINE
5
329
100
AcDbEntity
8
0
100
AcDbPolyline
90
4
70
1
43
0.0
10
29.510184564505842
20
53.688104381172295
10
34.576080105557871
20
53.688104381172295
10
34.576080105557864
20
48.6222081676706
10
29.510184564505838
20
48.6222081676706
0
LWPOLYLINE
5
330
100
AcDbEntity
8
0
100
AcDbPolyline
90
2
70
1
43
0.0
10
30.357027329717901
20
53.687399653919968
10
29.874728943958708
20
53.687399653919968
42
-0.99999999999999989
0
LWPOLYLINE
5
331
100
AcDbEntity
8
0
100
AcDbPolyline
90
2
70
1
43
0.0
10
30.999386220211612
20
53.687399653919968
10
30.517087834452418
20
53.687399653919968
42
-0.99999999999999989
0
LWPOLYLINE
5
332
100
AcDbEntity
8
0
100
AcDbPolyline
90
2
70
1
43
0.0
10
31.641745110705322
20
53.687399653919968
10
31.159446724946129
20
53.687399653919968
42
-0.99999999999999989
0
LWPOLYLINE
5
333
100
AcDbEntity
8
0
100
AcDbPolyline
90
2
70
1
43
0.0
10
32.284105346098372
20
53.687399653919968
10
31.802159323965338
20
53.687399653919968
42
-0.96248471468769425
0
LWPOLYLINE
5
334
100
AcDbEntity
8
0
100
AcDbPolyline
90
2
70
1
43
0.0
10
32.926464236592082
20
53.687399653919968
10
32.444871922984547
20
53.687399653919968
42
-0.96245767850318553
0
LWPOLYLINE
5
335
100
AcDbEntity
8
0
100
AcDbPolyline
90
2
70
1
43
0.0
10
33.569176835611287
20
53.687399653919968
10
33.08652608622593
20
53.687399653919968
42
-0.99999999999999989
0
LWPOLYLINE
5
336
100
AcDbEntity
8
0
100
AcDbPolyline
90
2
70
1
43
0.0
10
34.211183362478842
20
53.687399653919968
10
33.729237340345804
20
53.687399653919968
42
-0.99999999999999989
0
LWPOLYLINE
5
337
100
AcDbEntity
8
0
100
AcDbPolyline
90
2
70
1
43
0.0
10
34.575375378305544
20
52.841261615960242
10
34.575375378305544
20
53.323560001719443
42
-0.99999999999999989
0
LWPOLYLINE
5
338
100
AcDbEntity
8
0
100
AcDbPolyline
90
2
70
1
43
0.0
10
34.575375378305544
20
52.198902725466525
10
34.575375378305544
20
52.681201111225718
42
-0.99999999999999989
0
LWPOLYLINE
5
339
100
AcDbEntity
8
0
100
AcDbPolyline
90
2
70
1
43
0.0
10
34.575375378305544
20
51.556190798896978
10
34.575375378305544
20
52.039193911908505
42
-0.99999999999999989
0
LWPOLYLINE
5
340
100
AcDbEntity
8
0
100
AcDbPolyline
90
2
70
1
43
0.0
10
34.575375378305544
20
50.914183599579772
10
34.575375378305544
20
51.396129621712802
42
-0.96248471468771113
0
LWPOLYLINE
5
341
100
AcDbEntity
8
0
100
AcDbPolyline
90
2
70
1
43
0.0
10
34.575375378305544
20
50.271824036636389
10
34.575375378305544
20
50.753770058769419
42
-0.96248471468771113
0
LWPOLYLINE
5
342
100
AcDbEntity
8
0
100
AcDbPolyline
90
2
70
1
43
0.0
10
34.575375378305544
20
49.629112782516515
10
34.575375378305544
20
50.111411168275708
42
-0.99999999999999989
0
LWPOLYLINE
5
343
100
AcDbEntity
8
0
100
AcDbPolyline
90
2
70
1
43
0.0
10
34.575375378305544
20
48.986752547123473
10
34.575375378305544
20
49.469050932882666
42
-0.99999999999999989
0
LWPOLYLINE
5
344
100
AcDbEntity
8
0
100
AcDbPolyline
90
2
70
1
43
0.0
10
29.510889291758168
20
49.469050932882659
10
29.510889291758168
20
48.986752547123459
42
-0.99999999999999989
0
LWPOLYLINE
5
345
100
AcDbEntity
8
0
100
AcDbPolyline
90
2
70
1
43
0.0
10
29.510889291758168
20
50.111411168275708
10
29.510889291758168
20
49.629112782516515
42
-0.99999999999999989
0
LWPOLYLINE
5
346
100
AcDbEntity
8
0
100
AcDbPolyline
90
2
70
1
43
0.0
10
29.510889291758168
20
50.753770058769419
10
29.510889291758168
20
50.271824036636389
42
-0.96248471468771113
0
LWPOLYLINE
5
347
100
AcDbEntity
8
0
100
AcDbPolyline
90
2
70
1
43
0.0
10
29.510889291758168
20
51.396129621712802
10
29.510889291758168
20
50.914183599579772
42
-0.96248471468771113
0
LWPOLYLINE
5
348
100
AcDbEntity
8
0
100
AcDbPolyline
90
2
70
1
43
0.0
10
29.510889291758168
20
52.038841548282342
10
29.510889291758168
20
51.556543162523141
42
-0.99999999999999989
0
LWPOLYLINE
5
349
100
AcDbEntity
8
0
100
AcDbPolyline
90
2
70
1
43
0.0
10
29.510889291758168
20
52.680848075149889
10
29.510889291758168
20
52.198902053016866
42
-0.99999999999999989
0
LWPOLYLINE
5
350
100
AcDbEntity
8
0
100
AcDbPolyline
90
2
70
1
43
0.0
10
29.510889291758168
20
53.323560001719429
10
29.510889291758168
20
52.841261615960235
42
-0.99999999999999989
0
LWPOLYLINE
5
351
100
AcDbEntity
8
0
100
AcDbPolyline
90
2
70
1
43
0.0
10
33.729237340345804
20
48.622914239822265
10
34.211535726105005
20
48.622914239822265
42
-0.99999999999999989
0
LWPOLYLINE
5
352
100
AcDbEntity
8
0
100
AcDbPolyline
90
2
70
1
43
0.0
10
33.086878449852094
20
48.622914239822265
10
33.569176835611295
20
48.622914239822265
42
-0.99999999999999989
0
LWPOLYLINE
5
353
100
AcDbEntity
8
0
100
AcDbPolyline
90
2
70
1
43
0.0
10
32.444518214459052
20
48.622914239822265
10
32.926464236592082
20
48.622914239822265
42
-0.96248471468769425
0
LWPOLYLINE
5
354
100
AcDbEntity
8
0
100
AcDbPolyline
90
2
70
1
43
0.0
10
31.802159323965338
20
48.622914239822265
10
32.284105346098372
20
48.622914239822265
42
-0.96248471468769425
0
LWPOLYLINE
5
355
100
AcDbEntity
8
0
100
AcDbPolyline
90
2
70
1
43
0.0
10
31.159446724946129
20
48.622914239822265
10
31.641745110705322
20
48.622914239822265
42
-0.99999999999999989
0
LWPOLYLINE
5
356
100
AcDbEntity
8
0
100
AcDbPolyline
90
2
70
1
43
0.0
10
30.517087834452418
20
48.622914239822265
10
30.999386220211612
20
48.622914239822265
42
-0.99999999999999989
0
LWPOLYLINE
5
357
100
AcDbEntity
8
0
100
AcDbPolyline
90
2
70
1
43
0.0
10
29.874728943958708
20
48.622914239822265
10
30.357027329717901
20
48.622914239822265
42
-0.99999999999999989
0
ARC
5
358
100
AcDbEntity
8
0
100
AcDbCircle
10
-37.325982616009426
20
45.722421958383961
30
0
40
1.4102291666666735
210
0
220
-0
230
-1
100
AcDbArc
50
270.11279658914765
51
277.80017696314212
0
ARC
5
359
100
AcDbEntity
8
0
100
AcDbCircle
10
-37.410183064484642
20
45.858980443053625
30
0
40
1.5583032560646641
210
0
220
-0
230
-1
100
AcDbArc
50
280.18666684865275
51
326.87588172364167
0
LINE
5
360
100
AcDbEntity
8
0
100
AcDbLine
10
36.105121595957542
20
45.007438546710517
30
0
11
36.097013197857805
21
45.018719562345069
31
0
0
ARC
5
361
100
AcDbEntity
8
0
100
AcDbCircle
10
-34.767691443025313
20
45.88469341371276
30
0
40
1.5865078124999958
210
0
220
-0
230
-1
100
AcDbArc
50
213.0818447940955
51
259.40348633841171
0
ARC
5
362
100
AcDbEntity
8
0
100
AcDbCircle
10
-34.86804723765281
20
45.722422616298729
30
0
40
1.4102291666666678
210
0
220
-0
230
-1
100
AcDbArc
50
262.20001999255408
51
269.90171464540441
0
ARC
5
363
100
AcDbEntity
8
0
100
AcDbCircle
10
-34.835441947521339
20
45.497681008837532
30
0
40
1.1860027580819967
210
0
220
-0
230
-1
100
AcDbArc
50
-91.692274410478603
51
91.726334932317926
0
ARC
5
364
100
AcDbEntity
8
0
100
AcDbCircle
10
-34.865442824363328
20
45.272927930059637
30
0
40
1.4102291666666704
210
0
220
0
230
-1
100
AcDbArc
50
90.232732028863197
51
97.906795782602643
0
ARC
5
365
100
AcDbEntity
8
0
100
AcDbCircle
10
-34.789740128620252
20
45.14928311328034
30
0
40
1.5442009778469712
210
0
220
0
230
-1
100
AcDbArc
50
100.05836550800439
51
145.39160168702435
0
SPLINE
5
366
100
AcDbEntity
8
0
100
AcDbSpline
70
0
71
2
72
6
73
3
74
0
42
0.000000001
43
0.0000000001
44
0.0000000001
40
0
40
0
40
0
40
1
40
1
40
1
10
36.060699570873055
20
46.026334284040651
30
0
10
36.079031893728839
20
46.002007744842089
30
0
10
36.096660834231642
20
45.976271751138889
30
0
0
ARC
5
367
100
AcDbEntity
8
0
100
AcDbCircle
10
-37.421719225879208
20
45.116676705873822
30
0
40
1.5794566733911681
210
0
220
0
230
-1
100
AcDbArc
50
32.972377598872654
51
79.512953533634672
0
ARC
5
368
100
AcDbEntity
8
0
100
AcDbCircle
10
-37.32823120772612
20
45.272927930059637
30
0
40
1.41022916666667
210
0
220
0
230
-1
100
AcDbArc
50
82.093204217397115
51
89.767267971136533
0
ARC
5
369
100
AcDbEntity
8
0
100
AcDbCircle
10
-37.358232084568101
20
45.497681008837532
30
0
40
1.1860027580820054
210
0
220
0
230
-1
100
AcDbArc
50
88.273665067682103
51
271.69233935421005
0
LWPOLYLINE
5
370
100
AcDbEntity
8
0
100
AcDbPolyline
90
8
70
1
43
0.0
10
36.369539564707544
20
45.497848020368139
10
36.447102599242001
20
45.357531982792736
42
0.029573112807860184
10
36.491524624326502
20
45.287021600378878
42
0.19996096518392353
10
37.201222624598607
20
44.797316853973584
42
0.028921165943538947
10
37.323207684217564
20
44.789209800773186
42
1.0607986580058331
10
37.322502956965231
20
46.206136566135605
42
0.037099504720968124
10
37.202633424002599
20
46.197674459510367
42
0.20689697320531331
10
36.466493357875613
20
45.673421938949154
0
LWPOLYLINE
5
371
100
AcDbEntity
8
0
100
AcDbPolyline
90
8
70
1
43
0.0
10
34.87046634787189
20
44.789204421175839
42
-1.056125902175554
10
34.871171075124209
20
46.206486239963091
42
-0.035654231658798191
10
34.99139431661235
20
46.19766907991302
42
-0.20173655741127197
10
35.680644467372368
20
45.738289123747073
42
-0.034670595145774127
10
35.75961695641147
20
45.6148919198248
10
35.824486831008066
20
45.498197694195625
10
35.727533037839997
20
45.322623775614616
42
-0.20545014594692299
10
34.992451407490833
20
44.79731147437623
42
-0.02892116594353775
0
LWPOLYLINE
5
372
100
AcDbEntity
8
0
100
AcDbPolyline
90
4
70
1
43
0.0
10
34.444223484809029
20
45.634285658755338
10
35.311514099533184
20
45.634285658755338
10
35.311514099533184
20
45.354707984684346
10
34.444223484809029
20
45.354707984684346
0
LWPOLYLINE
5
373
100
AcDbEntity
8
0
100
AcDbPolyline
90
12
70
1
43
0.0
10
37.430384175593481
20
45.354707984684346
10
37.723359736854661
20
45.354707984684346
10
37.723359736854661
20
45.634285658755338
10
37.430384175593481
20
45.634285658755338
10
37.430384175593481
20
45.928318310895008
10
37.150101774270169
20
45.928318310894994
10
37.150101774270169
20
45.634285658755331
10
36.856421485756663
20
45.634285658755338
10
36.856421485756663
20
45.354707984684346
10
37.150101774270162
20
45.354707984684346
10
37.150101774270169
20
45.060675332544676
10
37.430384175593481
20
45.060675332544676
0
LWPOLYLINE
5
374
100
AcDbEntity
8
0
100
AcDbPolyline
90
12
70
1
43
0.0
10
21.267394708767359
20
56.951374855745271
42
-0.093400431891088667
10
21.588221790388047
20
57.011661985852754
42
0.093400431891088695
10
21.267394708767359
20
56.951374855745271
10
21.267395381217025
20
56.790961314934933
10
21.911869798367047
20
56.790961314934933
10
21.9118688650507
20
56.948201618468026
42
0.1027562606066772
10
21.588221790388047
20
57.011661985852754
42
-0.10275626060667718
10
21.911869125917377
20
56.948202238210477
10
21.911869125917384
20
57.943471456446687
10
21.911869125917384
20
58.103884661032197
10
21.267394708767359
20
58.103884661032197
10
21.267394708767359
20
57.94029816646222
0
LWPOLYLINE
5
375
100
AcDbEntity
8
0
100
AcDbPolyline
90
2
70
1
43
0.0
10
21.588221790388054
20
57.880011036354738
42
-0.093400431891089902
10
21.267394708767359
20
57.940298166462227
42
0.09340043189108993
0
LWPOLYLINE
5
376
100
AcDbEntity
8
0
100
AcDbPolyline
90
2
70
1
43
0.0
10
21.911869125917384
20
57.943471456446687
42
-0.10275625826623463
10
21.588221790388054
20
57.880011036354745
42
0.10275625826623463
0
LWPOLYLINE
5
377
100
AcDbEntity
8
0
100
AcDbPolyline
90
12
70
1
43
0.0
10
18.645073670183443
20
42.778572134215082
42
-0.077686900163911887
10
19.237017836676809
20
42.870236437558219
42
0.077694031817500203
10
18.645073670183443
20
42.778572134215082
10
18.645073670183447
20
42.536717541633486
10
19.834602165932282
20
42.536717541633486
10
19.834248699809031
20
42.77398878560259
42
0.083054439621665324
10
19.237017327924391
20
42.869884074666544
42
-0.083072732004394037
10
19.834249129856452
20
42.773990062175635
10
19.834249129856452
20
44.27588353291992
10
19.834249129856452
20
44.518089144228334
10
18.645073670183443
20
44.518089144228334
10
18.645073670183443
20
44.271300115981134
0
LWPOLYLINE
5
378
100
AcDbEntity
8
0
100
AcDbPolyline
90
2
70
1
43
0.0
10
19.237017327924391
20
44.179988175529672
42
-0.077686900163912262
10
18.645073670183443
20
44.271300115981148
42
0.077686900163912304
0
LWPOLYLINE
5
379
100
AcDbEntity
8
0
100
AcDbPolyline
90
2
70
1
43
0.0
10
19.834249129856452
20
44.27588353291992
42
-0.08305443836711783
10
19.237017327924391
20
44.179988175529672
42
0.083054438367117803
0
LWPOLYLINE
5
380
100
AcDbEntity
8
0
100
AcDbPolyline
90
12
70
1
43
0.0
10
22.622272525891489
20
38.357149665413729
42
-0.077641240025658767
10
22.5306070736005
20
38.948741740743536
42
0.077648376990122378
10
22.622272525891489
20
38.357149665413729
10
22.864127118473078
20
38.357149665413729
10
22.864127118473078
20
39.546325797536412
10
22.626853095913283
20
39.546326756595754
42
0.083102865035889095
10
22.530959912990358
20
38.948741295753351
42
-0.083110969290098105
10
22.626855942830272
20
39.546325797536412
10
21.12496179963631
20
39.546325797536412
10
20.883107207054721
20
39.546325797536412
10
20.883107207054721
20
38.356797301787566
10
21.129545216575096
20
38.357149665413729
0
LWPOLYLINE
5
381
100
AcDbEntity
8
0
100
AcDbPolyline
90
2
70
1
43
0.0
10
21.221210193102387
20
38.948741295753358
42
-0.07764830969763363
10
21.129982838704588
20
38.357010475553835
42
0.077643285108036766
0
LWPOLYLINE
5
382
100
AcDbEntity
8
0
100
AcDbPolyline
90
2
70
1
43
0.0
10
21.12496179963631
20
39.546325797536412
42
-0.083110720599512411
10
21.22085717291554
20
38.948743664000069
42
0.08310259405205643
0
LWPOLYLINE
5
383
100
AcDbEntity
8
0
100
AcDbPolyline
90
12
70
1
43
0.0
10
15.62577314673595
20
42.778572134215082
42
-0.077686900163911887
10
16.217717313702849
20
42.870236978200992
42
0.077694042740439506
10
15.62577314673595
20
42.778572134215082
10
15.62577314673595
20
42.536717541633486
10
16.815301474372369
20
42.536717541633486
10
16.815301045020473
20
42.773988787683678
42
0.083102943586316619
10
16.217716804476897
20
42.869884074666544
42
-0.083118603448287462
10
16.815301474372369
20
42.773990062175635
10
16.815301474372369
20
44.275883532919913
10
16.814948774521376
20
44.518089144228334
10
15.62577314673595
20
44.518089144228334
10
15.62577314673595
20
44.271300115981134
0
LWPOLYLINE
5
384
100
AcDbEntity
8
0
100
AcDbPolyline
90
2
70
1
43
0.0
10
16.2177168044769
20
44.179988175529672
42
-0.077686900163912262
10
15.62577314673595
20
44.271300115981148
42
0.077686900163912304
0
LWPOLYLINE
5
385
100
AcDbEntity
8
0
100
AcDbPolyline
90
2
70
1
43
0.0
10
16.815301474372369
20
44.275883532919913
42
-0.083102942347254127
10
16.217716069545794
20
44.179875477171606
42
0.083100412989328604
0
LWPOLYLINE
5
386
100
AcDbEntity
8
0
100
AcDbPolyline
90
12
70
1
43
0.0
10
26.699950155928555
20
42.440822184243238
42
-0.07764122655936459
10
27.291542231309659
20
42.532486487758817
42
0.07764835390489834
10
26.699950155928555
20
42.440822184243238
10
26.699950155928555
20
42.199319955287812
10
27.889126288051234
20
42.199319955287812
10
27.889013368502983
20
42.436257284447095
42
0.083103245170320139
10
27.291541786268176
20
42.532134124694707
42
-0.083095473903206998
10
27.889126288051234
20
42.436592475829961
10
27.889126288051234
20
43.938485946574247
10
27.889126288051237
20
44.180339194256497
10
26.699597792302399
20
44.180339194256497
10
26.699950155928562
20
43.933902529635461
0
LWPOLYLINE
5
387
100
AcDbEntity
8
0
100
AcDbPolyline
90
2
70
1
43
0.0
10
27.291541786268176
20
43.842590589183999
42
-0.077641226559363855
10
26.699922815305698
20
43.933816585056398
42
0.077657391013965044
0
LWPOLYLINE
5
388
100
AcDbEntity
8
0
100
AcDbPolyline
90
2
70
1
43
0.0
10
27.889126288051234
20
43.938485946574247
42
-0.083102919238667861
10
27.291541662081006
20
43.842572084490087
42
0.083118753136728368
0
LWPOLYLINE
5
389
100
AcDbEntity
8
0
100
AcDbPolyline
90
12
70
1
43
0.0
10
27.101866598143999
20
53.833358216661651
42
-0.089275302977742416
10
27.359937986925075
20
53.880248132028619
42
0.08927530297774243
10
27.101866598143999
20
53.833358216661651
10
27.101865253244664
20
53.70855290313407
10
27.620477265988615
20
53.70855290313407
10
27.620475630028043
20
53.830886306410804
42
0.099955231404929873
10
27.359937986925075
20
53.880248132028612
42
-0.099955231404929915
10
27.620477265988615
20
53.830890326379176
10
27.620477265988615
20
54.605105837621728
10
27.620126247261787
20
54.729911823598982
10
27.101866598143999
20
54.729911823598975
10
27.101866598143999
20
54.602990983415083
0
LWPOLYLINE
5
390
100
AcDbEntity
8
0
100
AcDbPolyline
90
2
70
1
43
0.0
10
27.359937986925068
20
54.555748031972293
42
-0.089297208285885846
10
27.101866598144003
20
54.602990983415083
42
0.089297208285885873
0
LWPOLYLINE
5
391
100
AcDbEntity
8
0
100
AcDbPolyline
90
2
70
1
43
0.0
10
27.620477265988615
20
54.605105837621728
42
-0.099954901070689176
10
27.359936763778492
20
54.555641737560954
42
0.099893099357861379
0
LWPOLYLINE
5
392
100
AcDbEntity
8
0
100
AcDbPolyline
90
12
70
1
43
0.0
10
29.487973551963591
20
47.597323593595064
42
-0.089275302977742499
10
29.53498647932313
20
47.339252466942384
42
0.089267758607171441
10
29.487973551963591
20
47.597323593595064
10
29.36316823843601
20
47.596972574868239
10
29.36316823843601
20
47.078712925750452
10
29.485505661681117
20
47.078712925750459
42
0.099954901070685762
10
29.53486346733056
20
47.339252204813988
42
-0.099954901070685775
10
29.485505661681124
20
47.078712925750452
10
30.259721172923673
20
47.078712925750452
10
30.384526486451257
20
47.079063944477269
10
30.384526486451257
20
47.597323593595064
10
30.257605646267361
20
47.597323593595064
0
LWPOLYLINE
5
393
100
AcDbEntity
8
0
100
AcDbPolyline
90
2
70
1
43
0.0
10
30.21036336727423
20
47.339252204813988
42
-0.089297166410107862
10
30.257605646267361
20
47.597323593595064
42
0.089297166410107903
0
LWPOLYLINE
5
394
100
AcDbEntity
8
0
100
AcDbPolyline
90
2
70
1
43
0.0
10
30.259721172923673
20
47.078712925750452
42
-0.099954901070685706
10
30.210257023244758
20
47.339253428532757
42
0.099893197810569517
0
LWPOLYLINE
5
395
100
AcDbEntity
8
0
100
AcDbPolyline
90
12
70
1
43
0.0
10
31.320565665458467
20
47.597323593595064
42
-0.089275302977742499
10
31.367578592818003
20
47.339252466942384
42
0.089267758607172121
10
31.320565665458467
20
47.597323593595064
10
31.195760351930883
20
47.596972574868239
10
31.195760351930883
20
47.078712925750452
10
31.318097775175989
20
47.078712925750459
42
0.099954901070685651
10
31.367455580825432
20
47.339252204813988
42
-0.099954901070685706
10
31.318097775175993
20
47.078712925750452
10
32.092313286418545
20
47.078712925750452
10
32.217118599946126
20
47.079063944477269
10
32.217118599946126
20
47.597323593595064
10
32.090197759762233
20
47.597323593595064
0
LWPOLYLINE
5
396
100
AcDbEntity
8
0
100
AcDbPolyline
90
2
70
1
43
0.0
10
32.042955480769109
20
47.339252204813988
42
-0.08929716641010739
10
32.090197759762241
20
47.597323593595064
42
0.089297166410107334
0
LWPOLYLINE
5
397
100
AcDbEntity
8
0
100
AcDbPolyline
90
2
70
1
43
0.0
10
32.092313286418545
20
47.078712925750452
42
-0.099954901070685775
10
32.042849136739626
20
47.339253428532757
42
0.099893197810569073
0
LWPOLYLINE
5
398
100
AcDbEntity
8
0
100
AcDbPolyline
90
12
70
1
43
0.0
10
33.153159123852674
20
47.597323593595064
42
-0.089275302977742499
10
33.200172051212213
20
47.339252466942384
42
0.089267758607171441
10
33.153159123852674
20
47.597323593595064
10
33.028353810325093
20
47.596972574868239
10
33.028353810325093
20
47.078712925750452
10
33.1506912335702
20
47.078712925750459
42
0.099954901070686331
10
33.200049039219643
20
47.339252204813988
42
-0.099954901070686358
10
33.150691233570207
20
47.078712925750452
10
33.925259108438915
20
47.078712925750452
10
34.049712058340333
20
47.079063944477269
10
34.04971205834034
20
47.597323593595064
10
33.922791218156448
20
47.597323593595064
0
LWPOLYLINE
5
399
100
AcDbEntity
8
0
100
AcDbPolyline
90
2
70
1
43
0.0
10
33.87590130278948
20
47.339252204813988
42
-0.089275302977742499
10
33.922791218156448
20
47.597323593595064
42
0.089275302977742541
0
LWPOLYLINE
5
400
100
AcDbEntity
8
0
100
AcDbPolyline
90
2
70
1
43
0.0
10
33.925259108438915
20
47.078712925750452
42
-0.099954901070685775
10
33.87576894566493
20
47.339253728671061
42
0.099944812530223706
0
LWPOLYLINE
5
401
100
AcDbEntity
8
0
100
AcDbPolyline
90
12
70
1
43
0.0
10
38.164053661639322
20
43.789352748948772
42
-0.089297250162242908
10
38.211297285531785
20
43.531281360167704
42
0.089297250162242936
10
38.164053661639322
20
43.789352748948772
10
38.039602056637236
20
43.789354093848104
10
38.039602056637236
20
43.271094444730316
10
38.161935261328274
20
43.270742703244267
42
0.099955219231737502
10
38.211297285531785
20
43.531281360167704
42
-0.099955219231737516
10
38.161936790083672
20
43.27074208110416
10
38.936152301326224
20
43.270742081104146
10
39.060961649551814
20
43.271093099830978
10
39.060961649551814
20
43.789352748948772
10
38.934038119569252
20
43.789352748948772
0
LWPOLYLINE
5
402
100
AcDbEntity
8
0
100
AcDbPolyline
90
2
70
1
43
0.0
10
38.886794495676781
20
43.531281360167704
42
-0.089297250162242908
10
38.934038119569252
20
43.789352748948772
42
0.089297250162242936
0
LWPOLYLINE
5
403
100
AcDbEntity
8
0
100
AcDbPolyline
90
2
70
1
43
0.0
10
38.936152301326224
20
43.270742081104146
42
-0.099954901070692354
10
38.886662535896768
20
43.53128287943786
42
0.099944024136443543
0
LWPOLYLINE
5
404
100
AcDbEntity
8
0
100
AcDbPolyline
90
12
70
1
43
0.0
10
25.439558914139695
20
36.589430116314126
42
-0.089297623918452224
10
25.486801193132823
20
36.331357382633719
42
0.089297623918452251
10
25.439558914139695
20
36.589430116314126
10
25.315104619338939
20
36.589427426515456
10
25.315104619338939
20
36.070815413771498
10
25.437439482400887
20
36.070820240094868
42
0.099955236210298518
10
25.486801193132823
20
36.331357382633719
42
-0.099955236210298531
10
25.437444732382719
20
36.070818103570176
10
26.211660243625268
20
36.070818103570176
10
26.336462867354182
20
36.071170467196339
10
26.336462867354182
20
36.589430116314126
10
26.20954471696896
20
36.589430116314126
0
LWPOLYLINE
5
405
100
AcDbEntity
8
0
100
AcDbPolyline
90
2
70
1
43
0.0
10
26.162302437975832
20
36.331357382633719
42
-0.089297623918452224
10
26.20954471696896
20
36.589430116314126
42
0.089297623918452251
0
LWPOLYLINE
5
406
100
AcDbEntity
8
0
100
AcDbPolyline
90
2
70
1
43
0.0
10
26.211660243625268
20
36.070818103570176
42
-0.099954901070687524
10
26.162169359212896
20
36.331358914538129
42
0.099945169191230504
0
LWPOLYLINE
5
407
100
AcDbEntity
8
0
100
AcDbPolyline
90
12
70
1
43
0.0
10
40.182798671896087
20
49.785294597564572
42
-0.089297250162242978
10
40.230042295788557
20
49.527223208783504
42
0.089297250162242936
10
40.182798671896087
20
49.785294597564572
10
40.057994703267838
20
49.785295942463904
10
40.057994703267838
20
49.26668392971996
10
40.180658279011922
20
49.266550110929579
42
0.09995329300618247
10
40.230042295788557
20
49.527223208783504
42
-0.10000533446663523
10
40.180329436714281
20
49.26668392971996
10
40.954897311582997
20
49.26668392971996
10
41.07935429618243
20
49.267034948446778
10
41.079354296182416
20
49.785294597564572
10
40.952430766199853
20
49.785294597564572
0
LWPOLYLINE
5
408
100
AcDbEntity
8
0
100
AcDbPolyline
90
2
70
1
43
0.0
10
40.905539505933547
20
49.527223208783504
42
-0.089275386124273354
10
40.952430766199853
20
49.785294597564572
42
0.089275386124273298
0
LWPOLYLINE
5
409
100
AcDbEntity
8
0
100
AcDbPolyline
90
2
70
1
43
0.0
10
40.954897311582997
20
49.26668392971996
42
-0.099954901070689037
10
40.905407546153548
20
49.52722472805366
42
0.099944024136440407
0
LWPOLYLINE
5
410
100
AcDbEntity
8
0
100
AcDbPolyline
90
12
70
1
43
0.0
10
42.015390785390963
20
49.785294597564572
42
-0.089297250162242589
10
42.062634409283433
20
49.527223208783504
42
0.089297250162242603
10
42.015390785390963
20
49.785294597564572
10
41.890586816762713
20
49.785295942463904
10
41.890586816762713
20
49.26668392971996
10
42.013250392506791
20
49.266550110929579
42
0.09995329300618247
10
42.062634409283426
20
49.527223208783504
42
-0.10000533446663602
10
42.01292155020915
20
49.26668392971996
10
42.787489425077865
20
49.26668392971996
10
42.911946409677299
20
49.267034948446778
10
42.911946409677299
20
49.785294597564572
10
42.785022879694722
20
49.785294597564572
0
LWPOLYLINE
5
411
100
AcDbEntity
8
0
100
AcDbPolyline
90
2
70
1
43
0.0
10
42.73813161942843
20
49.527223208783504
42
-0.08927538612427223
10
42.785022879694729
20
49.785294597564572
42
0.089275386124272174
0
LWPOLYLINE
5
412
100
AcDbEntity
8
0
100
AcDbPolyline
90
2
70
1
43
0.0
10
42.787489425077865
20
49.26668392971996
42
-0.099954901070689106
10
42.737999659648416
20
49.52722472805366
42
0.099944024136440296
0
LWPOLYLINE
5
413
100
AcDbEntity
8
0
100
AcDbPolyline
90
12
70
1
43
0.0
10
44.256598284696373
20
52.149897283443245
42
-0.089395661747004654
10
44.515023176541163
20
52.196911346625072
42
0.089388118538333283
10
44.256598284696373
20
52.149897283443245
10
44.256950648322537
20
52.025091969915664
10
44.775210297440324
20
52.025091969915664
10
44.775561284907006
20
52.147425339139048
42
0.099955227080310377
10
44.515023382002937
20
52.196787198810213
42
-0.099955227080310377
10
44.775562661066473
20
52.147428720711105
10
44.775562661066488
20
52.921644904403323
10
44.775210297440324
20
53.046450890380576
10
44.256598284696373
20
53.046450890380576
10
44.256598284696373
20
52.919530050196677
0
LWPOLYLINE
5
414
100
AcDbEntity
8
0
100
AcDbPolyline
90
2
70
1
43
0.0
10
44.514671018376781
20
52.872287098753887
42
-0.089297665794031131
10
44.256598284696373
20
52.919530050196684
42
0.089297665794031172
0
LWPOLYLINE
5
415
100
AcDbEntity
8
0
100
AcDbPolyline
90
2
70
1
43
0.0
10
44.775562661066488
20
52.921644904403323
42
-0.10008804286262266
10
44.514669734782757
20
52.872180277073404
42
0.10002611796742018
0
LWPOLYLINE
5
416
100
AcDbEntity
8
0
100
AcDbPolyline
90
12
70
1
43
0.0
10
43.847982898885846
20
49.785294597564572
42
-0.089297250162242589
10
43.895226522778316
20
49.527223208783504
42
0.089297250162242603
10
43.847982898885846
20
49.785294597564572
10
43.723178930257589
20
49.785295942463904
10
43.723178930257589
20
49.26668392971996
10
43.845868518559627
20
49.266682915941288
42
0.099954888881972598
10
43.895226522778302
20
49.527223208783504
42
-0.099954888881972653
10
43.845866027330189
20
49.26668392971996
10
44.620081538572734
20
49.26668392971996
10
44.744538523172167
20
49.267034948446778
10
44.744538523172174
20
49.785294597564572
10
44.617614993189598
20
49.785294597564572
0
LWPOLYLINE
5
417
100
AcDbEntity
8
0
100
AcDbPolyline
90
2
70
1
43
0.0
10
44.570723732923305
20
49.527223208783504
42
-0.08927538612427223
10
44.617614993189605
20
49.785294597564572
42
0.089275386124272174
0
LWPOLYLINE
5
418
100
AcDbEntity
8
0
100
AcDbPolyline
90
2
70
1
43
0.0
10
44.620081538572734
20
49.26668392971996
42
-0.099954901070689245
10
44.570591773143285
20
49.52722472805366
42
0.099944024136440518
0
LWPOLYLINE
5
419
100
AcDbEntity
8
0
100
AcDbPolyline
90
12
70
1
43
0.0
10
44.841489626541559
20
50.721686812647619
42
-0.089417352488950663
10
44.888858303383216
20
50.463262755502953
42
0.089409807276791584
10
44.841489626541559
20
50.721686812647619
10
44.716685657913317
20
50.721334449021455
10
44.716685657913317
20
50.203075472353333
10
44.839345397942687
20
50.202943214465279
42
0.099820553354678293
10
44.888733250434029
20
50.463262387790721
42
-0.099872560266658042
10
44.83902039135976
20
50.203075472353333
10
45.613588266228469
20
50.203075472353333
10
45.738045250827895
20
50.203427835979497
10
45.738045250827895
20
50.721686812647619
10
45.611121720845333
20
50.721686812647619
0
LWPOLYLINE
5
420
100
AcDbEntity
8
0
100
AcDbPolyline
90
2
70
1
43
0.0
10
45.564230460579026
20
50.463614751416877
42
-0.08927561493068574
10
45.611121720845333
20
50.721686812647619
42
0.089275614930685698
0
LWPOLYLINE
5
421
100
AcDbEntity
8
0
100
AcDbPolyline
90
2
70
1
43
0.0
10
45.613588266228469
20
50.203075472353333
42
-0.099954901070689106
10
45.564097977841051
20
50.463616276441918
42
0.099943986597847062
0
LWPOLYLINE
5
422
100
AcDbEntity
8
0
100
AcDbPolyline
90
12
70
1
43
0.0
10
46.118805081580909
20
49.785294597564572
42
-0.089275386124273354
10
46.165696341847209
20
49.527223208783504
42
0.089275386124273298
10
46.118805081580909
20
49.785294597564572
10
45.99400111295266
20
49.785295942463904
10
45.99400111295266
20
49.26668392971996
10
46.116334317643691
20
49.266684551860074
42
0.099955219231736045
10
46.165696341847209
20
49.527223208783504
42
-0.099955219231736073
10
46.116335846399103
20
49.26668392971996
10
46.890903721267811
20
49.26668392971996
10
47.015360705867238
20
49.267034948446778
10
47.015360705867238
20
49.785294597564572
10
46.888437175884675
20
49.785294597564572
0
LWPOLYLINE
5
423
100
AcDbEntity
8
0
100
AcDbPolyline
90
2
70
1
43
0.0
10
46.841545915618369
20
49.527223208783504
42
-0.089275386124273354
10
46.888437175884675
20
49.785294597564572
42
0.089275386124273298
0
LWPOLYLINE
5
424
100
AcDbEntity
8
0
100
AcDbPolyline
90
2
70
1
43
0.0
10
46.890903721267811
20
49.26668392971996
42
-0.099954901070689106
10
46.841413955838362
20
49.52722472805366
42
0.099944024136440296
0
LWPOLYLINE
5
425
100
AcDbEntity
8
0
100
AcDbPolyline
90
12
70
1
43
0.0
10
28.385527288252938
20
42.700656736054455
42
-0.089297166410106016
10
28.643598255952991
20
42.748022477435498
42
0.089289592657504357
10
28.385527288252938
20
42.700656736054455
10
28.385878306979755
20
42.575851422526867
10
28.904137956097546
20
42.575851422526867
10
28.904491157716102
20
42.698541308699063
42
0.10008855742404692
10
28.64359867703401
20
42.747899015047579
42
-0.10008855742404689
10
28.904491664623045
20
42.698542554297482
10
28.904491664623045
20
43.472758065540027
10
28.904139300996885
20
43.597562034168277
10
28.385527288252934
20
43.597562034168284
10
28.385527288252934
20
43.470642538883723
0
LWPOLYLINE
5
426
100
AcDbEntity
8
0
100
AcDbPolyline
90
2
70
1
43
0.0
10
28.64359867703401
20
43.423400259890592
42
-0.08929716641010739
10
28.385527288252934
20
43.470642538883723
42
0.089297166410107334
0
LWPOLYLINE
5
427
100
AcDbEntity
8
0
100
AcDbPolyline
90
2
70
1
43
0.0
10
28.904491664623045
20
43.472758065540027
42
-0.10008855106963713
10
28.643597078151512
20
43.423267292229852
42
0.10007860668705648
0
LWPOLYLINE
5
428
100
AcDbEntity
8
0
100
AcDbPolyline
90
12
70
1
43
0.0
10
27.968452485615831
20
53.833358216661651
42
-0.089275302977742416
10
28.226523874396907
20
53.880248132028619
42
0.08927530297774243
10
27.968452485615831
20
53.833358216661651
10
27.968451140716496
20
53.70855290313407
10
28.487063153460447
20
53.70855290313407
10
28.487063153460447
20
53.830890326379176
42
0.099954901070687566
10
28.226523874396907
20
53.880248132028612
42
-0.099954901070687593
10
28.487063153460447
20
53.830890326379176
10
28.487063153460447
20
54.605105837621728
10
28.486712134733626
20
54.729911823598982
10
27.968452485615835
20
54.729911823598975
10
27.968452485615835
20
54.602990983415083
0
LWPOLYLINE
5
429
100
AcDbEntity
8
0
100
AcDbPolyline
90
2
70
1
43
0.0
10
28.226523874396904
20
54.555748031972293
42
-0.089297208285884472
10
27.968452485615835
20
54.602990983415083
42
0.089297208285884527
0
LWPOLYLINE
5
430
100
AcDbEntity
8
0
100
AcDbPolyline
90
2
70
1
43
0.0
10
28.487063153460447
20
54.605105837621728
42
-0.099954901070689176
10
28.226522651250328
20
54.555641737560954
42
0.099893099357861379
0
LWPOLYLINE
5
431
100
AcDbEntity
8
0
100
AcDbPolyline
90
12
70
1
43
0.0
10
27.968452485615831
20
52.045892855503595
42
-0.089275302977742416
10
28.226523874396907
20
52.092782770870571
42
0.08927530297774243
10
27.968452485615831
20
52.045892855503595
10
27.968451140716496
20
51.921087541976014
10
28.487063153460447
20
51.921087541976014
10
28.487063153460443
20
52.043424965221121
42
0.09995490107068622
10
28.226523874396907
20
52.092782770870556
42
-0.09995490107068622
10
28.487063153460447
20
52.043424965221128
10
28.487063153460447
20
52.81764047646368
10
28.486712134733626
20
52.942446462440927
10
27.968452485615835
20
52.94244646244092
10
27.968452485615835
20
52.815525622257027
0
LWPOLYLINE
5
432
100
AcDbEntity
8
0
100
AcDbPolyline
90
2
70
1
43
0.0
10
28.226523874396904
20
52.768282670814237
42
-0.089297208285884472
10
27.968452485615835
20
52.815525622257027
42
0.089297208285884527
0
LWPOLYLINE
5
433
100
AcDbEntity
8
0
100
AcDbPolyline
90
2
70
1
43
0.0
10
28.487063153460447
20
52.81764047646368
42
-0.099954901070689176
10
28.226522651250328
20
52.768176376402906
42
0.099893099357862836
0
LWPOLYLINE
5
434
100
AcDbEntity
8
0
100
AcDbPolyline
90
12
70
1
43
0.0
10
25.543562669629679
20
53.97191310855591
42
-0.08927553178435485
10
25.590452584996648
20
53.713841047325168
42
0.089275531784354906
10
25.543562669629679
20
53.97191310855591
10
25.418757356102091
20
53.97191310855591
10
25.418757356102091
20
53.453301095811966
10
25.541090774654094
20
53.453302725555986
42
0.099955484221980612
10
25.590452584996651
20
53.713841047325168
42
-0.09995548422198057
10
25.541094779347205
20
53.453301095811966
10
26.315662654215917
20
53.453301095811966
10
26.440115604117338
20
53.453654131887795
10
26.440115604117342
20
53.97191310855591
10
26.313194763933442
20
53.97191310855591
0
LWPOLYLINE
5
435
100
AcDbEntity
8
0
100
AcDbPolyline
90
2
70
1
43
0.0
10
26.266304848566481
20
53.713841047325175
42
-0.089275531784351311
10
26.313194763933446
20
53.97191310855591
42
0.089275531784351325
0
LWPOLYLINE
5
436
100
AcDbEntity
8
0
100
AcDbPolyline
90
2
70
1
43
0.0
10
26.315662654215917
20
53.453301095811966
42
-0.099955155142048988
10
26.266171706990363
20
53.713842579942835
42
0.099945010264226877
0
LWPOLYLINE
5
437
100
AcDbEntity
8
0
100
AcDbPolyline
90
12
70
1
43
0.0
10
25.543562669629679
20
54.902311779745858
42
-0.08927553178435485
10
25.590576065700091
20
54.644239981753799
42
0.089267958260530633
10
25.543562669629679
20
54.902311779745858
10
25.418757356102091
20
54.901959416119695
10
25.418757356102091
20
54.383699767001907
10
25.541094779347212
20
54.383699767001907
42
0.099955155142045587
10
25.590452584996651
20
54.644239718515109
42
-0.099955155142045587
10
25.541094779347205
20
54.383699767001907
10
26.315662654215917
20
54.383699767001907
10
26.440115604117338
20
54.384052803077736
10
26.440115604117342
20
54.902311779745858
10
26.313194763933442
20
54.902311779745858
0
LWPOLYLINE
5
438
100
AcDbEntity
8
0
100
AcDbPolyline
90
2
70
1
43
0.0
10
26.266304848566481
20
54.644239718515124
42
-0.089275531784351311
10
26.313194763933446
20
54.902311779745858
42
0.089275531784351325
0
LWPOLYLINE
5
439
100
AcDbEntity
8
0
100
AcDbPolyline
90
2
70
1
43
0.0
10
26.315662654215917
20
54.383699767001907
42
-0.099955155142048988
10
26.266171706990363
20
54.644241251132783
42
0.099945010264226877
0
LWPOLYLINE
5
440
100
AcDbEntity
8
0
100
AcDbPolyline
90
12
70
1
43
0.0
10
29.575055784001773
20
54.902311779745858
42
-0.08927553178435485
10
29.622069094685873
20
54.644239981571296
42
0.089267798755855013
10
29.575055784001773
20
54.902311779745858
10
29.450249125574853
20
54.901959416119695
10
29.450249125574853
20
54.383699767001907
10
29.572587893719305
20
54.383699767001907
42
0.099955155142045587
10
29.621945699368744
20
54.644239718515109
42
-0.099955155142045587
10
29.572587893719302
20
54.383699767001907
10
30.346803404961847
20
54.383699767001907
10
30.471608718489431
20
54.384052803077736
10
30.471608718489435
20
54.902311779745858
10
30.344687878305542
20
54.902311779745858
0
LWPOLYLINE
5
441
100
AcDbEntity
8
0
100
AcDbPolyline
90
2
70
1
43
0.0
10
30.297445599312411
20
54.644239718515109
42
-0.089297395164257595
10
30.34435783187871
20
54.902435186155316
42
0.089275729991009842
0
LWPOLYLINE
5
442
100
AcDbEntity
8
0
100
AcDbPolyline
90
2
70
1
43
0.0
10
30.346803404961847
20
54.383699767001907
42
-0.099955155142045518
10
30.297338471214715
20
54.644240951038356
42
0.099893395523090095
0
LWPOLYLINE
5
443
100
AcDbEntity
8
0
100
AcDbPolyline
90
12
70
1
43
0.0
10
33.767666493986873
20
54.902311779745851
42
-0.089297395164257928
10
33.815032704075293
20
54.64424014130622
42
0.089289792039983815
10
33.767666493986873
20
54.902311779745851
10
33.642861180459285
20
54.901959416119695
10
33.642861180459285
20
54.383699767001907
10
33.765524954764466
20
54.3835669619817
42
0.099953559123915847
10
33.814908772979997
20
54.644239718515102
42
-0.1000052431656305
10
33.765198603704398
20
54.383699767001907
10
34.539766478573114
20
54.383699767001907
10
34.664219428474532
20
54.384052803077736
10
34.664219428474532
20
54.902311779745858
10
34.537298588290639
20
54.902311779745858
0
LWPOLYLINE
5
444
100
AcDbEntity
8
0
100
AcDbPolyline
90
2
70
1
43
0.0
10
34.490408672923671
20
54.644239718515124
42
-0.089275531784351797
10
34.537298588290639
20
54.902311779745858
42
0.089275531784351769
0
LWPOLYLINE
5
445
100
AcDbEntity
8
0
100
AcDbPolyline
90
2
70
1
43
0.0
10
34.539766478573114
20
54.383699767001907
42
-0.099955155142048766
10
34.490275531347557
20
54.644241251132783
42
0.099945010264227432
0
LWPOLYLINE
5
446
100
AcDbEntity
8
0
100
AcDbPolyline
90
12
70
1
43
0.0
10
36.166817626471151
20
52.180217366534904
42
-0.08927553178435485
10
36.213707541838119
20
51.922145305304156
42
0.089275531784354906
10
36.166817626471151
20
52.180217366534904
10
36.042013657842901
20
52.180216694085232
10
36.042013657842901
20
51.661957717417117
10
36.164344586757508
20
51.661607996753261
42
0.099955592529458875
10
36.213707541838119
20
51.922145305304156
42
-0.099955592529458889
10
36.164351081088014
20
51.661605353790954
10
36.938565247431228
20
51.661605353790954
10
37.063371905858148
20
51.661958389866783
10
37.063371905858148
20
52.180217366534904
10
36.936451065674255
20
52.180217366534904
0
LWPOLYLINE
5
447
100
AcDbEntity
8
0
100
AcDbPolyline
90
2
70
1
43
0.0
10
36.889207441781785
20
51.92214530530417
42
-0.089297478916192691
10
36.936451065674248
20
52.180217366534904
42
0.089297478916192677
0
LWPOLYLINE
5
448
100
AcDbEntity
8
0
100
AcDbPolyline
90
2
70
1
43
0.0
10
36.938565247431228
20
51.661605353790954
42
-0.099955155142048766
10
36.889100512158983
20
51.922146535538985
42
0.099893001713196747
0
LWPOLYLINE
5
449
100
AcDbEntity
8
0
100
AcDbPolyline
90
12
70
1
43
0.0
10
36.166817626471151
20
51.240299497841235
42
-0.08927553178435485
10
36.213832688901007
20
50.982227704127673
42
0.089268185253210702
10
36.166817626471151
20
51.240299497841235
10
36.042013657842901
20
51.239946461765406
10
36.042013657842901
20
50.721687485097284
10
36.164348589863742
20
50.721688498888973
42
0.099955263593007021
10
36.213707541838119
20
50.982227436610486
42
-0.099955263593006993
10
36.164351081088014
20
50.721687485097284
10
36.938565247431228
20
50.721687485097284
10
37.063371905858148
20
50.721687485097284
10
37.063371905858148
20
51.240299497841235
10
36.936451065674255
20
51.240299497841235
0
LWPOLYLINE
5
450
100
AcDbEntity
8
0
100
AcDbPolyline
90
2
70
1
43
0.0
10
36.889207441781785
20
50.982227436610486
42
-0.089297478916195508
10
36.936451065674255
20
51.240299497841235
42
0.08929747891619548
0
LWPOLYLINE
5
451
100
AcDbEntity
8
0
100
AcDbPolyline
90
2
70
1
43
0.0
10
36.938565247431228
20
50.721687485097284
42
-0.099955155142045518
10
36.889233588263117
20
50.982227122403778
42
0.0999031264344514
0
LWPOLYLINE
5
452
100
AcDbEntity
8
0
100
AcDbPolyline
90
12
70
1
43
0.0
10
36.166817626471151
20
47.597323593595064
42
-0.089275302977742499
10
36.213831985832236
20
47.339252470602872
42
0.089268000168914813
10
36.166817626471151
20
47.597323593595064
10
36.042013657842901
20
47.596972574868239
10
36.042013657842901
20
47.078712925750452
10
36.164348589863685
20
47.07871393954207
42
0.099955009520883403
10
36.213707541838119
20
47.339252204813988
42
-0.099955009520883445
10
36.164351081088014
20
47.078712925750452
10
36.938565247431228
20
47.078712925750452
10
37.063371905858148
20
47.078711580851113
10
37.063371905858148
20
47.597323593595064
10
36.936451065674255
20
47.597323593595064
0
LWPOLYLINE
5
453
100
AcDbEntity
8
0
100
AcDbPolyline
90
2
70
1
43
0.0
10
36.889207441781785
20
47.339252204813995
42
-0.089297250162243616
10
36.936451065674248
20
47.597323593595071
42
0.089297250162243602
0
LWPOLYLINE
5
454
100
AcDbEntity
8
0
100
AcDbPolyline
90
2
70
1
43
0.0
10
36.938565247431228
20
47.078712925750452
42
-0.099954901070689106
10
36.889234111061839
20
47.339251884297198
42
0.099902909777002183
0
LWPOLYLINE
5
455
100
AcDbEntity
8
0
100
AcDbPolyline
90
12
70
1
43
0.0
10
27.968452485615831
20
50.25842749434554
42
-0.089275302977742416
10
28.226523874396907
20
50.305317409712515
42
0.08927530297774243
10
27.968452485615831
20
50.25842749434554
10
27.968451140716496
20
50.133622180817959
10
28.487063153460447
20
50.133622180817959
10
28.487063153460447
20
50.255959604063065
42
0.099954901070688787
10
28.226523874396907
20
50.305317409712501
42
-0.099954901070688731
10
28.487063153460447
20
50.255959604063065
10
28.487063153460447
20
51.030175115305624
10
28.486712134733626
20
51.154980428833206
10
27.968452485615835
20
51.154980428833198
10
27.968452485615835
20
51.028060261098972
0
LWPOLYLINE
5
456
100
AcDbEntity
8
0
100
AcDbPolyline
90
2
70
1
43
0.0
10
28.226523874396904
20
50.980817309656182
42
-0.089297208285884472
10
27.968328858507054
20
51.027729624743941
42
0.089275581451601249
0
LWPOLYLINE
5
457
100
AcDbEntity
8
0
100
AcDbPolyline
90
2
70
1
43
0.0
10
28.487063153460447
20
51.030175115305624
42
-0.099954901070689176
10
28.226522650678135
20
50.980710965626706
42
0.099893197810572987
0
LWPOLYLINE
5
458
100
AcDbEntity
8
0
100
AcDbPolyline
90
12
70
1
43
0.0
10
19.873736046825673
20
40.460860036153036
42
-0.089275531784352588
10
20.131808108056411
20
40.507749951520005
42
0.089275531784352546
10
19.873736046825673
20
40.460860036153036
10
19.873735374376
20
40.336054722625448
10
20.392347387119951
20
40.336054722625448
10
20.391995695943457
20
40.458392145870562
42
0.099822030151712454
10
20.131808108056411
20
40.507749951520005
42
-0.099832089445878
10
20.391995695943457
20
40.458392145870562
10
20.391995695943457
20
41.232607657113114
10
20.391995023493791
20
41.357412970640688
10
19.873736046825673
20
41.357412970640695
10
19.873736046825673
20
41.230492130456796
0
LWPOLYLINE
5
459
100
AcDbEntity
8
0
100
AcDbPolyline
90
2
70
1
43
0.0
10
20.131808108056411
20
41.183249851463671
42
-0.089297395164254875
10
19.873736046825673
20
41.23049213045681
42
0.089297395164254903
0
LWPOLYLINE
5
460
100
AcDbEntity
8
0
100
AcDbPolyline
90
2
70
1
43
0.0
10
20.391995695943457
20
41.232607657113114
42
-0.099822030151713717
10
20.131808108056411
20
41.183249851463671
42
0.099822030151713675
0
LWPOLYLINE
5
461
100
AcDbEntity
8
0
100
AcDbPolyline
90
12
70
1
43
0.0
10
20.873588009550993
20
40.460860036153036
42
-0.089275531784353393
10
21.131659806931072
20
40.507873666580167
42
0.089267943693631419
10
20.873588009550993
20
40.460860036153036
10
20.873941045626822
20
40.336054722625448
10
21.392200022294944
20
40.336054722625448
10
21.392200022294944
20
40.458392145870562
42
0.09995515514204649
10
21.131660070781734
20
40.507749951520005
42
-0.099955155142046531
10
21.392200022294944
20
40.458392145870562
10
21.392200022294944
20
41.232607657113107
10
21.391846986219111
20
41.357412970640688
10
20.873588009550993
20
41.357412970640695
10
20.873588009550993
20
41.230492130456796
0
LWPOLYLINE
5
462
100
AcDbEntity
8
0
100
AcDbPolyline
90
2
70
1
43
0.0
10
21.131660070781734
20
41.183249851463671
42
-0.089297395164255763
10
20.873588009550996
20
41.23049213045681
42
0.089297395164255791
0
LWPOLYLINE
5
463
100
AcDbEntity
8
0
100
AcDbPolyline
90
2
70
1
43
0.0
10
21.392200022294944
20
41.232607657113107
42
-0.099955155142047253
10
21.131658538164078
20
41.183116709887557
42
0.099945010264224518
0
LWPOLYLINE
5
464
100
AcDbEntity
8
0
100
AcDbPolyline
90
12
70
1
43
0.0
10
17.470705552205271
20
43.184365921217633
42
-0.089417268842153078
10
17.729129610219911
20
43.231733164842439
42
0.089409563981831169
10
17.470705552205271
20
43.184365921217633
10
17.47105791583143
20
43.059559262790714
10
17.989317228724385
20
43.059559262790714
10
17.989667791921175
20
43.182246489161059
42
0.099955490309139236
10
17.729129977062172
20
43.231608200210765
42
-0.099955490309139181
10
17.989669928575381
20
43.182251739460668
10
17.989669928575381
20
43.956467250703213
10
17.989317228724385
20
44.081271219331455
10
17.470705552205267
20
44.081271219331455
10
17.470705552205267
20
43.954351724046894
0
LWPOLYLINE
5
465
100
AcDbEntity
8
0
100
AcDbPolyline
90
2
70
1
43
0.0
10
17.728777613436005
20
43.907109445053777
42
-0.089297395164254875
10
17.47058976921889
20
43.95404222233708
42
0.089317682323182893
0
LWPOLYLINE
5
466
100
AcDbEntity
8
0
100
AcDbPolyline
90
2
70
1
43
0.0
10
17.989669928575381
20
43.956467250703213
42
-0.1000882969661004
10
17.728776012989002
20
43.906976330295969
42
0.10007834445275576
0
LWPOLYLINE
5
467
100
AcDbEntity
8
0
100
AcDbPolyline
90
12
70
1
43
0.0
10
21.873793008352145
20
40.460860036153036
42
-0.089275531784353393
10
22.131865069582886
20
40.507749951520005
42
0.089275531784353337
10
21.873793008352145
20
40.460860036153036
10
21.873793680801814
20
40.336054722625448
10
22.392052657469932
20
40.336054722625448
10
22.392403391352072
20
40.458388141177451
42
0.099955484221981625
10
22.131865069582886
20
40.507749951520005
42
-0.099945047804352261
10
22.392405021096096
20
40.458392145870562
10
22.392405021096096
20
41.232607657113107
10
22.392052657469932
20
41.357412970640688
10
21.873440644725981
20
41.357412970640695
10
21.873793008352145
20
41.230492130456796
0
LWPOLYLINE
5
468
100
AcDbEntity
8
0
100
AcDbPolyline
90
2
70
1
43
0.0
10
22.131512705956723
20
41.183249851463671
42
-0.08917753447120659
10
21.873749549745433
20
41.230376226696571
42
0.089185099696340087
0
LWPOLYLINE
5
469
100
AcDbEntity
8
0
100
AcDbPolyline
90
2
70
1
43
0.0
10
22.392405021096096
20
41.232607657113107
42
-0.10008829696609946
10
22.131511108214589
20
41.183116966960412
42
0.10007815646573534
0
LWPOLYLINE
5
470
100
AcDbEntity
8
0
100
AcDbPolyline
90
12
70
1
43
0.0
10
22.873645643527134
20
40.460860036153036
42
-0.089275531784353393
10
23.131717704757872
20
40.507749951520005
42
0.089275531784353337
10
22.873645643527134
20
40.460860036153036
10
22.873645643527134
20
40.336054722625448
10
23.392257656271084
20
40.336054722625448
10
23.392256026527058
20
40.458388141177451
42
0.099955484221981625
10
23.131717704757872
20
40.507749951520005
42
-0.099955484221981653
10
23.392257656271084
20
40.458392145870562
10
23.392257656271084
20
41.232607657113107
10
23.391904620195255
20
41.357412970640688
10
22.873645643527137
20
41.357412970640695
10
22.873645643527137
20
41.230492130456796
0
LWPOLYLINE
5
471
100
AcDbEntity
8
0
100
AcDbPolyline
90
2
70
1
43
0.0
10
23.131717704757872
20
41.183249851463671
42
-0.08929739516425432
10
22.873645643527137
20
41.23049213045681
42
0.089297395164254348
0
LWPOLYLINE
5
472
100
AcDbEntity
8
0
100
AcDbPolyline
90
2
70
1
43
0.0
10
23.392257656271084
20
41.232607657113107
42
-0.099955155142047253
10
23.131716172140216
20
41.183116709887557
42
0.099945010264224518
0
LWPOLYLINE
5
473
100
AcDbEntity
8
0
100
AcDbPolyline
90
12
70
1
43
0.0
10
25.072192935878856
20
47.86385843390071
42
-0.094207272645222898
10
25.447313062200006
20
47.935779614886506
42
0.094223760586782154
10
25.072192935878856
20
47.86385843390071
10
25.072192935878856
20
47.673477173624867
10
25.825608233983143
20
47.673477173624867
10
25.825470211421194
20
47.860007805333062
42
0.10237106297406326
10
25.447313603713933
20
47.935427252092396
42
-0.10237106297406322
10
25.825608233983143
20
47.860333452739752
10
25.825608233983143
20
49.04175355038884
10
25.825608233983143
20
49.232132120866012
10
25.071840572252697
20
49.232132120866019
10
25.072192935878856
20
49.037874860702388
0
LWPOLYLINE
5
474
100
AcDbEntity
8
0
100
AcDbPolyline
90
2
70
1
43
0.0
10
25.44696124008777
20
48.966306042510709
42
-0.094120362978025326
10
25.07226578519354
20
49.038058919196018
42
0.094111203217499717
0
LWPOLYLINE
5
475
100
AcDbEntity
8
0
100
AcDbPolyline
90
2
70
1
43
0.0
10
25.825608233983143
20
49.04175355038884
42
-0.10246404228934622
10
25.446961240087774
20
48.966306042510695
42
0.1024640422893462
0
LWPOLYLINE
5
476
100
AcDbEntity
8
0
100
AcDbPolyline
90
12
70
1
43
0.0
10
22.209075740491176
20
56.951374855745271
42
-0.093400431891088667
10
22.529902836882979
20
57.011790236875598
42
0.093393522369182636
10
22.209075740491176
20
56.951374855745271
10
22.209428104117343
20
56.790961314934933
10
22.853550157641198
20
56.790961314934933
10
22.853549896774517
20
56.948201618468019
42
0.10275626060667854
10
22.529902822111865
20
57.011661985852754
42
-0.10275626060667861
10
22.853550157641198
20
56.948202238210477
10
22.853550157641198
20
57.943471456446687
10
22.853550157641198
20
58.103884661032197
10
22.209075740491176
20
58.103884661032197
10
22.209075740491176
20
57.94029816646222
0
LWPOLYLINE
5
477
100
AcDbEntity
8
0
100
AcDbPolyline
90
2
70
1
43
0.0
10
22.529902822111868
20
57.880011036354738
42
-0.093400431891089902
10
22.209075740491176
20
57.940298166462227
42
0.09340043189108993
0
LWPOLYLINE
5
478
100
AcDbEntity
8
0
100
AcDbPolyline
90
2
70
1
43
0.0
10
22.853550157641198
20
57.943471456446687
42
-0.10275625826623463
10
22.529902822111868
20
57.880011036354745
42
0.10275625826623463
0
LWPOLYLINE
5
479
100
AcDbEntity
8
0
100
AcDbPolyline
90
12
70
1
43
0.0
10
37.970151454900531
20
42.747899015047594
42
-0.086617974971177583
10
38.040661837314389
20
42.341752864418858
42
0.086617974971177597
10
37.970151454900531
20
42.747899015047594
10
37.783293830886315
20
42.747899015047579
10
37.783293830886315
20
41.931377005376845
10
37.966625305487931
20
41.931730327505143
42
0.093129336054736736
10
38.040661837314389
20
42.341752864418858
42
-0.093129336054736708
10
37.966627818638905
20
41.931729369003008
10
39.12724635825041
20
41.931729369003008
10
39.314095912868609
20
41.931729369003023
10
39.314095912868609
20
42.747899015047594
10
39.123720032190114
20
42.747899015047594
0
LWPOLYLINE
5
480
100
AcDbEntity
8
0
100
AcDbPolyline
90
2
70
1
43
0.0
10
39.053209649776242
20
42.341752864418865
42
-0.086617974971176015
10
39.123720032190107
20
42.747899015047601
42
0.086617974971176029
0
LWPOLYLINE
5
481
100
AcDbEntity
8
0
100
AcDbPolyline
90
2
70
1
43
0.0
10
39.12724635825041
20
41.931729369003008
42
-0.093129331797619661
10
39.05320964977625
20
42.341752864418865
42
0.093129331797619647
0
LWPOLYLINE
5
482
100
AcDbEntity
8
0
100
AcDbPolyline
90
12
70
1
43
0.0
10
20.348630761737454
20
56.951374855745271
42
-0.093400431891088667
10
20.669457843358142
20
57.011661985852754
42
0.093400431891088695
10
20.348630761737454
20
56.951374855745271
10
20.348630761737454
20
56.790961314934933
10
20.992752815261309
20
56.790961314934933
10
20.992751056980005
20
56.948198061051571
42
0.10264648504816652
10
20.669457843358142
20
57.011661985852754
42
-0.10264648504816654
10
20.992752815261309
20
56.948202238210477
10
20.992752815261309
20
57.943471456446687
10
20.992752815261312
20
58.103884661032197
10
20.34827839811129
20
58.103884661032197
10
20.348630761737454
20
57.94029816646222
0
LWPOLYLINE
5
483
100
AcDbEntity
8
0
100
AcDbPolyline
90
2
70
1
43
0.0
10
20.669105479731982
20
57.880011036354738
42
-0.093299609897600833
10
20.348584395480472
20
57.940179200794624
42
0.093306516149080698
0
LWPOLYLINE
5
484
100
AcDbEntity
8
0
100
AcDbPolyline
90
2
70
1
43
0.0
10
20.992752815261309
20
57.943471456446687
42
-0.10275625826623323
10
20.669105479731982
20
57.880011036354738
42
0.10275625826623318
0
LWPOLYLINE
5
485
100
AcDbEntity
8
0
100
AcDbPolyline
90
6
70
1
43
0.0
10
39.972321925734306
20
51.311868316032928
10
40.205715756589996
20
51.311868316032928
10
40.205715756589996
20
50.429770359613933
10
41.351526954506667
20
50.429770359613933
10
41.351526954506667
20
50.154776102481726
10
39.972321925734313
20
50.154776102481719
0
LWPOLYLINE
5
486
100
AcDbEntity
8
0
100
AcDbPolyline
90
6
70
1
43
0.0
10
43.575457876935431
20
51.311868316032928
10
43.809204071417284
20
51.311868316032928
10
43.809204071417284
20
50.154774757582388
10
42.433525368705219
20
50.154774757582388
10
42.433525368705219
20
50.429769014714594
10
43.575457876935431
20
50.429769014714594
0
LWPOLYLINE
5
487
100
AcDbEntity
8
0
100
AcDbPolyline
90
10
70
1
43
0.0
10
39.972321925734306
20
53.290772700794975
10
41.351526954506667
20
53.290772700794975
10
41.351526954506667
20
53.011547390350138
10
40.205715756589996
20
53.011547390350138
10
40.205363392963832
20
50.431532177744742
10
43.577222384864918
20
50.431179814118579
10
43.577222384864911
20
53.011546717900472
10
40.205715756589996
20
53.011547390350138
10
40.205715756589996
20
52.129801797557313
10
39.972321925734313
20
52.129801797557313
0
LWPOLYLINE
5
488
100
AcDbEntity
8
0
100
AcDbPolyline
90
6
70
1
43
0.0
10
42.433525368705219
20
53.290772700794975
10
43.809204071417284
20
53.290772700794975
10
43.809204071417284
20
52.129801797557313
10
43.575457876935431
20
52.129801797557313
10
43.575457876935431
20
53.011547390350138
10
42.433525368705219
20
53.011547390350138
0
LWPOLYLINE
5
489
100
AcDbEntity
8
0
100
AcDbPolyline
90
6
70
1
43
0.0
10
29.24118317881706
20
44.543120410679215
10
29.474928028399571
20
44.543120410679215
10
29.474928028399571
20
43.661374817886383
10
30.620739226316239
20
43.661374817886383
10
30.620739226316243
20
43.386028197128006
10
29.241181833917725
20
43.386028197128013
0
LWPOLYLINE
5
490
100
AcDbEntity
8
0
100
AcDbPolyline
90
6
70
1
43
0.0
10
32.844319130018178
20
44.543120410679215
10
33.078063979600692
20
44.543120410679215
10
33.078063979600699
20
43.386026852228674
10
31.702385276888634
20
43.386026852228674
10
31.702385276888634
20
43.661373472987052
10
32.844317785118847
20
43.661373472987052
0
LWPOLYLINE
5
491
100
AcDbEntity
8
0
100
AcDbPolyline
90
10
70
1
43
0.0
10
29.24118317881706
20
46.522025467890927
10
30.620739226316239
20
46.522025467890927
10
30.620739226316243
20
46.243152521072261
10
29.474928028399574
20
46.243152521072268
10
29.474575664773411
20
43.662433253664204
10
32.846433311775158
20
43.662433253664219
10
32.846433311775158
20
46.243152521072268
10
29.474928028399574
20
46.243152521072268
10
29.474928028399571
20
45.36105456465328
10
29.24118317881706
20
45.361054564653273
0
LWPOLYLINE
5
492
100
AcDbEntity
8
0
100
AcDbPolyline
90
6
70
1
43
0.0
10
31.702385276888634
20
46.522025467890927
10
33.078063979600699
20
46.522025467890927
10
33.078063979600699
20
45.361054564653273
10
32.844319130018185
20
45.361054564653273
10
32.844319130018178
20
46.243152521072261
10
31.702386621787969
20
46.243152521072268
0
LWPOLYLINE
5
493
100
AcDbEntity
8
0
100
AcDbPolyline
90
10
70
1
43
0.0
10
24.667809948280279
20
37.500082975445622
10
25.17831356292449
20
37.500082975445622
10
25.17831356292449
20
37.69293347090327
10
25.17831356292449
20
37.886486003814575
10
24.667809948280279
20
37.886486003814575
10
24.667809948280279
20
37.69293347090327
10
24.667809948280279
20
37.500082975445622
10
25.17831356292449
20
37.500082975445622
10
25.17831356292449
20
37.306527752735647
10
24.667810620729949
20
37.306527752735647
0
LWPOLYLINE
5
494
100
AcDbEntity
8
0
100
AcDbPolyline
90
10
70
1
43
0.0
10
26.442935858025972
20
37.500082975445622
10
26.953438127770845
20
37.500082975445622
10
26.953438127770845
20
37.69293347090327
10
26.953438127770845
20
37.886486003814575
10
26.442935858025972
20
37.886486003814575
10
26.442935858025972
20
37.69293347090327
10
26.442935858025972
20
37.500082975445622
10
26.953438127770845
20
37.500082975445622
10
26.953438127770845
20
37.306527752735647
10
26.442935858025972
20
37.306527752735647
0
LWPOLYLINE
5
495
100
AcDbEntity
8
0
100
AcDbPolyline
90
2
70
1
43
0.0
10
24.667809948280279
20
37.69293347090327
10
25.17831356292449
20
37.69293347090327
0
LWPOLYLINE
5
496
100
AcDbEntity
8
0
100
AcDbPolyline
90
2
70
1
43
0.0
10
26.442935858025972
20
37.69293347090327
10
26.953438127770845
20
37.69293347090327
0
LWPOLYLINE
5
497
100
AcDbEntity
8
0
100
AcDbPolyline
90
10
70
1
43
0.0
10
24.667809948280279
20
39.816737982629171
10
25.17831356292449
20
39.816737982629171
10
25.17831356292449
20
40.009939496813651
10
25.17831356292449
20
40.203493374624287
10
24.667809948280279
20
40.203493374624287
10
24.667809948280279
20
40.009939496813651
10
24.667809948280279
20
39.816737982629171
10
25.17831356292449
20
39.816737982629171
10
25.17831356292449
20
39.623184104818534
10
24.667810620729949
20
39.623184104818534
0
LWPOLYLINE
5
498
100
AcDbEntity
8
0
100
AcDbPolyline
90
10
70
1
43
0.0
10
26.442935858025972
20
39.816737982629171
10
26.953438127770845
20
39.816737982629171
10
26.953438127770845
20
40.009939496813651
10
26.953438127770845
20
40.203493374624287
10
26.442935858025972
20
40.203493374624287
10
26.442935858025972
20
40.009939496813651
10
26.442935858025972
20
39.816737982629171
10
26.953438127770845
20
39.816737982629171
10
26.953438127770845
20
39.623184104818534
10
26.442935858025972
20
39.623184104818534
0
LWPOLYLINE
5
499
100
AcDbEntity
8
0
100
AcDbPolyline
90
2
70
1
43
0.0
10
24.667809948280279
20
40.009939496813651
10
25.17831356292449
20
40.009939496813651
0
LWPOLYLINE
5
500
100
AcDbEntity
8
0
100
AcDbPolyline
90
2
70
1
43
0.0
10
26.442935858025972
20
40.009939496813651
10
26.953438127770845
20
40.009939496813651
0
LWPOLYLINE
5
501
100
AcDbEntity
8
0
100
AcDbPolyline
90
10
70
1
43
0.0
10
25.570709462736868
20
39.816737982629171
10
26.081211732481741
20
39.816737982629171
10
26.081211732481741
20
40.009939496813651
10
26.081211732481741
20
40.203493374624287
10
25.570709462736868
20
40.203493374624287
10
25.570709462736868
20
40.009939496813651
10
25.570709462736868
20
39.816737982629171
10
26.081211732481741
20
39.816737982629171
10
26.081211732481748
20
39.623184104818534
10
25.570709462736872
20
39.623184104818534
0
LWPOLYLINE
5
502
100
AcDbEntity
8
0
100
AcDbPolyline
90
2
70
1
43
0.0
10
25.570709462736868
20
40.009939496813651
10
26.081211732481741
20
40.009939496813651
0
LWPOLYLINE
5
503
100
AcDbEntity
8
0
100
AcDbPolyline
90
4
70
1
43
0.0
10
24.34768826636158
20
39.623184104818534
10
27.303881237680542
20
39.623184104818534
10
27.303881237680542
20
37.886486003814575
10
24.34768826636158
20
37.886486003814575
0
LWPOLYLINE
5
504
100
AcDbEntity
8
0
100
AcDbPolyline
90
4
70
1
43
0.0
10
36.449922971501778
20
55.421628519742129
10
37.22131957373503
20
55.421628519742129
10
37.22131957373503
20
53.880600495654782
10
36.449922971501778
20
53.880600495654782
0
LWPOLYLINE
5
505
100
AcDbEntity
8
0
100
AcDbPolyline
90
4
70
1
43
0.0
10
36.042013657842901
20
55.254869071412514
10
36.449922971501778
20
55.254869071412514
10
36.449922971501778
20
55.047917978861364
10
36.042013657842901
20
55.047917978861364
0
LWPOLYLINE
5
506
100
AcDbEntity
8
0
100
AcDbPolyline
90
4
70
1
43
0.0
10
36.042013657842901
20
54.253958672909377
10
36.449922971501778
20
54.253958672909377
10
36.449922971501778
20
54.047007580358226
10
36.042013657842901
20
54.047007580358226
0
LWPOLYLINE
5
507
100
AcDbEntity
8
0
100
AcDbPolyline
90
4
70
1
43
0.0
10
37.221316883936353
20
54.754590053974034
10
37.629224852695884
20
54.754590053974034
10
37.629224852695891
20
54.547638961422884
10
37.221316883936353
20
54.547638961422876
0
LWPOLYLINE
5
508
100
AcDbEntity
8
0
100
AcDbPolyline
90
4
70
1
43
0.0
10
28.058353626663312
20
46.751539264160833
10
26.531075180942636
20
46.751539264160833
10
26.531075180942636
20
45.964631937879759
10
28.058353626663312
20
45.964631937879759
0
LWPOLYLINE
5
509
100
AcDbEntity
8
0
100
AcDbPolyline
90
4
70
1
43
0.0
10
26.531075180942636
20
46.751539264160833
10
26.531075180942636
20
48.641951289930383
10
28.058353626663312
20
48.641951289930383
10
28.058353626663312
20
46.751539264160833
0
LWPOLYLINE
5
510
100
AcDbEntity
8
0
100
AcDbPolyline
90
4
70
1
43
0.0
10
27.659963510508163
20
45.44989861482226
10
26.928759224946127
20
45.44989861482226
10
26.928759224946127
20
45.964631937879759
10
27.659963510508163
20
45.964631937879759
0
LWPOLYLINE
5
511
100
AcDbEntity
8
0
100
AcDbPolyline
90
4
70
1
43
0.0
10
27.659963510508163
20
48.641952634829721
10
26.928759224946127
20
48.641952634829721
10
26.928759224946127
20
49.157038321513376
10
27.659963510508163
20
49.157038321513369
0
LWPOLYLINE
5
512
100
AcDbEntity
8
0
100
AcDbPolyline
90
4
70
1
43
0.0
10
20.945157500192344
20
45.060675332544676
10
26.162299748177151
20
45.060675332544676
10
26.162299748177155
20
42.089321983455051
10
20.945157500192344
20
42.089321983455065
0
LWPOLYLINE
5
513
100
AcDbEntity
8
0
100
AcDbPolyline
90
4
70
1
43
0.0
10
25.408533431346044
20
42.088969619828887
10
25.667663255904941
20
42.088969619828887
10
25.667663255904934
20
41.895415742018251
10
25.40853343134604
20
41.895415742018258
0
LWPOLYLINE
5
514
100
AcDbEntity
8
0
100
AcDbPolyline
90
4
70
1
43
0.0
10
24.557459612821368
20
42.088969619828887
10
24.816589437380262
20
42.088969619828887
10
24.816589437380259
20
41.895415742018251
10
24.557459612821365
20
41.895415742018258
0
LWPOLYLINE
5
515
100
AcDbEntity
8
0
100
AcDbPolyline
90
4
70
1
43
0.0
10
23.706738830372519
20
42.088969619828887
10
23.965868654931413
20
42.088969619828887
10
23.965868654931413
20
41.895415742018251
10
23.706738830372519
20
41.895415742018258
0
LWPOLYLINE
5
516
100
AcDbEntity
8
0
100
AcDbPolyline
90
4
70
1
43
0.0
10
23.054507706299248
20
42.088969619828887
10
23.313637530858141
20
42.088969619828887
10
23.313637530858141
20
41.895415742018251
10
23.054507706299248
20
41.895415742018258
0
LWPOLYLINE
5
517
100
AcDbEntity
8
0
100
AcDbPolyline
90
4
70
1
43
0.0
10
22.414616033638342
20
42.088969619828887
10
22.673745858197236
20
42.088969619828887
10
22.673745858197236
20
41.895415742018251
10
22.414616033638342
20
41.895415742018258
0
LWPOLYLINE
5
518
100
AcDbEntity
8
0
100
AcDbPolyline
90
4
70
1
43
0.0
10
21.744052586709284
20
42.088969619828887
10
22.003182411268178
20
42.088969619828887
10
22.003182411268178
20
41.895415742018251
10
21.744052586709284
20
41.895415742018258
0
LWPOLYLINE
5
519
100
AcDbEntity
8
0
100
AcDbPolyline
90
4
70
1
43
0.0
10
25.408533431346044
20
45.254229210355312
10
25.667663255904941
20
45.254229210355312
10
25.667663255904934
20
45.060675332544669
10
25.40853343134604
20
45.060675332544676
0
LWPOLYLINE
5
520
100
AcDbEntity
8
0
100
AcDbPolyline
90
4
70
1
43
0.0
10
24.557459612821368
20
45.254229210355312
10
24.816589437380262
20
45.254229210355312
10
24.816589437380259
20
45.060675332544669
10
24.557459612821365
20
45.060675332544676
0
LWPOLYLINE
5
521
100
AcDbEntity
8
0
100
AcDbPolyline
90
4
70
1
43
0.0
10
23.706738830372519
20
45.254229210355312
10
23.965868654931413
20
45.254229210355312
10
23.965868654931413
20
45.060675332544669
10
23.706738830372519
20
45.060675332544676
0
LWPOLYLINE
5
522
100
AcDbEntity
8
0
100
AcDbPolyline
90
4
70
1
43
0.0
10
23.054507706299248
20
45.254229210355312
10
23.313637530858141
20
45.254229210355312
10
23.313637530858141
20
45.060675332544669
10
23.054507706299248
20
45.060675332544676
0
LWPOLYLINE
5
523
100
AcDbEntity
8
0
100
AcDbPolyline
90
4
70
1
43
0.0
10
22.414616033638342
20
45.254229210355312
10
22.673745858197236
20
45.254229210355312
10
22.673745858197236
20
45.060675332544669
10
22.414616033638342
20
45.060675332544676
0
LWPOLYLINE
5
524
100
AcDbEntity
8
0
100
AcDbPolyline
90
4
70
1
43
0.0
10
21.744052586709284
20
45.254229210355312
10
22.003182411268178
20
45.254229210355312
10
22.003182411268178
20
45.060675332544669
10
21.744052586709284
20
45.060675332544676
0
LWPOLYLINE
5
525
100
AcDbEntity
8
0
100
AcDbPolyline
90
4
70
1
43
0.0
10
20.751603622381715
20
44.694720153687832
10
20.751603622381715
20
44.953849978246723
10
20.945157500192352
20
44.953849978246723
10
20.945157500192344
20
44.694720153687832
0
LWPOLYLINE
5
526
100
AcDbEntity
8
0
100
AcDbPolyline
90
4
70
1
43
0.0
10
20.751603622381715
20
44.194794172325167
10
20.751603622381715
20
44.454276360510221
10
20.945509863818511
20
44.454276360510221
10
20.945509863818511
20
44.195146535951331
0
LWPOLYLINE
5
527
100
AcDbEntity
8
0
100
AcDbPolyline
90
4
70
1
43
0.0
10
20.751251258755548
20
43.695220554588673
10
20.751251258755548
20
43.95435037914757
10
20.945157500192344
20
43.95435037914757
10
20.945157500192344
20
43.695220554588673
0
LWPOLYLINE
5
528
100
AcDbEntity
8
0
100
AcDbPolyline
90
4
70
1
43
0.0
10
20.751603622381715
20
43.195294573226015
10
20.751603622381715
20
43.454424397784905
10
20.945157500192352
20
43.454424397784905
10
20.945157500192344
20
43.195294573226015
0
LWPOLYLINE
5
529
100
AcDbEntity
8
0
100
AcDbPolyline
90
4
70
1
43
0.0
10
20.751603622381715
20
42.69536859186335
10
20.751603622381715
20
42.95449841642224
10
20.945509863818511
20
42.95449841642224
10
20.945509863818511
20
42.69536859186335
0
LWPOLYLINE
5
530
100
AcDbEntity
8
0
100
AcDbPolyline
90
4
70
1
43
0.0
10
20.751251258755548
20
42.195794974126848
10
20.751251258755548
20
42.454924798685738
10
20.945157500192344
20
42.454924798685745
10
20.945157500192344
20
42.195794974126855
0
LWPOLYLINE
5
531
100
AcDbEntity
8
0
100
AcDbPolyline
90
4
70
1
43
0.0
10
25.590452584996648
20
53.004496083128885
10
26.919241372341737
20
53.004496083128885
10
26.919241372341737
20
50.188620494284663
10
25.590452584996648
20
50.18862049428467
0
LWPOLYLINE
5
532
100
AcDbEntity
8
0
100
AcDbPolyline
90
8
70
1
43
0.0
10
26.919241372341737
20
50.851076215563651
10
27.072250569854997
20
50.851076215563651
10
27.225259767368261
20
50.851076215563651
10
27.377916601255361
20
50.851076215563651
10
27.377916601255361
20
50.512621538339495
10
27.225259767368261
20
50.512621538339495
10
27.072250569855001
20
50.512621538339495
10
26.919241372341741
20
50.512621538339495
0
LWPOLYLINE
5
533
100
AcDbEntity
8
0
100
AcDbPolyline
90
2
70
1
43
0.0
10
27.072250569854997
20
50.851076215563651
10
27.072250569855001
20
50.512621538339495
0
LWPOLYLINE
5
534
100
AcDbEntity
8
0
100
AcDbPolyline
90
2
70
1
43
0.0
10
27.225259767368261
20
50.851076215563651
10
27.225259767368261
20
50.512621538339495
0
LWPOLYLINE
5
535
100
AcDbEntity
8
0
100
AcDbPolyline
90
8
70
1
43
0.0
10
26.919241372341737
20
52.747129421600143
10
27.072250569854997
20
52.747129421600143
10
27.225259767368261
20
52.747129421600143
10
27.377916601255361
20
52.747129421600143
10
27.377916601255361
20
52.408674744375986
10
27.225259767368261
20
52.408674744375986
10
27.072250569855001
20
52.408674744375986
10
26.919241372341741
20
52.408674744375986
0
LWPOLYLINE
5
536
100
AcDbEntity
8
0
100
AcDbPolyline
90
2
70
1
43
0.0
10
27.072250569854997
20
52.747129421600143
10
27.072250569855001
20
52.408674744375986
0
LWPOLYLINE
5
537
100
AcDbEntity
8
0
100
AcDbPolyline
90
2
70
1
43
0.0
10
27.225259767368261
20
52.747129421600143
10
27.225259767368261
20
52.408674744375986
0
LWPOLYLINE
5
538
100
AcDbEntity
8
0
100
AcDbPolyline
90
8
70
1
43
0.0
10
25.131776011183682
20
52.817992840089836
10
25.284785208696942
20
52.817992840089836
10
25.437794406210209
20
52.817992840089836
10
25.590804948622811
20
52.817992840089836
10
25.590804948622807
20
51.981727035709653
10
25.437794406210212
20
51.981727035709653
10
25.284785208696945
20
51.981727035709653
10
25.131776011183685
20
51.981727035709653
0
LWPOLYLINE
5
539
100
AcDbEntity
8
0
100
AcDbPolyline
90
2
70
1
43
0.0
10
25.284785208696942
20
52.817992840089836
10
25.284785208696945
20
51.981727035709653
0
LWPOLYLINE
5
540
100
AcDbEntity
8
0
100
AcDbPolyline
90
2
70
1
43
0.0
10
25.437794406210209
20
52.817992840089836
10
25.437794406210212
20
51.981727035709653
0
LWPOLYLINE
5
541
100
AcDbEntity
8
0
100
AcDbPolyline
90
8
70
1
43
0.0
10
25.131776011183682
20
50.851076215563651
10
25.284785208696942
20
50.851076215563651
10
25.437794406210209
20
50.851076215563651
10
25.590804948622811
20
50.851076215563651
10
25.590804948622807
20
50.512621538339495
10
25.437794406210212
20
50.512621538339495
10
25.284785208696945
20
50.512621538339495
10
25.131776011183685
20
50.512621538339495
0
LWPOLYLINE
5
542
100
AcDbEntity
8
0
100
AcDbPolyline
90
2
70
1
43
0.0
10
25.284785208696942
20
50.851076215563651
10
25.284785208696945
20
50.512621538339495
0
LWPOLYLINE
5
543
100
AcDbEntity
8
0
100
AcDbPolyline
90
2
70
1
43
0.0
10
25.437794406210209
20
50.851076215563651
10
25.437794406210212
20
50.512621538339495
0
LWPOLYLINE
5
544
100
AcDbEntity
8
0
100
AcDbPolyline
90
4
70
1
43
0.0
10
24.211600592300123
20
54.994329119899312
10
24.211600592300123
20
54.767987268714549
10
23.711321574861635
20
54.767987268714542
10
23.711321574861628
20
54.994329119899305
0
LWPOLYLINE
5
545
100
AcDbEntity
8
0
100
AcDbPolyline
90
4
70
1
43
0.0
10
24.211600592300123
20
54.527191111910781
10
24.211600592300123
20
54.300849260726018
10
23.710969211235469
20
54.300849260726011
10
23.710969211235469
20
54.527191111910767
0
LWPOLYLINE
5
546
100
AcDbEntity
8
0
100
AcDbPolyline
90
4
70
1
43
0.0
10
24.211600592300123
20
54.059700067846414
10
24.211600592300123
20
53.833358216661651
10
23.710969211235469
20
53.833358216661651
10
23.710969211235469
20
54.059700067846414
0
LWPOLYLINE
5
547
100
AcDbEntity
8
0
100
AcDbPolyline
90
4
70
1
43
0.0
10
24.211600592300123
20
53.592561387408217
10
24.211600592300123
20
53.366219536223454
10
23.711321574861635
20
53.366219536223447
10
23.711321574861628
20
53.59256138740821
0
LWPOLYLINE
5
548
100
AcDbEntity
8
0
100
AcDbPolyline
90
4
70
1
43
0.0
10
24.211600592300123
20
53.12507034334385
10
24.211600592300123
20
52.89908085578525
10
23.711321574861635
20
52.899080855785243
10
23.711321574861628
20
53.125422706970006
0
LWPOLYLINE
5
549
100
AcDbEntity
8
0
100
AcDbPolyline
90
4
70
1
43
0.0
10
24.211600592300123
20
52.658284698981475
10
24.211600592300123
20
52.431942847796719
10
23.711321574861635
20
52.431942847796719
10
23.711321574861628
20
52.658284698981475
0
LWPOLYLINE
5
550
100
AcDbEntity
8
0
100
AcDbPolyline
90
4
70
1
43
0.0
10
24.211600592300123
20
52.190793654917123
10
24.211600592300123
20
51.964804167358523
10
23.710969211235469
20
51.964804167358515
10
23.710969211235469
20
52.191146018543279
0
LWPOLYLINE
5
551
100
AcDbEntity
8
0
100
AcDbPolyline
90
4
70
1
43
0.0
10
24.211600592300123
20
51.723654974478919
10
24.211600592300123
20
51.497313123294155
10
23.710969211235469
20
51.497313123294148
10
23.710969211235469
20
51.723654974478912
0
LWPOLYLINE
5
552
100
AcDbEntity
8
0
100
AcDbPolyline
90
4
70
1
43
0.0
10
24.211600592300123
20
51.256516966490381
10
24.211600592300123
20
51.030175115305624
10
23.711321574861635
20
51.03017511530561
10
23.711321574861628
20
51.256516966490373
0
LWPOLYLINE
5
553
100
AcDbEntity
8
0
100
AcDbPolyline
90
4
70
1
43
0.0
10
24.211600592300123
20
50.789378286052184
10
24.211600592300123
20
50.563036434867421
10
23.711321574861635
20
50.563036434867421
10
23.711321574861628
20
50.789378286052184
0
LWPOLYLINE
5
554
100
AcDbEntity
8
0
100
AcDbPolyline
90
4
70
1
43
0.0
10
24.211248228673963
20
50.322240278063653
10
24.211248228673963
20
50.095899099328555
10
23.710969211235472
20
50.095899099328555
10
23.710969211235469
20
50.322240278063653
0
LWPOLYLINE
5
555
100
AcDbEntity
8
0
100
AcDbPolyline
90
4
70
1
43
0.0
10
24.211600592300123
20
49.854749233999286
10
24.211600592300123
20
49.628408055264188
10
23.710969211235469
20
49.628408055264188
10
23.710969211235469
20
49.854749233999286
0
LWPOLYLINE
5
556
100
AcDbEntity
8
0
100
AcDbPolyline
90
4
70
1
43
0.0
10
24.211600592300123
20
49.387962917187245
10
24.211600592300123
20
49.161268029926653
10
23.710969211235469
20
49.161268029926653
10
23.710969211235469
20
49.387609208661758
0
LWPOLYLINE
5
557
100
AcDbEntity
8
0
100
AcDbPolyline
90
4
70
1
43
0.0
10
24.211600592300123
20
48.920471873122878
10
24.211600592300123
20
48.694130694387781
10
23.711321574861635
20
48.694130694387788
10
23.711321574861628
20
48.920471873122892
0
LWPOLYLINE
5
558
100
AcDbEntity
8
0
100
AcDbPolyline
90
4
70
1
43
0.0
10
24.211600592300123
20
48.453333192684688
10
24.211600592300123
20
48.226992013949584
10
23.711321574861635
20
48.226992013949598
10
23.711321574861628
20
48.453333192684696
0
LWPOLYLINE
5
559
100
AcDbEntity
8
0
100
AcDbPolyline
90
4
70
1
43
0.0
10
24.211600592300123
20
47.986195857145823
10
24.211600592300123
20
47.759854678410719
10
23.710969211235469
20
47.759854678410733
10
23.710969211235469
20
47.98619585714583
0
LWPOLYLINE
5
560
100
AcDbEntity
8
0
100
AcDbPolyline
90
4
70
1
43
0.0
10
24.211600592300123
20
47.518704813081456
10
24.211600592300123
20
47.292363634346358
10
23.710969211235469
20
47.292363634346366
10
23.710969211235469
20
47.518704813081463
0
LWPOLYLINE
5
561
100
AcDbEntity
8
0
100
AcDbPolyline
90
4
70
1
43
0.0
10
24.211600592300123
20
47.051566132643259
10
24.211600592300123
20
46.825224953908162
10
23.711321574861635
20
46.825224953908162
10
23.711321574861628
20
47.051566132643259
0
LWPOLYLINE
5
562
100
AcDbEntity
8
0
100
AcDbPolyline
90
40
70
1
43
0.0
10
23.711322247311301
20
47.152044906972286
10
23.591452714348659
20
47.152044906972286
42
-0.41890777433142351
10
23.365816262865884
20
47.374156377294092
10
23.365816262865884
20
47.790174089052712
42
-0.41421301681731626
10
23.591452714348662
20
48.01581054053549
10
23.711322247311301
20
48.01581054053549
10
23.711322247311301
20
48.481186057943546
10
23.591452714348659
20
48.481186057943539
42
-0.414213016817299
10
23.365816262865891
20
48.706822509426303
10
23.365816262865884
20
49.122840221184916
42
-0.41890777433144677
10
23.591452714348659
20
49.344951691506751
10
23.711322247311301
20
49.344951691506736
10
23.711322247311301
20
49.813853534975088
10
23.591452714348659
20
49.813853534975088
42
-0.41890777433142329
10
23.365816262865884
20
50.035965005296902
10
23.365816262865884
20
50.451982717055515
42
-0.41421301681731626
10
23.591452714348662
20
50.677619168538293
10
23.711322247311301
20
50.677619168538293
10
23.711322247311301
20
51.142642322320178
10
23.591452714348659
20
51.142642322320178
42
-0.414213016817299
10
23.365816262865891
20
51.368278773802949
10
23.365816262865884
20
51.784296485561555
42
-0.41890688451239799
10
23.591452714348655
20
52.006407283433717
10
23.711322247311301
20
52.006407283433717
10
23.711322247311301
20
52.475308454452396
10
23.591452714348659
20
52.475308454452396
42
-0.41890688451239216
10
23.365816262865884
20
52.697419252324536
10
23.365816262865884
20
53.113436964083149
42
-0.41421301681731626
10
23.591452714348662
20
53.339073415565927
10
23.711322247311301
20
53.339073415565927
10
23.711322247311301
20
53.804448932973976
10
23.591452714348659
20
53.804448932973976
42
-0.414213016817299
10
23.365816262865891
20
54.030085384456747
10
23.365816262865884
20
54.446103096215367
42
-0.41890688451238628
10
23.591452714348655
20
54.668213894087508
10
23.711322247311301
20
54.668213894087508
10
23.711322247311301
20
55.549254759628013
10
13.642990912849529
20
55.549254759628013
10
13.642990912849529
20
46.346099185683762
10
23.711322247311301
20
46.346099185683762
0
LWPOLYLINE
5
563
100
AcDbEntity
8
0
100
AcDbPolyline
90
6
70
1
43
0.0
10
21.744052360766197
20
51.287894484754766
10
21.744052360766197
20
50.532011651421428
42
-0.41421356237309503
10
21.51277477743286
20
50.300734068088097
42
-0.41421356237309503
10
21.281497194099529
20
50.532011651421428
10
21.281497194099529
20
51.287894484754766
42
-0.41421356237309503
10
21.512774777432867
20
51.519172068088103
42
-0.41421356237309503
0
LWPOLYLINE
5
564
100
AcDbEntity
8
0
100
AcDbPolyline
90
4
70
1
43
0.0
10
15.468885091423811
20
46.346099185683762
10
16.536428527553699
20
46.346099185683762
10
16.536428527553703
20
46.11164826394959
10
15.468885091423815
20
46.11164826394959
0
LWPOLYLINE
5
565
100
AcDbEntity
8
0
100
AcDbPolyline
90
4
70
1
43
0.0
10
15.468885091423811
20
55.78370500891252
10
16.536428527553699
20
55.78370500891252
10
16.536428527553703
20
55.549254087178348
10
15.468885091423815
20
55.549254087178348
0
LWPOLYLINE
5
566
100
AcDbEntity
8
0
100
AcDbPolyline
90
4
70
1
43
0.0
10
35.926021469667383
20
53.430737719643552
10
36.938565247431228
20
53.430737719643552
10
35.926021469667383
20
53.430737719643552
10
35.926020124768044
20
52.631490269500453
0
LWPOLYLINE
5
567
100
AcDbEntity
8
0
100
AcDbPolyline
90
11
70
1
43
0.0
10
36.938565247431228
20
53.430737719643552
10
36.938565247431228
20
52.631490269500453
10
35.926020124768044
20
52.631490269500453
10
35.926021469667383
20
53.431794810522035
10
35.64044957925362
20
53.431794810522035
10
35.64044957925362
20
53.170902495382663
42
-0.40700104676886534
10
35.781473033880019
20
53.033405366816552
42
-0.41421578824606703
10
35.64044957925362
20
52.89238191219016
10
35.64044957925362
20
52.631489597050781
10
35.926020124768044
20
52.631490269500453
10
36.938565247431228
20
52.631490269500453
0
LWPOLYLINE
5
568
100
AcDbEntity
8
0
100
AcDbPolyline
90
4
70
1
43
0.0
10
36.797896846229662
20
53.289714937466819
10
36.797896846229662
20
52.772513724126853
10
36.067046269193114
20
52.772513724126853
10
36.067046269193121
20
53.289714937466819
0
LWPOLYLINE
5
569
100
AcDbEntity
8
0
100
AcDbPolyline
90
7
70
1
43
0.0
10
37.223081391865833
20
52.892383257089492
42
-0.40700104676886534
10
37.082057937239426
20
53.029880385655595
42
-0.4142157882460854
10
37.223081391865833
20
53.170903840281994
10
37.22308139186584
20
53.431796155421374
10
36.937510846351415
20
53.431796155421374
10
36.937510846351408
20
52.631490941950119
10
37.223081391865833
20
52.631490941950112
0
LWPOLYLINE
5
570
100
AcDbEntity
8
0
100
AcDbPolyline
90
4
70
1
43
0.0
10
35.926021469667383
20
50.236921209055616
10
36.938565247431228
20
50.236921209055616
10
35.926021469667383
20
50.236921209055616
10
35.926020124768044
20
49.437674431362183
0
LWPOLYLINE
5
571
100
AcDbEntity
8
0
100
AcDbPolyline
90
11
70
1
43
0.0
10
36.938565247431228
20
50.236921209055616
10
36.938565247431228
20
49.437674431362183
10
35.926020124768044
20
49.437674431362183
10
35.926021469667383
20
50.237979644833437
10
35.64044957925362
20
50.237979644833445
10
35.64044957925362
20
49.977086657244399
42
-0.40700104676886534
10
35.781473033880019
20
49.839589528678296
42
-0.41421299499906561
10
35.64044957925362
20
49.698567418951228
10
35.64044957925362
20
49.437674431362183
10
35.926020124768044
20
49.437674431362183
10
36.938565247431228
20
49.437674431362183
0
LWPOLYLINE
5
572
100
AcDbEntity
8
0
100
AcDbPolyline
90
4
70
1
43
0.0
10
36.797896846229662
20
50.095897754429217
10
36.797896846229662
20
49.578696541089251
10
36.067046269193114
20
49.578696541089258
10
36.067046269193121
20
50.095897754429224
0
LWPOLYLINE
5
573
100
AcDbEntity
8
0
100
AcDbPolyline
90
7
70
1
43
0.0
10
37.223081391865833
20
49.698566074051897
42
-0.40700104676886534
10
37.082057937239426
20
49.836063202618
42
-0.41421299499905639
10
37.223081391865833
20
49.977085312345068
10
37.22308139186584
20
50.237978299934113
10
36.937510846351415
20
50.237978299934099
10
36.937510846351408
20
49.437673086462851
10
37.223081391865833
20
49.437673086462851
0
LWPOLYLINE
5
574
100
AcDbEntity
8
0
100
AcDbPolyline
90
4
70
1
43
0.0
10
35.926021469667383
20
48.916594528335764
10
36.938565247431228
20
48.916594528335764
10
35.926021469667383
20
48.916594528335764
10
35.926020124768044
20
48.117347750642338
0
LWPOLYLINE
5
575
100
AcDbEntity
8
0
100
AcDbPolyline
90
11
70
1
43
0.0
10
36.938565247431228
20
48.916594528335764
10
36.938565247431228
20
48.117347750642338
10
35.926020124768044
20
48.117347750642338
10
35.926021469667383
20
48.917651619214254
10
35.64044957925362
20
48.917651619214261
10
35.64044957925362
20
48.656758631625216
42
-0.40700104676886534
10
35.781473033880019
20
48.519261503059106
42
-0.41421299499906561
10
35.64044957925362
20
48.378239393332045
10
35.64044957925362
20
48.117346405743
10
35.926020124768044
20
48.117347750642338
10
36.938565247431228
20
48.117347750642338
0
LWPOLYLINE
5
576
100
AcDbEntity
8
0
100
AcDbPolyline
90
4
70
1
43
0.0
10
36.797896846229662
20
48.775571073709365
10
36.797896846229662
20
48.258369860369399
10
36.067046269193114
20
48.258369860369399
10
36.067046269193121
20
48.775571073709365
0
LWPOLYLINE
5
577
100
AcDbEntity
8
0
100
AcDbPolyline
90
7
70
1
43
0.0
10
37.223081391865833
20
48.378239393332045
42
-0.40700104676886534
10
37.082057937239426
20
48.515736521898148
42
-0.41421299499903796
10
37.223081391865833
20
48.656758631625209
10
37.22308139186584
20
48.917651619214254
10
36.937510846351415
20
48.917651619214254
10
36.937510846351408
20
48.117346405743
10
37.223081391865833
20
48.117346405743
0
LWPOLYLINE
5
578
100
AcDbEntity
8
0
100
AcDbPolyline
90
4
70
1
43
0.0
10
45.965795884067646
20
39.496263264634649
10
47.241701884602342
20
39.496263264634649
10
47.241701884602335
20
36.966663621006845
10
45.965795884067632
20
36.966663621006845
0
LWPOLYLINE
5
579
100
AcDbEntity
8
0
100
AcDbPolyline
90
4
70
1
43
0.0
10
47.105614210540878
20
38.736150367834604
10
46.101883558129096
20
38.736150367834604
10
46.101883558129103
20
37.732419715422822
10
47.105614210540885
20
37.732419715422822
0
LWPOLYLINE
5
580
100
AcDbEntity
8
0
100
AcDbPolyline
90
4
70
1
43
0.0
10
46.855651219859553
20
37.983087433356474
10
46.855651219859553
20
38.485130286274781
10
46.352551276062755
20
38.485130286274789
10
46.352551276062755
20
37.983087433356481
0
LWPOLYLINE
5
581
100
AcDbEntity
8
0
100
AcDbPolyline
90
4
70
1
43
0.0
10
44.690244936957782
20
39.496263264634649
10
45.965795884067646
20
39.496263264634649
10
45.965795884067632
20
36.966663621006845
10
44.690244936957782
20
36.966663621006845
0
LWPOLYLINE
5
582
100
AcDbEntity
8
0
100
AcDbPolyline
90
4
70
1
43
0.0
10
45.829708210006181
20
38.736150367834604
10
44.825977557594399
20
38.736150367834604
10
44.825977557594413
20
37.732419715422822
10
45.829708210006189
20
37.732419715422822
0
LWPOLYLINE
5
583
100
AcDbEntity
8
0
100
AcDbPolyline
90
4
70
1
43
0.0
10
45.580097582951012
20
37.983087433356474
10
45.580097582951012
20
38.485130286274781
10
45.077000328952899
20
38.485130286274789
10
45.077000328952899
20
37.983087433356481
0
LWPOLYLINE
5
584
100
AcDbEntity
8
0
100
AcDbPolyline
90
4
70
1
43
0.0
10
43.414338936423093
20
39.496263264634649
10
44.690244936957782
20
39.496263264634649
10
44.690244936957782
20
36.966663621006845
10
43.414338936423093
20
36.966663621006845
0
LWPOLYLINE
5
585
100
AcDbEntity
8
0
100
AcDbPolyline
90
4
70
1
43
0.0
10
44.554157262896332
20
38.736150367834604
10
43.55042661048455
20
38.736150367834604
10
43.550426610484543
20
37.732419715422822
10
44.554157262896325
20
37.732419715422822
0
LWPOLYLINE
5
586
100
AcDbEntity
8
0
100
AcDbPolyline
90
4
70
1
43
0.0
10
44.304194272215
20
37.983087433356474
10
44.304194272215
20
38.485130286274781
10
43.801094328418202
20
38.485130286274789
10
43.801094328418202
20
37.983087433356481
0
LWPOLYLINE
5
587
100
AcDbEntity
8
0
100
AcDbPolyline
90
4
70
1
43
0.0
10
42.138785299514566
20
39.496263264634649
10
43.414338936423093
20
39.496263264634649
10
43.414338936423093
20
36.966663621006845
10
42.138785299514566
20
36.966663621006845
0
LWPOLYLINE
5
588
100
AcDbEntity
8
0
100
AcDbPolyline
90
4
70
1
43
0.0
10
43.278251262361636
20
38.736150367834604
10
42.274520609949853
20
38.736150367834604
10
42.274520609949853
20
37.732419715422822
10
43.278251262361636
20
37.732419715422822
0
LWPOLYLINE
5
589
100
AcDbEntity
8
0
100
AcDbPolyline
90
4
70
1
43
0.0
10
43.028640635306473
20
37.983087433356474
10
43.028640635306473
20
38.485130286274781
10
42.525540691509676
20
38.485130286274789
10
42.525540691509676
20
37.983087433356481
0
LWPOLYLINE
5
590
100
AcDbEntity
8
0
100
AcDbPolyline
90
4
70
1
43
0.0
10
40.86288198877854
20
39.496263264634649
10
42.138785299514566
20
39.496263264634649
10
42.138785299514566
20
36.966663621006845
10
40.86288198877854
20
36.966663621006845
0
LWPOLYLINE
5
591
100
AcDbEntity
8
0
100
AcDbPolyline
90
4
70
1
43
0.0
10
42.002700315251779
20
38.736150367834604
10
40.998969662839997
20
38.736150367834604
10
40.998969662839997
20
37.732419715422822
10
42.002700315251779
20
37.732419715422822
0
LWPOLYLINE
5
592
100
AcDbEntity
8
0
100
AcDbPolyline
90
4
70
1
43
0.0
10
41.752737324570447
20
37.983087433356474
10
41.752737324570447
20
38.485130286274781
10
41.249637380773656
20
38.485130286274789
10
41.249637380773656
20
37.983087433356481
0
LWPOLYLINE
5
593
100
AcDbEntity
8
0
100
AcDbPolyline
90
4
70
1
43
0.0
10
39.58697598824385
20
39.496263264634649
10
40.86288198877854
20
39.496263264634649
10
40.86288198877854
20
36.966663621006845
10
39.58697598824385
20
36.966663621006845
0
LWPOLYLINE
5
594
100
AcDbEntity
8
0
100
AcDbPolyline
90
4
70
1
43
0.0
10
40.726794314717083
20
38.736150367834604
10
39.7230636623053
20
38.736150367834604
10
39.723063662305307
20
37.732419715422822
10
40.726794314717083
20
37.732419715422822
0
LWPOLYLINE
5
595
100
AcDbEntity
8
0
100
AcDbPolyline
90
4
70
1
43
0.0
10
40.476831324035757
20
37.983087433356474
10
40.476831324035757
20
38.485130286274781
10
39.974083743865123
20
38.485130286274789
10
39.974083743865123
20
37.983087433356481
0
LWPOLYLINE
5
596
100
AcDbEntity
8
0
100
AcDbPolyline
90
4
70
1
43
0.0
10
39.833415342663557
20
36.966663621006845
10
40.616445324157496
20
36.966663621006845
10
40.616445324157496
20
35.735182335355319
10
39.83341534266355
20
35.735182335355312
0
LWPOLYLINE
5
597
100
AcDbEntity
8
0
100
AcDbPolyline
90
4
70
1
43
0.0
10
42.357019425049252
20
36.966663621006845
10
43.140049406543206
20
36.966663621006845
10
43.140049406543206
20
35.735182335355319
10
42.357019425049252
20
35.735182335355312
0
LWPOLYLINE
5
598
100
AcDbEntity
8
0
100
AcDbPolyline
90
4
70
1
43
0.0
10
44.882740378990604
20
36.966663621006845
10
45.665770360484558
20
36.966663621006845
10
45.665770360484558
20
35.735182335355319
10
44.882740378990604
20
35.735182335355312
0
LWPOLYLINE
5
599
100
AcDbEntity
8
0
100
AcDbPolyline
90
4
70
1
43
0.0
10
41.153388314857906
20
40.650535224277213
10
41.93641829635186
20
40.650535224277213
10
41.93641829635186
20
39.496263264634649
10
41.153388314857906
20
39.496263264634649
0
LWPOLYLINE
5
600
100
AcDbEntity
8
0
100
AcDbPolyline
90
4
70
1
43
0.0
10
43.661127964670285
20
40.650535224277213
10
44.444157946164239
20
40.650535224277213
10
44.444157946164239
20
39.496263264634649
10
43.661127964670285
20
39.496263264634649
0
LWPOLYLINE
5
601
100
AcDbEntity
8
0
100
AcDbPolyline
90
4
70
1
43
0.0
10
46.212584912314838
20
40.650535224277213
10
46.995614893808792
20
40.650535224277213
10
46.995614893808792
20
39.496263264634649
10
46.212584912314838
20
39.496263264634649
0
LWPOLYLINE
5
602
100
AcDbEntity
8
0
100
AcDbPolyline
90
4
70
1
43
0.0
10
34.805595246727094
20
60.250605921227177
10
36.081499902362452
20
60.250605921227177
10
36.081499902362452
20
57.721007286273874
10
34.805595246727094
20
57.721007286273874
0
LWPOLYLINE
5
603
100
AcDbEntity
8
0
100
AcDbPolyline
90
4
70
1
43
0.0
10
35.945764591927158
20
59.490492351977466
10
34.94168157588922
20
59.490492351977466
10
34.94168157588922
20
58.486761699565683
10
35.945412228300995
20
58.48676169956569
0
LWPOLYLINE
5
604
100
AcDbEntity
8
0
100
AcDbPolyline
90
4
70
1
43
0.0
10
35.695449237619663
20
58.737430089949008
10
35.695449237619663
20
59.239824129706555
10
35.192703002348374
20
59.239824129706555
10
35.192703002348374
20
58.737430089949008
0
LWPOLYLINE
5
605
100
AcDbEntity
8
0
100
AcDbPolyline
90
4
70
1
43
0.0
10
33.530042954717899
20
60.250605921227177
10
34.805595246727094
20
60.250605921227177
10
34.805595246727094
20
57.721007286273874
10
33.530042954717899
20
57.721007286273874
0
LWPOLYLINE
5
606
100
AcDbEntity
8
0
100
AcDbPolyline
90
4
70
1
43
0.0
10
34.669507572665637
20
59.490492351977466
10
33.666129283880025
20
59.490492351977466
10
33.666129283880018
20
58.486761699565683
10
34.6698599362918
20
58.48676169956569
0
LWPOLYLINE
5
607
100
AcDbEntity
8
0
100
AcDbPolyline
90
4
70
1
43
0.0
10
34.419896945610468
20
58.737430089949008
10
34.419896945610468
20
59.239824129706555
10
33.916797001813677
20
59.239824129706555
10
33.916797001813677
20
58.737430089949008
0
LWPOLYLINE
5
608
100
AcDbEntity
8
0
100
AcDbPolyline
90
4
70
1
43
0.0
10
32.254138299082548
20
60.250605921227177
10
33.530042954717899
20
60.250605921227177
10
33.530042954717899
20
57.721007286273874
10
32.254138299082541
20
57.721007286273874
0
LWPOLYLINE
5
609
100
AcDbEntity
8
0
100
AcDbPolyline
90
4
70
1
43
0.0
10
33.393955280656442
20
59.490492351977466
10
32.39022462824466
20
59.490492351977466
10
32.39022462824466
20
58.486761699565683
10
33.393955280656442
20
58.48676169956569
0
LWPOLYLINE
5
610
100
AcDbEntity
8
0
100
AcDbPolyline
90
4
70
1
43
0.0
10
33.143992289975117
20
58.737430089949008
10
33.143992289975117
20
59.239824129706555
10
32.640893691077657
20
59.239824129706555
10
32.640893691077657
20
58.737430089949008
0
LWPOLYLINE
5
611
100
AcDbEntity
8
0
100
AcDbPolyline
90
4
70
1
43
0.0
10
30.97858600707335
20
60.250605921227177
10
32.254138299082548
20
60.250605921227177
10
32.254138299082541
20
57.721007286273874
10
30.97858600707335
20
57.721007286273874
0
LWPOLYLINE
5
612
100
AcDbEntity
8
0
100
AcDbPolyline
90
4
70
1
43
0.0
10
32.118402988647247
20
59.490492351977466
10
31.114672336235465
20
59.490492351977466
10
31.114672336235468
20
58.486761699565683
10
32.118402988647247
20
58.48676169956569
0
LWPOLYLINE
5
613
100
AcDbEntity
8
0
100
AcDbPolyline
90
4
70
1
43
0.0
10
31.868439997965918
20
58.737430089949008
10
31.868439997965918
20
59.239824129706555
10
31.365340054169124
20
59.239824129706555
10
31.365340054169124
20
58.737430089949008
0
LWPOLYLINE
5
614
100
AcDbEntity
8
0
100
AcDbPolyline
90
4
70
1
43
0.0
10
29.702680006538653
20
60.250605921227177
10
30.97858600707335
20
60.250605921227177
10
30.97858600707335
20
57.721007286273874
10
29.702680006538657
20
57.721007286273874
0
LWPOLYLINE
5
615
100
AcDbEntity
8
0
100
AcDbPolyline
90
4
70
1
43
0.0
10
30.842498333011893
20
59.490492351977466
10
29.83876768060011
20
59.490492351977466
10
29.838767680600114
20
58.486761699565683
10
30.842498333011896
20
58.48676169956569
0
LWPOLYLINE
5
616
100
AcDbEntity
8
0
100
AcDbPolyline
90
4
70
1
43
0.0
10
30.59253534233056
20
58.737430089949008
10
30.59253534233056
20
59.239824129706555
10
30.089436743433104
20
59.239824129706555
10
30.089436743433104
20
58.737430089949008
0
LWPOLYLINE
5
617
100
AcDbEntity
8
0
100
AcDbPolyline
90
4
70
1
43
0.0
10
28.427127714529462
20
60.250605921227177
10
29.702680006538653
20
60.250605921227177
10
29.702680006538657
20
57.721007286273874
10
28.427127714529455
20
57.721007286273874
0
LWPOLYLINE
5
618
100
AcDbEntity
8
0
100
AcDbPolyline
90
4
70
1
43
0.0
10
29.566593677376535
20
59.490492351977466
10
28.563215388590919
20
59.490492351977466
10
28.563215388590919
20
58.486761699565683
10
29.566946041002701
20
58.48676169956569
0
LWPOLYLINE
5
619
100
AcDbEntity
8
0
100
AcDbPolyline
90
4
70
1
43
0.0
10
29.316983050321362
20
58.737430089949008
10
29.316983050321362
20
59.239824129706555
10
28.813883106524571
20
59.239824129706555
10
28.813883106524571
20
58.737430089949008
0
LWPOLYLINE
5
620
100
AcDbEntity
8
0
100
AcDbPolyline
90
4
70
1
43
0.0
10
27.151223058894104
20
60.250605921227177
10
28.427127714529462
20
60.250605921227177
10
28.427127714529455
20
57.721007286273874
10
27.151223058894104
20
57.721007286273874
0
LWPOLYLINE
5
621
100
AcDbEntity
8
0
100
AcDbPolyline
90
4
70
1
43
0.0
10
28.291041385367343
20
59.490492351977466
10
27.286958369329398
20
59.490492351977466
10
27.286958369329398
20
58.486761699565683
10
28.29068902174118
20
58.48676169956569
0
LWPOLYLINE
5
622
100
AcDbEntity
8
0
100
AcDbPolyline
90
4
70
1
43
0.0
10
28.041078394686011
20
58.737430089949008
10
28.041078394686011
20
59.239824129706555
10
27.537979795788555
20
59.239824129706555
10
27.537979795788551
20
58.737430089949008
0
LWPOLYLINE
5
623
100
AcDbEntity
8
0
100
AcDbPolyline
90
4
70
1
43
0.0
10
25.875670766884909
20
60.250605921227177
10
27.151223058894104
20
60.250605921227177
10
27.151223058894104
20
57.721007286273874
10
25.875670766884905
20
57.721007286273874
0
LWPOLYLINE
5
624
100
AcDbEntity
8
0
100
AcDbPolyline
90
4
70
1
43
0.0
10
27.015489093358145
20
59.490492351977466
10
26.011406077320203
20
59.490492351977466
10
26.011406077320203
20
58.486761699565683
10
27.015136729731985
20
58.48676169956569
0
LWPOLYLINE
5
625
100
AcDbEntity
8
0
100
AcDbPolyline
90
4
70
1
43
0.0
10
26.765526102676812
20
58.737430089949008
10
26.765526102676812
20
59.239824129706555
10
26.262426158880018
20
59.239824129706555
10
26.262426158880025
20
58.737430089949008
0
LWPOLYLINE
5
626
100
AcDbEntity
8
0
100
AcDbPolyline
90
4
70
1
43
0.0
10
24.599766111249551
20
60.250605921227177
10
25.875670766884909
20
60.250605921227177
10
25.875670766884905
20
57.721007286273874
10
24.599766111249551
20
57.721007286273874
0
LWPOLYLINE
5
627
100
AcDbEntity
8
0
100
AcDbPolyline
90
4
70
1
43
0.0
10
25.739232074096627
20
59.490492351977466
10
24.735853785311011
20
59.490492351977466
10
24.735853785311008
20
58.486761699565683
10
25.739584437722787
20
58.48676169956569
0
LWPOLYLINE
5
628
100
AcDbEntity
8
0
100
AcDbPolyline
90
4
70
1
43
0.0
10
25.489621447041458
20
58.737430089949008
10
25.489621447041458
20
59.239824129706555
10
24.986522848144006
20
59.239824129706555
10
24.986522848143998
20
58.737430089949008
0
LWPOLYLINE
5
629
100
AcDbEntity
8
0
100
AcDbPolyline
90
4
70
1
43
0.0
10
23.323861455614193
20
60.250605921227177
10
24.599766111249551
20
60.250605921227177
10
24.599766111249551
20
57.721007286273874
10
23.323861455614193
20
57.721007286273874
0
LWPOLYLINE
5
630
100
AcDbEntity
8
0
100
AcDbPolyline
90
4
70
1
43
0.0
10
24.463679109637759
20
59.490492351977466
10
23.459948457225977
20
59.490492351977466
10
23.459948457225984
20
58.486761699565683
10
24.463679109637763
20
58.48676169956569
0
LWPOLYLINE
5
631
100
AcDbEntity
8
0
100
AcDbPolyline
90
4
70
1
43
0.0
10
24.213716118956434
20
58.737430089949008
10
24.213716118956434
20
59.239824129706555
10
23.710969211235469
20
59.239824129706555
10
23.710969211235469
20
58.737430089949008
0
LWPOLYLINE
5
632
100
AcDbEntity
8
0
100
AcDbPolyline
90
4
70
1
43
0.0
10
28.697539899622228
20
57.721007286273874
10
29.480569881116175
20
57.721007286273874
10
29.480569881116175
20
56.566734654181644
10
28.697539899622228
20
56.566734654181644
0
LWPOLYLINE
5
633
100
AcDbEntity
8
0
100
AcDbPolyline
90
4
70
1
43
0.0
10
26.172171309307046
20
57.721007286273874
10
26.955201290800996
20
57.721007286273874
10
26.955201290800996
20
56.566734654181644
10
26.172171309307046
20
56.566734654181644
0
LWPOLYLINE
5
634
100
AcDbEntity
8
0
100
AcDbPolyline
90
4
70
1
43
0.0
10
23.646804063891196
20
57.721007286273874
10
24.429834045385146
20
57.721007286273874
10
24.429834045385146
20
56.566734654181644
10
23.646804063891196
20
56.566734654181644
0
LWPOLYLINE
5
635
100
AcDbEntity
8
0
100
AcDbPolyline
90
4
70
1
43
0.0
10
31.232778706167963
20
57.721007286273874
10
32.015808687661917
20
57.721007286273874
10
32.015808687661917
20
56.566734654181644
10
31.232778706167963
20
56.566734654181644
0
LWPOLYLINE
5
636
100
AcDbEntity
8
0
100
AcDbPolyline
90
4
70
1
43
0.0
10
33.758499660109308
20
57.721007286273874
10
34.541529641603262
20
57.721007286273874
10
34.541529641603262
20
56.566734654181644
10
33.758499660109308
20
56.566734654181644
0
LWPOLYLINE
5
637
100
AcDbEntity
8
0
100
AcDbPolyline
90
4
70
1
43
0.0
10
29.927965439294599
20
61.404878511291308
10
30.710995420788549
20
61.404878511291308
10
30.710995420788549
20
60.250605921227177
10
29.927965439294599
20
60.250605921227177
0
LWPOLYLINE
5
638
100
AcDbEntity
8
0
100
AcDbPolyline
90
4
70
1
43
0.0
10
27.44455098378144
20
61.404878511291308
10
28.227580965275394
20
61.404878511291308
10
28.227580965275394
20
60.250605921227177
10
27.44455098378144
20
60.250605921227177
0
LWPOLYLINE
5
639
100
AcDbEntity
8
0
100
AcDbPolyline
90
4
70
1
43
0.0
10
24.918830702289764
20
61.404878511291308
10
25.701860011334045
20
61.404878511291308
10
25.701860011334048
20
60.250605921227177
10
24.918830029840102
20
60.250605921227177
0
LWPOLYLINE
5
640
100
AcDbEntity
8
0
100
AcDbPolyline
90
4
70
1
43
0.0
10
32.479422386939156
20
61.404878511291308
10
33.262452368433102
20
61.404878511291308
10
33.262452368433102
20
60.250605921227177
10
32.479422386939156
20
60.250605921227177
0
LWPOLYLINE
5
641
100
AcDbEntity
8
0
100
AcDbPolyline
90
4
70
1
43
0.0
10
35.031231698209872
20
61.404878511291308
10
35.814261679703819
20
61.404878511291308
10
35.814261679703819
20
60.250605921227177
10
35.031231698209872
20
60.250605921227177
0
LWPOLYLINE
5
642
100
AcDbEntity
8
0
100
AcDbPolyline
90
4
70
1
43
0.0
10
46.194606297984549
20
60.250605921227177
10
47.470512298519253
20
60.250605921227177
10
47.470512298519253
20
57.721007286273874
10
46.194606297984549
20
57.721007286273874
0
LWPOLYLINE
5
643
100
AcDbEntity
8
0
100
AcDbPolyline
90
4
70
1
43
0.0
10
47.334424624457789
20
59.490492351977466
10
46.330693972046006
20
59.490492351977466
10
46.330693972046006
20
58.486761699565683
10
47.334424624457789
20
58.48676169956569
0
LWPOLYLINE
5
644
100
AcDbEntity
8
0
100
AcDbPolyline
90
4
70
1
43
0.0
10
47.084458943977779
20
58.737430089949008
10
47.084458943977779
20
59.239824129706555
10
46.581359000180989
20
59.239824129706555
10
46.581359000180989
20
58.737430089949008
0
LWPOLYLINE
5
645
100
AcDbEntity
8
0
100
AcDbPolyline
90
4
70
1
43
0.0
10
44.91870029744986
20
60.250605921227177
10
46.194606297984549
20
60.250605921227177
10
46.194606297984549
20
57.721007286273874
10
44.91870029744986
20
57.721007286273874
0
LWPOLYLINE
5
646
100
AcDbEntity
8
0
100
AcDbPolyline
90
4
70
1
43
0.0
10
46.058518623923092
20
59.490492351977466
10
45.05478797151131
20
59.490492351977466
10
45.05478797151131
20
58.486761699565683
10
46.058518623923092
20
58.48676169956569
0
LWPOLYLINE
5
647
100
AcDbEntity
8
0
100
AcDbPolyline
90
4
70
1
43
0.0
10
45.808555633241767
20
58.737430089949008
10
45.808555633241767
20
59.239824129706555
10
45.305455689444969
20
59.239824129706555
10
45.305455689444969
20
58.737430089949008
0
LWPOLYLINE
5
648
100
AcDbEntity
8
0
100
AcDbPolyline
90
4
70
1
43
0.0
10
43.643149350339996
20
60.250605921227177
10
44.91870029744986
20
60.250605921227177
10
44.91870029744986
20
57.721007286273874
10
43.643149350339989
20
57.721007286273874
0
LWPOLYLINE
5
649
100
AcDbEntity
8
0
100
AcDbPolyline
90
4
70
1
43
0.0
10
44.782612623388403
20
59.490492351977466
10
43.77888197097662
20
59.490492351977466
10
43.778881970976613
20
58.486761699565683
10
44.782612623388395
20
58.48676169956569
0
LWPOLYLINE
5
650
100
AcDbEntity
8
0
100
AcDbPolyline
90
4
70
1
43
0.0
10
44.533001996333226
20
58.737430089949008
10
44.533001996333226
20
59.239824129706555
10
44.029904742335113
20
59.239824129706555
10
44.029904742335113
20
58.737430089949008
0
LWPOLYLINE
5
651
100
AcDbEntity
8
0
100
AcDbPolyline
90
4
70
1
43
0.0
10
42.367243349805307
20
60.250605921227177
10
43.643149350339996
20
60.250605921227177
10
43.643149350339989
20
57.721007286273874
10
42.3672433498053
20
57.721007286273874
0
LWPOLYLINE
5
652
100
AcDbEntity
8
0
100
AcDbPolyline
90
4
70
1
43
0.0
10
43.507061676278539
20
59.490492351977466
10
42.503331023866757
20
59.490492351977466
10
42.503331023866764
20
58.486761699565683
10
43.507061676278546
20
58.48676169956569
0
LWPOLYLINE
5
653
100
AcDbEntity
8
0
100
AcDbPolyline
90
4
70
1
43
0.0
10
43.257098685597207
20
58.737430089949008
10
43.257098685597207
20
59.239824129706555
10
42.753998741800416
20
59.239824129706555
10
42.753998741800416
20
58.737430089949008
0
LWPOLYLINE
5
654
100
AcDbEntity
8
0
100
AcDbPolyline
90
4
70
1
43
0.0
10
41.091692402695443
20
60.250605921227177
10
42.367243349805307
20
60.250605921227177
10
42.3672433498053
20
57.721007286273874
10
41.091692402695443
20
57.721007286273874
0
LWPOLYLINE
5
655
100
AcDbEntity
8
0
100
AcDbPolyline
90
4
70
1
43
0.0
10
42.23115567574385
20
59.490492351977466
10
41.227425023332067
20
59.490492351977466
10
41.227425023332067
20
58.486761699565683
10
42.23115567574385
20
58.48676169956569
0
LWPOLYLINE
5
656
100
AcDbEntity
8
0
100
AcDbPolyline
90
4
70
1
43
0.0
10
41.981192685062524
20
58.737430089949008
10
41.981192685062524
20
59.239824129706555
10
41.47844510489189
20
59.239824129706555
10
41.478445104891875
20
58.737430089949008
0
LWPOLYLINE
5
657
100
AcDbEntity
8
0
100
AcDbPolyline
90
4
70
1
43
0.0
10
39.815786402160754
20
60.250605921227177
10
41.091692402695443
20
60.250605921227177
10
41.091692402695443
20
57.721007286273874
10
39.815786402160754
20
57.721007286273874
0
LWPOLYLINE
5
658
100
AcDbEntity
8
0
100
AcDbPolyline
90
4
70
1
43
0.0
10
40.955604728633986
20
59.490492351977466
10
39.951874076222211
20
59.490492351977466
10
39.951874076222211
20
58.486761699565683
10
40.955604728633986
20
58.48676169956569
0
LWPOLYLINE
5
659
100
AcDbEntity
8
0
100
AcDbPolyline
90
4
70
1
43
0.0
10
40.705641737952654
20
58.737430089949008
10
40.705641737952654
20
59.239824129706555
10
40.202541794155863
20
59.239824129706555
10
40.202541794155863
20
58.737430089949008
0
LWPOLYLINE
5
660
100
AcDbEntity
8
0
100
AcDbPolyline
90
4
70
1
43
0.0
10
38.539880401626057
20
60.250605921227177
10
39.815786402160754
20
60.250605921227177
10
39.815786402160754
20
57.721007286273874
10
38.539880401626057
20
57.721007286273874
0
LWPOLYLINE
5
661
100
AcDbEntity
8
0
100
AcDbPolyline
90
4
70
1
43
0.0
10
39.679698728099297
20
59.490492351977466
10
38.675968075687514
20
59.490492351977466
10
38.675968075687514
20
58.486761699565683
10
39.679698728099297
20
58.48676169956569
0
LWPOLYLINE
5
662
100
AcDbEntity
8
0
100
AcDbPolyline
90
4
70
1
43
0.0
10
39.429735737417964
20
58.737430089949008
10
39.429735737417964
20
59.239824129706555
10
38.926988157247337
20
59.239824129706555
10
38.926988157247337
20
58.737430089949008
0
LWPOLYLINE
5
663
100
AcDbEntity
8
0
100
AcDbPolyline
90
4
70
1
43
0.0
10
37.264329454516201
20
60.250605921227177
10
38.539880401626057
20
60.250605921227177
10
38.539880401626057
20
57.721007286273874
10
37.264329454516201
20
57.721007286273874
0
LWPOLYLINE
5
664
100
AcDbEntity
8
0
100
AcDbPolyline
90
4
70
1
43
0.0
10
38.404147780989433
20
59.490492351977466
10
37.400417128577658
20
59.490492351977466
10
37.400417128577658
20
58.486761699565683
10
38.40414778098944
20
58.48676169956569
0
LWPOLYLINE
5
665
100
AcDbEntity
8
0
100
AcDbPolyline
90
4
70
1
43
0.0
10
38.154184790308101
20
58.737430089949008
10
38.154184790308101
20
59.239824129706555
10
37.65108484651131
20
59.239824129706555
10
37.65108484651131
20
58.737430089949008
0
LWPOLYLINE
5
666
100
AcDbEntity
8
0
100
AcDbPolyline
90
4
70
1
43
0.0
10
40.085492515101855
20
57.721007286273874
10
40.868522496595801
20
57.721007286273874
10
40.868522496595801
20
56.566734654181644
10
40.085492515101855
20
56.566734654181644
0
LWPOLYLINE
5
667
100
AcDbEntity
8
0
100
AcDbPolyline
90
4
70
1
43
0.0
10
37.510766119137237
20
57.721007286273874
10
38.293796100631184
20
57.721007286273874
10
38.293796100631184
20
56.566734654181644
10
37.510766119137237
20
56.566734654181644
0
LWPOLYLINE
5
668
100
AcDbEntity
8
0
100
AcDbPolyline
90
4
70
1
43
0.0
10
42.610861105417044
20
57.721007286273874
10
43.393891086910998
20
57.721007286273874
10
43.393891086910998
20
56.566734654181644
10
42.610861105417044
20
56.566734654181644
0
LWPOLYLINE
5
669
100
AcDbEntity
8
0
100
AcDbPolyline
90
4
70
1
43
0.0
10
45.14610125686211
20
57.721007286273874
10
45.929131238356064
20
57.721007286273874
10
45.929131238356064
20
56.566734654181644
10
45.14610125686211
20
56.566734654181644
0
LWPOLYLINE
5
670
100
AcDbEntity
8
0
100
AcDbPolyline
90
4
70
1
43
0.0
10
41.349410082951017
20
61.404878511291308
10
42.132440064444971
20
61.404878511291308
10
42.132440064444971
20
60.250605921227177
10
41.349410082951017
20
60.250605921227177
0
LWPOLYLINE
5
671
100
AcDbEntity
8
0
100
AcDbPolyline
90
4
70
1
43
0.0
10
38.831798872008747
20
61.404878511291308
10
39.614828853502701
20
61.404878511291308
10
39.614828853502701
20
60.250605921227177
10
38.831798872008747
20
60.250605921227177
0
LWPOLYLINE
5
672
100
AcDbEntity
8
0
100
AcDbPolyline
90
4
70
1
43
0.0
10
43.886412052526893
20
61.404878511291308
10
44.669442034020847
20
61.404878511291308
10
44.669442034020847
20
60.250605921227177
10
43.886412052526893
20
60.250605921227177
0
LWPOLYLINE
5
673
100
AcDbEntity
8
0
100
AcDbPolyline
90
4
70
1
43
0.0
10
46.452676341866294
20
61.404878511291308
10
47.23570632336024
20
61.404878511291308
10
47.235706323360233
20
60.250605921227177
10
46.45267634186628
20
60.250605921227177
0
LWPOLYLINE
5
674
100
AcDbEntity
8
0
100
AcDbPolyline
90
4
70
1
43
0.0
10
37.108851021821124
20
39.496263264634649
10
38.384757022355821
20
39.496263264634649
10
38.384757022355828
20
36.966663621006845
10
37.108851021821131
20
36.966663621006845
0
LWPOLYLINE
5
675
100
AcDbEntity
8
0
100
AcDbPolyline
90
4
70
1
43
0.0
10
38.248669348294364
20
38.736150367834604
10
37.244938695882588
20
38.736150367834604
10
37.244938695882588
20
37.732419715422822
10
38.248669348294364
20
37.732419715422822
0
LWPOLYLINE
5
676
100
AcDbEntity
8
0
100
AcDbPolyline
90
4
70
1
43
0.0
10
37.998706357613031
20
37.983087433356474
10
37.998706357613031
20
38.485130286274781
10
37.49560641381624
20
38.485130286274789
10
37.49560641381624
20
37.983087433356481
0
LWPOLYLINE
5
677
100
AcDbEntity
8
0
100
AcDbPolyline
90
4
70
1
43
0.0
10
35.833300074711268
20
39.496263264634649
10
37.108851021821124
20
39.496263264634649
10
37.108851021821131
20
36.966663621006845
10
35.833301419610606
20
36.966663621006845
0
LWPOLYLINE
5
678
100
AcDbEntity
8
0
100
AcDbPolyline
90
4
70
1
43
0.0
10
36.973118401184507
20
38.736150367834604
10
35.969387748772725
20
38.736150367834604
10
35.969387748772725
20
37.732419715422822
10
36.973118401184507
20
37.732419715422822
0
LWPOLYLINE
5
679
100
AcDbEntity
8
0
100
AcDbPolyline
90
4
70
1
43
0.0
10
36.723152720704505
20
37.983087433356474
10
36.723152720704505
20
38.485130286274781
10
36.220052776907707
20
38.485130286274789
10
36.220052776907707
20
37.983087433356481
0
LWPOLYLINE
5
680
100
AcDbEntity
8
0
100
AcDbPolyline
90
4
70
1
43
0.0
10
34.557394074176578
20
39.496263264634649
10
35.833300074711268
20
39.496263264634649
10
35.833301419610606
20
36.966663621006845
10
34.557394074176578
20
36.966663621006845
0
LWPOLYLINE
5
681
100
AcDbEntity
8
0
100
AcDbPolyline
90
4
70
1
43
0.0
10
35.697212400649811
20
38.736150367834604
10
34.693481748238028
20
38.736150367834604
10
34.693481748238035
20
37.732419715422822
10
35.697212400649818
20
37.732419715422822
0
LWPOLYLINE
5
682
100
AcDbEntity
8
0
100
AcDbPolyline
90
4
70
1
43
0.0
10
35.447249409968485
20
37.983087433356474
10
35.447249409968485
20
38.485130286274781
10
34.944149466171687
20
38.485130286274789
10
34.944149466171687
20
37.983087433356481
0
LWPOLYLINE
5
683
100
AcDbEntity
8
0
100
AcDbPolyline
90
4
70
1
43
0.0
10
33.281841782167383
20
39.496263264634649
10
34.557394074176578
20
39.496263264634649
10
34.557394074176578
20
36.966663621006845
10
33.281841782167383
20
36.966663621006845
0
LWPOLYLINE
5
684
100
AcDbEntity
8
0
100
AcDbPolyline
90
4
70
1
43
0.0
10
34.42130774501446
20
38.736150367834604
10
33.41792945622884
20
38.736150367834604
10
33.41792945622884
20
37.732419715422822
10
34.421660108640623
20
37.732419715422822
0
LWPOLYLINE
5
685
100
AcDbEntity
8
0
100
AcDbPolyline
90
4
70
1
43
0.0
10
34.17169711795929
20
37.983087433356474
10
34.17169711795929
20
38.485130286274781
10
33.668598519061831
20
38.485130286274789
10
33.668598519061831
20
37.983087433356481
0
LWPOLYLINE
5
686
100
AcDbEntity
8
0
100
AcDbPolyline
90
4
70
1
43
0.0
10
32.005937126532025
20
39.496263264634649
10
33.281841782167383
20
39.496263264634649
10
33.281841782167383
20
36.966663621006845
10
32.005937126532025
20
36.966663621006845
0
LWPOLYLINE
5
687
100
AcDbEntity
8
0
100
AcDbPolyline
90
4
70
1
43
0.0
10
33.145755453005265
20
38.736150367834604
10
32.141672436967319
20
38.736150367834604
10
32.141672436967319
20
37.732419715422822
10
33.145403089379101
20
37.732419715422822
0
LWPOLYLINE
5
688
100
AcDbEntity
8
0
100
AcDbPolyline
90
4
70
1
43
0.0
10
32.895792462323932
20
37.983087433356474
10
32.895792462323932
20
38.485130286274781
10
32.392692518527134
20
38.485130286274789
10
32.392692518527141
20
37.983087433356481
0
LWPOLYLINE
5
689
100
AcDbEntity
8
0
100
AcDbPolyline
90
4
70
1
43
0.0
10
30.73038483452283
20
39.496263264634649
10
32.005937126532025
20
39.496263264634649
10
32.005937126532025
20
36.966663621006845
10
30.73038483452283
20
36.966663621006845
0
LWPOLYLINE
5
690
100
AcDbEntity
8
0
100
AcDbPolyline
90
4
70
1
43
0.0
10
31.870203160996063
20
38.736150367834604
10
30.866120144958124
20
38.736150367834604
10
30.866120144958124
20
37.732419715422822
10
31.870203160996063
20
37.732419715422822
0
LWPOLYLINE
5
691
100
AcDbEntity
8
0
100
AcDbPolyline
90
4
70
1
43
0.0
10
31.620240170314737
20
37.983087433356474
10
31.620240170314737
20
38.485130286274781
10
31.117141571417282
20
38.485130286274789
10
31.117141571417278
20
37.983087433356481
0
LWPOLYLINE
5
692
100
AcDbEntity
8
0
100
AcDbPolyline
90
4
70
1
43
0.0
10
29.454480178887472
20
39.496263264634649
10
30.73038483452283
20
39.496263264634649
10
30.73038483452283
20
36.966663621006845
10
29.454480178887472
20
36.966663621006845
0
LWPOLYLINE
5
693
100
AcDbEntity
8
0
100
AcDbPolyline
90
4
70
1
43
0.0
10
30.593946141734545
20
38.736150367834604
10
29.590567852948929
20
38.736150367834604
10
29.590567852948929
20
37.732419715422822
10
30.594298505360712
20
37.732419715422822
0
LWPOLYLINE
5
694
100
AcDbEntity
8
0
100
AcDbPolyline
90
4
70
1
43
0.0
10
30.344335514679379
20
37.983087433356474
10
30.344335514679379
20
38.485130286274781
10
29.841235570882585
20
38.485130286274789
10
29.841235570882585
20
37.983087433356481
0
LWPOLYLINE
5
695
100
AcDbEntity
8
0
100
AcDbPolyline
90
4
70
1
43
0.0
10
28.178575523252114
20
39.496263264634649
10
29.454480178887472
20
39.496263264634649
10
29.454480178887472
20
36.966663621006845
10
28.178575523252114
20
36.966663621006845
0
LWPOLYLINE
5
696
100
AcDbEntity
8
0
100
AcDbPolyline
90
4
70
1
43
0.0
10
29.318393849725354
20
38.736150367834604
10
28.314663197313571
20
38.736150367834604
10
28.314663197313571
20
37.732419715422822
10
29.318393849725354
20
37.732419715422822
0
LWPOLYLINE
5
697
100
AcDbEntity
8
0
100
AcDbPolyline
90
4
70
1
43
0.0
10
29.068429514144682
20
37.983087433356474
10
29.068429514144682
20
38.485130286274781
10
28.565683278873387
20
38.485130286274789
10
28.565683278873387
20
37.983087433356481
0
LWPOLYLINE
5
698
100
AcDbEntity
8
0
100
AcDbPolyline
90
4
70
1
43
0.0
10
28.425365896398649
20
36.966663621006845
10
29.208395877892599
20
36.966663621006845
10
29.208395877892599
20
35.735182335355319
10
28.425365896398649
20
35.735182335355312
0
LWPOLYLINE
5
699
100
AcDbEntity
8
0
100
AcDbPolyline
90
4
70
1
43
0.0
10
30.924997148111292
20
36.966663621006845
10
31.708027129605242
20
36.966663621006845
10
31.708027129605242
20
35.735182335355319
10
30.924997148111292
20
35.735182335355312
0
LWPOLYLINE
5
700
100
AcDbEntity
8
0
100
AcDbPolyline
90
4
70
1
43
0.0
10
33.463409917091155
20
36.966663621006845
10
34.246439898585109
20
36.966663621006845
10
34.246439898585109
20
35.735182335355319
10
33.463409917091155
20
35.735182335355312
0
LWPOLYLINE
5
701
100
AcDbEntity
8
0
100
AcDbPolyline
90
4
70
1
43
0.0
10
35.969386403873386
20
36.966663621006845
10
36.752415040468001
20
36.966663621006845
10
36.752415040468009
20
35.735182335355319
10
35.969385058974055
20
35.735182335355312
0
LWPOLYLINE
5
702
100
AcDbEntity
8
0
100
AcDbPolyline
90
4
70
1
43
0.0
10
29.728064981515033
20
40.650535224277213
10
30.511094963008986
20
40.650535224277213
10
30.511094963008986
20
39.496263264634649
10
29.728064981515033
20
39.496263264634649
0
LWPOLYLINE
5
703
100
AcDbEntity
8
0
100
AcDbPolyline
90
4
70
1
43
0.0
10
32.253432226930883
20
40.645247080086108
10
33.036462208424837
20
40.645247080086108
10
33.036462208424837
20
39.490975120443537
10
32.253432226930883
20
39.490975120443537
0
LWPOLYLINE
5
704
100
AcDbEntity
8
0
100
AcDbPolyline
90
4
70
1
43
0.0
10
34.779153180872228
20
40.650535224277213
10
35.562183162366175
20
40.650535224277213
10
35.562183162366175
20
39.496263264634649
10
34.779153180872228
20
39.496263264634649
0
LWPOLYLINE
5
705
100
AcDbEntity
8
0
100
AcDbPolyline
90
4
70
1
43
0.0
10
37.304872789914242
20
40.650535224277213
10
38.087902771408189
20
40.650535224277213
10
38.087902771408189
20
39.496263264634649
10
37.304872789914242
20
39.496263264634649
0
LWPOLYLINE
5
706
100
AcDbEntity
8
0
100
AcDbPolyline
90
4
70
1
43
0.0
10
14.849794556519463
20
37.586108116605317
10
16.150730898886746
20
37.586108116605317
42
-0.99999999999999989
10
16.150730898886746
20
35.996073978045018
10
14.849794472463254
20
35.996073978045018
0
CIRCLE
5
707
100
AcDbEntity
8
0
100
AcDbCircle
10
-16.155666730557861
20
36.790386094129758
30
0
40
0.51861177604166653
210
0
220
0
230
-1
0
LWPOLYLINE
5
708
100
AcDbEntity
8
0
100
AcDbPolyline
90
3
70
1
43
0.0
10
14.849794556519463
20
37.307587533412814
42
-0.41581525023783295
10
15.368053785356206
20
36.78932788429502
42
-0.41421379989424495
10
14.849794556519464
20
36.271068235177225
0
LWPOLYLINE
5
709
100
AcDbEntity
8
0
100
AcDbPolyline
90
4
70
1
43
0.0
10
14.849794556519463
20
40.098078819730318
10
16.150730898886746
20
40.098078819730318
42
-0.99999999999999989
10
16.150730898886746
20
38.50804468117002
10
14.849794472463254
20
38.50804468117002
0
CIRCLE
5
710
100
AcDbEntity
8
0
100
AcDbCircle
10
-16.155666730557861
20
39.302356797254753
30
0
40
0.51861177604166653
210
0
220
0
230
-1
0
LWPOLYLINE
5
711
100
AcDbEntity
8
0
100
AcDbPolyline
90
3
70
1
43
0.0
10
14.849794556519463
20
39.819558236537809
42
-0.41581525023783295
10
15.368053785356206
20
39.301298587420021
42
-0.41421379989424245
10
14.849794556519464
20
38.783038938302226
0
LWPOLYLINE
5
712
100
AcDbEntity
8
0
100
AcDbPolyline
90
4
70
1
43
0.0
10
45.440838636254099
20
51.730706281700172
10
45.440838636254099
20
52.74325073191369
10
46.240085413947526
20
52.74325073191369
10
46.240085413947526
20
51.730706281700172
0
LWPOLYLINE
5
713
100
AcDbEntity
8
0
100
AcDbPolyline
90
11
70
1
43
0.0
10
45.440838636254099
20
52.74325073191369
10
46.240085413947526
20
52.74325073191369
10
46.240085413947526
20
51.730706281700172
10
45.439781545375617
20
51.730706281700172
10
45.43978154537561
20
51.445135063736075
10
45.700673188065323
20
51.445135063736075
42
-0.40699965678101191
10
45.83817031663142
20
51.586157845912801
42
-0.41421439162090357
10
45.979193771257826
20
51.445135063736075
10
46.240085413947526
20
51.445135063736075
10
46.240085413947526
20
51.730706281700172
10
45.440838636254099
20
51.730706281700172
0
LWPOLYLINE
5
714
100
AcDbEntity
8
0
100
AcDbPolyline
90
4
70
1
43
0.0
10
46.099061959321126
20
52.602227949736942
10
46.099061959321126
20
51.871729063876899
10
45.581859401081822
20
51.871729063876906
10
45.581859401081829
20
52.602227949736957
0
LWPOLYLINE
5
715
100
AcDbEntity
8
0
100
AcDbPolyline
90
7
70
1
43
0.0
10
45.979193771257833
20
53.027411822923455
42
-0.40699965678101191
10
45.84169664269173
20
52.886389040746735
42
-0.41421439162092205
10
45.700673188065323
20
53.027411822923455
10
45.439781545375617
20
53.027411822923455
10
45.439781545375617
20
52.741840604959364
10
46.240085413947526
20
52.741840604959364
10
46.240085413947526
20
53.027411822923455
0
ENDSEC
0
SECTION
2
OBJECTS
0
DICTIONARY
5
C
100
AcDbDictionary
3
ACAD_GROUP
350
D
3
ACAD_MLINESTYLE
350
17
0
DICTIONARY
5
D
100
AcDbDictionary
0
DICTIONARY
5
1A
330
C
100
AcDbDictionary
0
DICTIONARY
5
17
100
AcDbDictionary
0
ENDSEC
0
EOF
